<svg width="623" height="402" viewBox="0 0 623 402" fill="none" xmlns="http://www.w3.org/2000/svg">
<g clip-path="url(#clip0_263_309)">
<path d="M452.03 377.145L448.793 336.828L439.544 379.462C439.544 379.462 439.666 390.218 439.973 402H451.822C452.221 388.532 452.03 377.145 452.03 377.145Z" fill="#F2F2F2"/>
<path d="M285.59 391.483C284.679 387.713 284.036 383.883 283.666 380.022L282.371 366.075C281.827 362.256 281.267 358.89 280.705 355.92C276.582 334.74 272.326 333.974 272.326 333.974C272.143 334.114 271.965 334.269 271.782 334.43C271.282 334.886 270.816 335.378 270.388 335.903C263.609 344.537 259.011 366.931 256.595 381.786C255.26 389.992 254.596 395.897 254.596 395.897C254.596 395.897 255.2 398.412 256.024 402H286.958C286.84 398.458 286.382 394.937 285.59 391.483Z" fill="#F2F2F2"/>
<path d="M528.833 0H94.167C42.3751 0 0 42.4634 0 94.3632V307.637C0 359.537 42.3751 402 94.167 402H231.932L230.155 393.613C230.155 393.613 225.582 364.044 230.155 340.99C231.631 333.757 232.644 326.437 233.188 319.074C233.76 310.762 235.116 302.523 237.237 294.466C237.358 294.001 237.494 293.54 237.62 293.077C236.505 292.773 235.993 292.53 236.252 292.377C236.966 291.954 237.359 290.659 237.555 289.016C238.773 278.137 241.096 267.411 244.487 257.005C239.867 259.912 236.799 260.221 234.79 259.094C227.733 257.163 230.663 241.257 230.663 241.257C230.663 241.257 235.049 206.854 236.506 194.398C237.343 187.238 248.075 183.18 257.576 180.977C258.577 178.826 259.298 176.658 258.84 174.383C258.809 174.23 258.765 174.082 258.724 173.932C257.516 171.244 255.061 169.032 254.139 166.247C253.731 165.498 253.443 164.689 253.287 163.85C252.471 159.076 256.925 154.953 258.209 150.362C256.899 149.094 255.921 147.522 255.361 145.785C253.404 141.763 254.358 136.935 260.643 133.207C261.898 132.463 263.227 131.806 264.577 131.176C265.072 130.856 265.61 130.609 266.175 130.442C270.672 128.404 275.191 126.432 277.882 122.463C278.575 121.441 279.183 120.256 280.305 119.719C280.833 119.492 281.398 119.365 281.972 119.344C290.637 118.678 298.482 126.124 307.105 125.056C309.718 124.733 312.384 123.633 314.892 124.425C316.54 124.945 317.825 126.214 318.933 127.525C321.946 131.13 324.129 135.357 325.324 139.905C326.519 144.453 326.698 149.209 325.847 153.834C324.754 159.527 322.095 165.394 324.011 170.871C325.419 174.895 329.188 178.161 329.214 182.418C329.236 185.921 326.755 188.716 324.358 191.442C324.669 191.761 324.973 192.09 325.269 192.426C331.128 199.115 330.021 204.824 329.194 207.11L329.195 207.111L326.182 236.246L323.641 255.791C323.641 255.791 323.013 263.813 317.096 265.572C315.372 266.371 313.115 266.581 310.147 265.676C308.221 265.089 306.598 264.502 305.22 263.931C306.522 268.097 308.763 276.603 308.399 284.859C307.891 296.386 309.415 297.388 309.415 297.388C309.319 297.507 309.211 297.614 309.092 297.708C315.127 311.07 315.182 324.78 308.907 338.484C301.794 354.02 309.415 390.105 309.415 390.105C309.415 390.105 309.957 395.733 310.201 402H419.318C417.583 385.412 415.498 368.806 414.571 366.95C413.045 363.89 414.983 313.475 415.707 295.964C415.385 295.882 415.071 295.799 414.775 295.714C414.259 295.566 413.795 295.411 413.367 295.253C413.345 296.145 413.439 297.035 413.647 297.902C414.289 299.403 412.749 300.507 410.131 301.26C411.654 308.705 413.534 322.559 407.172 325.243C400.628 328.004 400.497 311.232 400.857 302.489C400.031 302.52 399.204 302.536 398.386 302.536C390.524 302.536 400.698 211.243 400.236 205.219C399.773 199.195 403.935 174.634 403.935 174.634C403.935 174.634 405.323 169.536 409.485 168.609C413.647 167.683 433.532 156.097 433.532 156.097C434.65 154.523 436.064 153.182 437.694 152.149V151.463C438.212 150.979 438.764 150.532 439.344 150.125C439.102 146.076 438.555 140.852 438.157 137.322C435.921 135.04 434.412 132.145 433.818 129.003C432.966 128.336 432.157 127.616 431.396 126.847C429.487 124.653 428.391 121.866 428.295 118.956C428.21 116.066 428.627 113.184 429.528 110.437C429.763 109.525 430.124 108.649 430.599 107.836C431.253 106.893 432.074 106.078 433.02 105.431C433.301 105.222 433.591 105.026 433.88 104.83C434.493 103.636 435.392 102.613 436.497 101.853C438.857 100.301 441.895 100.427 444.717 100.498C444.759 100.499 444.802 100.499 444.845 100.499C445.368 100.415 445.894 100.345 446.421 100.29C446.729 100.228 447.013 100.078 447.238 99.8578C447.462 99.6373 447.618 99.3561 447.685 99.0484C448.068 99.4162 448.45 99.784 448.832 100.152C449.405 100.143 449.978 100.153 450.551 100.181C450.804 99.5998 451.102 99.0388 451.442 98.5033C451.651 99.1019 451.86 99.7006 452.07 100.299C452.645 100.361 453.218 100.438 453.788 100.537C454.238 100.179 454.687 99.8213 455.137 99.4634C455.237 99.3839 455.595 100.557 455.775 100.959C456.084 101.039 456.393 101.123 456.699 101.218C457.176 101.197 457.707 101.107 458.002 101.112C459.629 101.057 461.239 101.459 462.649 102.273C463.881 103.171 464.892 104.34 465.603 105.689C467.42 108.57 468.548 111.832 468.9 115.221C469.783 116.447 470.406 117.841 470.73 119.317C471.493 123.969 467.081 127.857 466.207 132.489C465.741 134.961 466.273 137.697 465.017 139.875C464.467 140.752 463.747 141.509 462.898 142.101C462.397 142.475 461.874 142.82 461.333 143.134C461.362 145.936 461.683 148.728 462.29 151.463L462.885 153.749C463.81 154.418 464.808 155.191 465.903 156.097C465.903 156.097 478.852 161.658 483.476 164.439C487.542 166.883 491.962 167.181 493.286 170.366L493.65 170.463C493.65 170.463 498.275 221.902 498.737 230.707C499.2 239.512 504.749 293.731 503.824 296.048C503.482 296.905 501.301 297.89 498.668 298.672C500.205 305.71 502.685 321.016 495.962 323.853C489.147 326.728 489.288 308.416 489.694 300.055C488.785 299.972 488.189 299.734 488.101 299.292C488.026 298.915 487.785 297.214 487.436 294.619C486.86 294.709 486.263 294.802 485.627 294.899C485.499 294.918 485.364 294.938 485.235 294.958C491.098 313.439 478.112 362.453 475.615 372.048C474.31 377.061 472.902 389.456 471.633 402H528.833C580.625 402 623 359.537 623 307.637V94.3632C623 42.4634 580.625 0 528.833 0Z" fill="#505050"/>
<path d="M139.477 170.018C174.325 170.018 202.574 144.257 202.574 112.48C202.574 80.7027 174.325 54.9421 139.477 54.9421C104.63 54.9421 76.3804 80.7027 76.3804 112.48C76.3804 144.257 104.63 170.018 139.477 170.018Z" fill="#3F3D56"/>
<path d="M243.422 300.502C243.422 300.502 264.676 285.859 264.676 279.204C264.676 272.548 279.287 229.286 287.258 248.588C295.228 267.889 275.967 295.177 275.967 295.177C275.967 295.177 254.713 333.78 242.093 340.435C229.474 347.091 218.847 343.098 218.847 343.098V325.127L230.989 307.119C232.364 305.081 234.216 303.412 236.383 302.259C238.551 301.105 240.967 300.502 243.422 300.502Z" fill="#FFB9B9"/>
<path d="M183.01 198.562C183.01 198.562 214.862 208.654 218.183 213.313C221.504 217.972 222.832 209.985 232.131 240.601C241.429 271.217 243.754 300.834 243.754 300.834C243.754 300.834 220.839 308.488 223.496 338.439C226.153 368.389 219.511 401.002 219.511 401.002H211.219L192.944 344.429L214.862 258.571C214.862 258.571 183.703 205.774 183.01 198.562Z" fill="#575A89"/>
<path d="M172.355 170.717C194.364 170.717 212.205 152.838 212.205 130.783C212.205 108.728 194.364 90.8494 172.355 90.8494C150.346 90.8494 132.504 108.728 132.504 130.783C132.504 152.838 150.346 170.717 172.355 170.717Z" fill="#FFB9B9"/>
<path d="M187.631 160.733C187.631 160.733 176.34 198.005 186.302 203.329C196.265 208.654 207.556 232.614 207.556 232.614L190.287 251.916H150.437L132.504 231.949L125.198 198.005L135.16 190.018C135.16 190.018 145.787 163.396 145.787 149.419C145.787 135.442 187.631 160.733 187.631 160.733Z" fill="#FFB9B9"/>
<path d="M190.951 201.998C190.951 201.998 182.981 200.002 187.63 207.988C192.28 215.975 196.929 230.618 180.324 231.283C163.72 231.949 147.116 223.296 141.802 205.326C136.489 187.356 134.496 188.687 132.504 189.353C130.511 190.018 109.257 211.982 109.257 211.982L116.563 253.247L119.22 401.002H216.19C216.19 401.002 220.175 358.406 213.533 348.422C206.892 338.439 219.511 313.147 219.511 313.147C219.511 313.147 230.802 295.843 222.168 262.565C213.533 229.286 194.272 201.998 190.951 201.998Z" fill="#F12711"/>
<path d="M137.153 189.353C137.153 189.353 127.19 184.694 118.556 192.681C109.922 200.667 90.6604 207.323 90.6604 211.316C90.6604 215.31 107.265 329.121 95.9738 349.088C84.6828 369.055 72.7275 401.002 72.7275 401.002H128.129C128.129 401.002 137.153 367.724 146.451 349.753C155.75 331.783 155.086 281.2 152.429 265.893C149.772 250.585 137.153 189.353 137.153 189.353Z" fill="#575A89"/>
<path d="M78.7051 365.727L81.9396 401.002H117.837L114.571 357.074L78.7051 365.727Z" fill="#FFB9B9"/>
<path d="M242.093 347.091L250.728 401.002H442.675L459.28 292.515L242.093 347.091Z" fill="#3F3D56"/>
<path d="M466.586 285.194L468.578 295.177L220.175 355.078V346.425L466.586 285.194Z" fill="#3F3D56"/>
<path d="M361.646 303.164L360.317 314.478L374.929 312.482L368.952 301.167L361.646 303.164Z" fill="#3F3D56"/>
<path d="M281.28 188.687C281.28 188.687 310.504 186.69 318.474 209.319C326.444 231.949 345.041 272.548 352.347 278.538C359.653 284.528 367.623 300.502 366.295 305.826" stroke="#3F3D56" stroke-width="5" stroke-miterlimit="10"/>
<path d="M285.597 188.354C285.597 191.479 282.282 194.012 276.963 194.012C271.644 194.012 268.993 191.479 268.993 188.354C268.993 185.23 271.644 182.697 276.963 182.697C282.282 182.697 285.597 185.23 285.597 188.354Z" fill="#F12711"/>
<path d="M236.448 292.182C236.448 292.182 241.429 271.217 232.13 240.601C222.832 209.985 221.504 217.972 218.183 213.313C214.862 208.654 183.01 198.562 183.01 198.562C183.238 200.931 186.755 208.223 191.376 216.947C190.544 213.802 189.284 210.788 187.63 207.988C182.981 200.002 190.951 201.998 190.951 201.998C194.272 201.998 213.533 229.286 222.168 262.565C230.802 295.843 219.511 313.147 219.511 313.147L236.448 292.182Z" fill="#575A89"/>
<path d="M183.313 198.338C183.313 198.338 187.246 213.285 190.593 215.462C193.94 217.639 213.793 238.307 213.793 238.307L211.209 221.632L200.582 205.659L197.756 203.604L183.313 198.338Z" fill="#575A89"/>
<path opacity="0.1" d="M94.9774 244.262L95.9035 209.985C95.9035 209.985 74.0558 219.303 72.0633 259.237C70.0707 299.171 75.3842 374.379 82.6901 375.045C89.9961 375.71 124.533 367.724 124.533 367.724C124.533 367.724 129.847 271.217 127.854 258.571C125.862 245.926 94.9774 244.262 94.9774 244.262Z" fill="black"/>
<path d="M96.6382 209.985H91.2546C91.2546 209.985 69.4069 219.303 67.4143 259.237C65.4218 299.171 70.7352 374.379 78.0412 375.045C85.3472 375.71 119.884 367.724 119.884 367.724C119.884 367.724 125.198 271.217 123.205 258.571C121.213 245.926 96.6382 209.985 96.6382 209.985Z" fill="#575A89"/>
<path d="M124.866 166.391C147.608 166.391 166.045 145.681 166.045 120.134C166.045 94.5872 147.608 73.8774 124.866 73.8774C102.123 73.8774 83.6865 94.5872 83.6865 120.134C83.6865 145.681 102.123 166.391 124.866 166.391Z" fill="#3F3D56"/>
<path d="M154.422 157.738C159.007 157.738 162.724 152.226 162.724 145.425C162.724 138.625 159.007 133.113 154.422 133.113C149.837 133.113 146.12 138.625 146.12 145.425C146.12 152.226 149.837 157.738 154.422 157.738Z" fill="#FFB9B9"/>
<path d="M83.6866 107.821C102.394 107.821 117.56 92.6241 117.56 73.8775C117.56 55.131 102.394 39.9338 83.6866 39.9338C64.979 39.9338 49.8135 55.131 49.8135 73.8775C49.8135 92.6241 64.979 107.821 83.6866 107.821Z" fill="#3F3D56"/>
<path d="M88.0647 101.07C83.1439 103.579 77.6855 104.845 72.1649 104.757C66.6444 104.669 61.2291 103.229 56.3905 100.564C51.5519 97.8994 47.4368 94.0896 44.4035 89.4666C41.3703 84.8436 39.5108 79.5476 38.987 74.0398C38.2637 78.7942 38.5569 83.6483 39.8473 88.2805C41.1376 92.9127 43.3957 97.2172 46.4718 100.909C49.5478 104.6 53.3717 107.595 57.69 109.693C62.0082 111.792 66.7223 112.947 71.5197 113.082C76.3171 113.217 81.0883 112.328 85.5172 110.476C89.9461 108.623 93.9315 105.848 97.2093 102.335C100.487 98.8224 102.982 94.6515 104.53 90.0991C106.078 85.5467 106.642 80.7166 106.186 75.9291C105.38 81.2624 103.315 86.3259 100.163 90.6987C97.0116 95.0714 92.8638 98.6272 88.0647 101.07Z" fill="#3F3D56"/>
<path d="M65.1031 79.4879C61.7017 75.1298 59.4151 70.0045 58.4423 64.5583C57.4695 59.1121 57.8401 53.5101 59.5218 48.2403C61.2035 42.9704 64.1453 38.1924 68.0911 34.3223C72.0368 30.4523 76.8669 27.6075 82.1606 26.0356C77.3655 26.2364 72.6677 27.4561 68.3786 29.6138C64.0895 31.7716 60.3069 34.8182 57.2816 38.5516C54.2563 42.2851 52.0574 46.6202 50.8305 51.2697C49.6036 55.9192 49.3768 60.7769 50.1651 65.5209C50.9534 70.2649 52.7388 74.7868 55.403 78.787C58.0672 82.7872 61.5494 86.1744 65.6187 88.724C69.6881 91.2737 74.2517 92.9276 79.0071 93.5761C83.7626 94.2247 88.6013 93.8531 93.2026 92.4859C87.8246 92.7165 82.4694 91.6575 77.5821 89.3967C72.6948 87.136 68.4166 83.739 65.1031 79.4879Z" fill="#3F3D56"/>
<path d="M174.679 117.139C187.884 117.139 198.589 109.392 198.589 99.8344C198.589 90.2773 187.884 82.5298 174.679 82.5298C161.474 82.5298 150.769 90.2773 150.769 99.8344C150.769 109.392 161.474 117.139 174.679 117.139Z" fill="#3F3D56"/>
</g>
<defs>
<clipPath id="clip0_263_309">
<rect width="623" height="402" fill="white"/>
</clipPath>
</defs>
</svg>
