<svg width="595" height="433" viewBox="0 0 595 433" fill="none" xmlns="http://www.w3.org/2000/svg">
<g clip-path="url(#clip0_264_682)">
<path d="M346.586 76.3329C357.738 76.3329 366.778 67.2876 366.778 56.1297C366.778 44.9718 357.738 35.9265 346.586 35.9265C335.435 35.9265 326.395 44.9718 326.395 56.1297C326.395 67.2876 335.435 76.3329 346.586 76.3329Z" fill="#F2F2F2"/>
<path d="M503.217 376.171C533.229 353.298 547.564 314.863 538.59 278.198C538.367 277.287 538.131 276.378 537.884 275.471C531.934 253.707 517.215 233.023 495.763 226.068C477.75 220.229 458.089 224.719 439.297 222.398C402.408 217.839 373.809 187.974 353.686 156.706C333.563 125.437 318.097 90.4354 291.358 64.6027C247.283 22.0218 175.385 12.8541 120.737 40.5711C66.0901 68.2882 31.2804 129.781 32.7649 191.066C34.2495 252.351 70.6104 310.943 123.415 342.031C142.814 353.451 165.25 361.541 187.578 358.71C206.952 356.254 224.556 345.837 243.839 342.745C274.157 337.883 304.281 351.598 330.503 367.581C356.725 383.564 382.054 402.508 411.851 409.918C440.785 417.112 476.631 396.433 503.217 376.171Z" fill="#F2F2F2"/>
<path d="M460.097 41.858C459.439 41.4191 458.774 41.003 458.116 40.5793C439.098 28.4091 418.714 18.5222 397.384 11.1228L392.439 79.3879H361.086V1.15768C359.113 0.749085 357.124 0.363193 355.135 0V79.3879H317.877C297.366 79.3879 277.694 71.2351 263.191 56.7231C248.687 42.211 240.539 22.5284 240.539 2.00522V2.00515C238.543 2.43644 236.562 2.898 234.58 3.38982V79.388H204.234L199.523 14.2932C177.604 22.7043 156.795 33.7654 137.559 47.2302C137.226 47.4572 136.893 47.6918 136.568 47.9188C134.897 49.0916 133.248 50.2871 131.607 51.4978V311.93H221.044L219.464 290.025L210.767 169.755H385.898L377.201 290.025L375.621 311.93H464.067V44.4912C462.751 43.5983 461.428 42.7206 460.097 41.858ZM234.58 149.893H209.331L204.665 85.3504H234.58V149.893ZM355.135 149.893H312.727V148.614C312.727 147.999 312.606 147.391 312.371 146.823C312.135 146.255 311.79 145.739 311.356 145.305C310.921 144.87 310.405 144.526 309.837 144.292C309.269 144.057 308.66 143.937 308.046 143.938H289.61C288.996 143.938 288.388 144.058 287.821 144.293C287.254 144.528 286.739 144.873 286.305 145.307C285.871 145.741 285.526 146.257 285.292 146.824C285.057 147.392 284.936 148 284.936 148.614V149.893H240.539V85.3504H355.135V149.893ZM361.087 149.893V85.3504H392.008L387.342 149.893H361.087Z" fill="#3F3D56"/>
<path d="M0 328.607C6.56938 336.396 13.6749 343.715 21.2646 350.512L573.735 351.269C581.325 344.472 588.431 337.152 595 329.364L0 328.607Z" fill="#3F3D56"/>
<path d="M374.648 258.466V323.314C374.649 324.14 374.977 324.933 375.561 325.517C376.145 326.101 376.937 326.43 377.763 326.431H473.805C474.631 326.43 475.423 326.101 476.007 325.517C476.591 324.933 476.919 324.14 476.92 323.314V258.466C476.918 257.64 476.589 256.849 476.005 256.265C475.422 255.682 474.63 255.354 473.805 255.353H377.763C376.938 255.354 376.147 255.682 375.563 256.265C374.979 256.849 374.65 257.64 374.648 258.466Z" fill="#3F3D56"/>
<path d="M376.901 259.273V322.514C376.902 322.955 377.078 323.379 377.39 323.691C377.702 324.003 378.125 324.179 378.566 324.18H473.006C473.447 324.179 473.87 324.003 474.182 323.691C474.494 323.379 474.67 322.955 474.67 322.514V259.273C474.67 258.831 474.495 258.407 474.183 258.094C473.871 257.781 473.447 257.604 473.006 257.604H378.566C378.124 257.604 377.701 257.781 377.389 258.094C377.077 258.407 376.901 258.831 376.901 259.273Z" fill="#F12711"/>
<path d="M372.64 335.961C372.816 336.182 373.039 336.36 373.294 336.482C373.549 336.603 373.827 336.666 374.109 336.665H476.948C477.229 336.664 477.507 336.601 477.76 336.48C478.014 336.359 478.238 336.182 478.415 335.964C478.592 335.745 478.719 335.49 478.785 335.217C478.851 334.943 478.855 334.658 478.798 334.383L477.201 326.796C477.135 326.486 476.993 326.198 476.787 325.958C476.581 325.718 476.318 325.533 476.023 325.42C475.809 325.336 475.581 325.293 475.351 325.293H375.7C375.47 325.293 375.242 325.336 375.028 325.42C374.733 325.533 374.47 325.718 374.264 325.958C374.058 326.198 373.916 326.486 373.85 326.796L372.253 334.383C372.197 334.658 372.202 334.943 372.269 335.216C372.336 335.489 372.462 335.743 372.64 335.961Z" fill="#2F2E41"/>
<path d="M471.823 328.561H474.252C474.456 328.561 474.621 328.396 474.621 328.192V327.029C474.621 326.825 474.456 326.66 474.252 326.66H471.823C471.619 326.66 471.454 326.825 471.454 327.029V328.192C471.454 328.396 471.619 328.561 471.823 328.561Z" fill="#3F3D56"/>
<path d="M465.488 328.561H467.917C468.121 328.561 468.286 328.396 468.286 328.192V327.029C468.286 326.825 468.121 326.66 467.917 326.66H465.488C465.284 326.66 465.119 326.825 465.119 327.029V328.192C465.119 328.396 465.284 328.561 465.488 328.561Z" fill="#3F3D56"/>
<path d="M459.153 328.561H461.582C461.786 328.561 461.951 328.396 461.951 328.192V327.029C461.951 326.825 461.786 326.66 461.582 326.66H459.153C458.949 326.66 458.784 326.825 458.784 327.029V328.192C458.784 328.396 458.949 328.561 459.153 328.561Z" fill="#3F3D56"/>
<path d="M452.818 328.561H455.248C455.451 328.561 455.617 328.396 455.617 328.192V327.029C455.617 326.825 455.451 326.66 455.248 326.66H452.818C452.615 326.66 452.449 326.825 452.449 327.029V328.192C452.449 328.396 452.615 328.561 452.818 328.561Z" fill="#3F3D56"/>
<path d="M446.484 328.561H448.913C449.116 328.561 449.282 328.396 449.282 328.192V327.029C449.282 326.825 449.116 326.66 448.913 326.66H446.484C446.28 326.66 446.114 326.825 446.114 327.029V328.192C446.114 328.396 446.28 328.561 446.484 328.561Z" fill="#3F3D56"/>
<path d="M440.149 328.561H442.578C442.782 328.561 442.947 328.396 442.947 328.192V327.029C442.947 326.825 442.782 326.66 442.578 326.66H440.149C439.945 326.66 439.78 326.825 439.78 327.029V328.192C439.78 328.396 439.945 328.561 440.149 328.561Z" fill="#3F3D56"/>
<path d="M433.814 328.561H436.243C436.447 328.561 436.612 328.396 436.612 328.192V327.029C436.612 326.825 436.447 326.66 436.243 326.66H433.814C433.61 326.66 433.445 326.825 433.445 327.029V328.192C433.445 328.396 433.61 328.561 433.814 328.561Z" fill="#3F3D56"/>
<path d="M427.48 328.561H429.909C430.113 328.561 430.278 328.396 430.278 328.192V327.029C430.278 326.825 430.113 326.66 429.909 326.66H427.48C427.276 326.66 427.11 326.825 427.11 327.029V328.192C427.11 328.396 427.276 328.561 427.48 328.561Z" fill="#3F3D56"/>
<path d="M421.145 328.561H423.574C423.778 328.561 423.943 328.396 423.943 328.192V327.029C423.943 326.825 423.778 326.66 423.574 326.66H421.145C420.941 326.66 420.776 326.825 420.776 327.029V328.192C420.776 328.396 420.941 328.561 421.145 328.561Z" fill="#3F3D56"/>
<path d="M414.81 328.561H417.239C417.443 328.561 417.608 328.396 417.608 328.192V327.029C417.608 326.825 417.443 326.66 417.239 326.66H414.81C414.606 326.66 414.441 326.825 414.441 327.029V328.192C414.441 328.396 414.606 328.561 414.81 328.561Z" fill="#3F3D56"/>
<path d="M408.475 328.561H410.904C411.108 328.561 411.273 328.396 411.273 328.192V327.029C411.273 326.825 411.108 326.66 410.904 326.66H408.475C408.271 326.66 408.106 326.825 408.106 327.029V328.192C408.106 328.396 408.271 328.561 408.475 328.561Z" fill="#3F3D56"/>
<path d="M402.14 328.561H404.569C404.773 328.561 404.938 328.396 404.938 328.192V327.029C404.938 326.825 404.773 326.66 404.569 326.66H402.14C401.936 326.66 401.771 326.825 401.771 327.029V328.192C401.771 328.396 401.936 328.561 402.14 328.561Z" fill="#3F3D56"/>
<path d="M395.806 328.561H398.235C398.439 328.561 398.604 328.396 398.604 328.192V327.029C398.604 326.825 398.439 326.66 398.235 326.66H395.806C395.602 326.66 395.437 326.825 395.437 327.029V328.192C395.437 328.396 395.602 328.561 395.806 328.561Z" fill="#3F3D56"/>
<path d="M389.471 328.561H391.9C392.104 328.561 392.269 328.396 392.269 328.192V327.029C392.269 326.825 392.104 326.66 391.9 326.66H389.471C389.267 326.66 389.102 326.825 389.102 327.029V328.192C389.102 328.396 389.267 328.561 389.471 328.561Z" fill="#3F3D56"/>
<path d="M383.136 328.561H385.565C385.769 328.561 385.935 328.396 385.935 328.192V327.029C385.935 326.825 385.769 326.66 385.565 326.66H383.136C382.932 326.66 382.767 326.825 382.767 327.029V328.192C382.767 328.396 382.932 328.561 383.136 328.561Z" fill="#3F3D56"/>
<path d="M376.801 328.561H379.23C379.434 328.561 379.6 328.396 379.6 328.192V327.029C379.6 326.825 379.434 326.66 379.23 326.66H376.801C376.598 326.66 376.432 326.825 376.432 327.029V328.192C376.432 328.396 376.598 328.561 376.801 328.561Z" fill="#3F3D56"/>
<path d="M471.898 331.73H474.327C474.53 331.73 474.696 331.565 474.696 331.361V330.198C474.696 329.994 474.53 329.829 474.327 329.829H471.898C471.694 329.829 471.528 329.994 471.528 330.198V331.361C471.528 331.565 471.694 331.73 471.898 331.73Z" fill="#3F3D56"/>
<path d="M465.563 331.73H467.992C468.196 331.73 468.361 331.565 468.361 331.361V330.198C468.361 329.994 468.196 329.829 467.992 329.829H465.563C465.359 329.829 465.193 329.994 465.193 330.198V331.361C465.193 331.565 465.359 331.73 465.563 331.73Z" fill="#3F3D56"/>
<path d="M459.228 331.73H461.657C461.861 331.73 462.026 331.565 462.026 331.361V330.198C462.026 329.994 461.861 329.829 461.657 329.829H459.228C459.024 329.829 458.859 329.994 458.859 330.198V331.361C458.859 331.565 459.024 331.73 459.228 331.73Z" fill="#3F3D56"/>
<path d="M452.893 331.73H455.322C455.526 331.73 455.691 331.565 455.691 331.361V330.198C455.691 329.994 455.526 329.829 455.322 329.829H452.893C452.689 329.829 452.524 329.994 452.524 330.198V331.361C452.524 331.565 452.689 331.73 452.893 331.73Z" fill="#3F3D56"/>
<path d="M446.559 331.73H448.988C449.192 331.73 449.357 331.565 449.357 331.361V330.198C449.357 329.994 449.192 329.829 448.988 329.829H446.559C446.355 329.829 446.19 329.994 446.19 330.198V331.361C446.19 331.565 446.355 331.73 446.559 331.73Z" fill="#3F3D56"/>
<path d="M440.224 331.73H442.653C442.857 331.73 443.022 331.565 443.022 331.361V330.198C443.022 329.994 442.857 329.829 442.653 329.829H440.224C440.02 329.829 439.855 329.994 439.855 330.198V331.361C439.855 331.565 440.02 331.73 440.224 331.73Z" fill="#3F3D56"/>
<path d="M433.889 331.73H436.318C436.522 331.73 436.688 331.565 436.688 331.361V330.198C436.688 329.994 436.522 329.829 436.318 329.829H433.889C433.685 329.829 433.52 329.994 433.52 330.198V331.361C433.52 331.565 433.685 331.73 433.889 331.73Z" fill="#3F3D56"/>
<path d="M427.554 331.73H429.983C430.187 331.73 430.353 331.565 430.353 331.361V330.198C430.353 329.994 430.187 329.829 429.983 329.829H427.554C427.35 329.829 427.185 329.994 427.185 330.198V331.361C427.185 331.565 427.35 331.73 427.554 331.73Z" fill="#3F3D56"/>
<path d="M421.219 331.73H423.648C423.852 331.73 424.018 331.565 424.018 331.361V330.198C424.018 329.994 423.852 329.829 423.648 329.829H421.219C421.016 329.829 420.85 329.994 420.85 330.198V331.361C420.85 331.565 421.016 331.73 421.219 331.73Z" fill="#3F3D56"/>
<path d="M414.885 331.73H417.314C417.518 331.73 417.683 331.565 417.683 331.361V330.198C417.683 329.994 417.518 329.829 417.314 329.829H414.885C414.681 329.829 414.516 329.994 414.516 330.198V331.361C414.516 331.565 414.681 331.73 414.885 331.73Z" fill="#3F3D56"/>
<path d="M408.55 331.73H410.979C411.183 331.73 411.348 331.565 411.348 331.361V330.198C411.348 329.994 411.183 329.829 410.979 329.829H408.55C408.346 329.829 408.181 329.994 408.181 330.198V331.361C408.181 331.565 408.346 331.73 408.55 331.73Z" fill="#3F3D56"/>
<path d="M402.215 331.73H404.644C404.848 331.73 405.014 331.565 405.014 331.361V330.198C405.014 329.994 404.848 329.829 404.644 329.829H402.215C402.012 329.829 401.846 329.994 401.846 330.198V331.361C401.846 331.565 402.012 331.73 402.215 331.73Z" fill="#3F3D56"/>
<path d="M395.881 331.73H398.31C398.513 331.73 398.679 331.565 398.679 331.361V330.198C398.679 329.994 398.513 329.829 398.31 329.829H395.881C395.677 329.829 395.511 329.994 395.511 330.198V331.361C395.511 331.565 395.677 331.73 395.881 331.73Z" fill="#3F3D56"/>
<path d="M389.546 331.73H391.975C392.179 331.73 392.344 331.565 392.344 331.361V330.198C392.344 329.994 392.179 329.829 391.975 329.829H389.546C389.342 329.829 389.177 329.994 389.177 330.198V331.361C389.177 331.565 389.342 331.73 389.546 331.73Z" fill="#3F3D56"/>
<path d="M383.211 331.73H385.64C385.844 331.73 386.009 331.565 386.009 331.361V330.198C386.009 329.994 385.844 329.829 385.64 329.829H383.211C383.007 329.829 382.842 329.994 382.842 330.198V331.361C382.842 331.565 383.007 331.73 383.211 331.73Z" fill="#3F3D56"/>
<path d="M376.877 331.73H379.306C379.509 331.73 379.675 331.565 379.675 331.361V330.198C379.675 329.994 379.509 329.829 379.306 329.829H376.877C376.673 329.829 376.507 329.994 376.507 330.198V331.361C376.507 331.565 376.673 331.73 376.877 331.73Z" fill="#3F3D56"/>
<path d="M419.319 335.534H443.92C444.124 335.534 444.289 335.368 444.289 335.164V334.002C444.289 333.798 444.124 333.632 443.92 333.632H419.319C419.115 333.632 418.95 333.798 418.95 334.002V335.164C418.95 335.368 419.115 335.534 419.319 335.534Z" fill="#3F3D56"/>
<path d="M393.256 271.439H391.105C390.453 271.439 389.925 271.968 389.925 272.62C389.925 273.273 390.453 273.802 391.105 273.802H393.256C393.908 273.802 394.436 273.273 394.436 272.62C394.436 271.968 393.908 271.439 393.256 271.439Z" fill="white"/>
<path d="M417.849 271.439H415.699C415.047 271.439 414.519 271.968 414.519 272.62C414.519 273.273 415.047 273.802 415.699 273.802H417.849C418.501 273.802 419.03 273.273 419.03 272.62C419.03 271.968 418.501 271.439 417.849 271.439Z" fill="white"/>
<path d="M424.818 271.439H422.668C422.016 271.439 421.487 271.968 421.487 272.62C421.487 273.273 422.016 273.802 422.668 273.802H424.818C425.47 273.802 425.999 273.273 425.999 272.62C425.999 271.968 425.47 271.439 424.818 271.439Z" fill="white"/>
<path d="M411.16 271.242H397.795C397.143 271.242 396.614 271.771 396.614 272.423C396.614 273.076 397.143 273.605 397.795 273.605H411.16C411.812 273.605 412.34 273.076 412.34 272.423C412.34 271.771 411.812 271.242 411.16 271.242Z" fill="white"/>
<path d="M443.952 271.242H430.587C429.935 271.242 429.407 271.771 429.407 272.423C429.407 273.076 429.935 273.605 430.587 273.605H443.952C444.604 273.605 445.133 273.076 445.133 272.423C445.133 271.771 444.604 271.242 443.952 271.242Z" fill="white"/>
<path d="M399.814 276.771H397.663C397.011 276.771 396.483 277.3 396.483 277.952C396.483 278.605 397.011 279.133 397.663 279.133H399.814C400.466 279.133 400.994 278.605 400.994 277.952C400.994 277.3 400.466 276.771 399.814 276.771Z" fill="white"/>
<path d="M424.408 276.771H422.258C421.606 276.771 421.077 277.3 421.077 277.952C421.077 278.605 421.606 279.133 422.258 279.133H424.408C425.06 279.133 425.589 278.605 425.589 277.952C425.589 277.3 425.06 276.771 424.408 276.771Z" fill="white"/>
<path d="M431.376 276.771H429.226C428.574 276.771 428.045 277.3 428.045 277.952C428.045 278.605 428.574 279.133 429.226 279.133H431.376C432.028 279.133 432.557 278.605 432.557 277.952C432.557 277.3 432.028 276.771 431.376 276.771Z" fill="white"/>
<path d="M417.719 276.574H404.353C403.701 276.574 403.173 277.103 403.173 277.755C403.173 278.408 403.701 278.936 404.353 278.936H417.719C418.371 278.936 418.899 278.408 418.899 277.755C418.899 277.103 418.371 276.574 417.719 276.574Z" fill="white"/>
<path d="M450.511 276.574H437.145C436.493 276.574 435.965 277.103 435.965 277.755C435.965 278.408 436.493 278.936 437.145 278.936H450.511C451.163 278.936 451.691 278.408 451.691 277.755C451.691 277.103 451.163 276.574 450.511 276.574Z" fill="white"/>
<path d="M406.372 282.103H404.222C403.57 282.103 403.042 282.632 403.042 283.284C403.042 283.936 403.57 284.465 404.222 284.465H406.372C407.024 284.465 407.553 283.936 407.553 283.284C407.553 282.632 407.024 282.103 406.372 282.103Z" fill="white"/>
<path d="M430.967 282.103H428.816C428.164 282.103 427.636 282.632 427.636 283.284C427.636 283.936 428.164 284.465 428.816 284.465H430.967C431.619 284.465 432.147 283.936 432.147 283.284C432.147 282.632 431.619 282.103 430.967 282.103Z" fill="white"/>
<path d="M437.935 282.103H435.785C435.133 282.103 434.604 282.632 434.604 283.284C434.604 283.936 435.133 284.465 435.785 284.465H437.935C438.587 284.465 439.115 283.936 439.115 283.284C439.115 282.632 438.587 282.103 437.935 282.103Z" fill="white"/>
<path d="M424.277 281.906H410.912C410.26 281.906 409.731 282.435 409.731 283.087C409.731 283.74 410.26 284.268 410.912 284.268H424.277C424.929 284.268 425.458 283.74 425.458 283.087C425.458 282.435 424.929 281.906 424.277 281.906Z" fill="white"/>
<path d="M457.069 281.906H443.704C443.052 281.906 442.523 282.435 442.523 283.087C442.523 283.74 443.052 284.268 443.704 284.268H457.069C457.721 284.268 458.25 283.74 458.25 283.087C458.25 282.435 457.721 281.906 457.069 281.906Z" fill="white"/>
<path d="M412.931 287.435H410.781C410.129 287.435 409.6 287.964 409.6 288.616C409.6 289.268 410.129 289.797 410.781 289.797H412.931C413.583 289.797 414.112 289.268 414.112 288.616C414.112 287.964 413.583 287.435 412.931 287.435Z" fill="white"/>
<path d="M437.525 287.435H435.375C434.723 287.435 434.194 287.964 434.194 288.616C434.194 289.268 434.723 289.797 435.375 289.797H437.525C438.177 289.797 438.706 289.268 438.706 288.616C438.706 287.964 438.177 287.435 437.525 287.435Z" fill="white"/>
<path d="M444.494 287.435H442.343C441.691 287.435 441.163 287.964 441.163 288.616C441.163 289.268 441.691 289.797 442.343 289.797H444.494C445.146 289.797 445.674 289.268 445.674 288.616C445.674 287.964 445.146 287.435 444.494 287.435Z" fill="white"/>
<path d="M430.835 287.238H417.47C416.818 287.238 416.29 287.767 416.29 288.419C416.29 289.071 416.818 289.6 417.47 289.6H430.835C431.487 289.6 432.016 289.071 432.016 288.419C432.016 287.767 431.487 287.238 430.835 287.238Z" fill="white"/>
<path d="M417.849 308.636H415.699C415.047 308.636 414.519 309.165 414.519 309.818C414.519 310.47 415.047 310.999 415.699 310.999H417.849C418.501 310.999 419.03 310.47 419.03 309.818C419.03 309.165 418.501 308.636 417.849 308.636Z" fill="white"/>
<path d="M424.818 308.636H422.668C422.016 308.636 421.487 309.165 421.487 309.818C421.487 310.47 422.016 310.999 422.668 310.999H424.818C425.47 310.999 425.999 310.47 425.999 309.818C425.999 309.165 425.47 308.636 424.818 308.636Z" fill="white"/>
<path d="M443.952 308.833H430.587C429.935 308.833 429.407 309.362 429.407 310.015C429.407 310.667 429.935 311.196 430.587 311.196H443.952C444.604 311.196 445.133 310.667 445.133 310.015C445.133 309.362 444.604 308.833 443.952 308.833Z" fill="white"/>
<path d="M393.256 308.636H391.105C390.453 308.636 389.925 309.165 389.925 309.818C389.925 310.47 390.453 310.999 391.105 310.999H393.256C393.908 310.999 394.436 310.47 394.436 309.818C394.436 309.165 393.908 308.636 393.256 308.636Z" fill="white"/>
<path d="M411.16 308.833H397.795C397.143 308.833 396.614 309.362 396.614 310.015C396.614 310.667 397.143 311.196 397.795 311.196H411.16C411.812 311.196 412.34 310.667 412.34 310.015C412.34 309.362 411.812 308.833 411.16 308.833Z" fill="white"/>
<path d="M399.814 303.305H397.663C397.011 303.305 396.483 303.834 396.483 304.486C396.483 305.138 397.011 305.667 397.663 305.667H399.814C400.466 305.667 400.994 305.138 400.994 304.486C400.994 303.834 400.466 303.305 399.814 303.305Z" fill="white"/>
<path d="M424.408 303.305H422.258C421.606 303.305 421.077 303.834 421.077 304.486C421.077 305.138 421.606 305.667 422.258 305.667H424.408C425.06 305.667 425.589 305.138 425.589 304.486C425.589 303.834 425.06 303.305 424.408 303.305Z" fill="white"/>
<path d="M431.376 303.305H429.226C428.574 303.305 428.045 303.834 428.045 304.486C428.045 305.138 428.574 305.667 429.226 305.667H431.376C432.028 305.667 432.557 305.138 432.557 304.486C432.557 303.834 432.028 303.305 431.376 303.305Z" fill="white"/>
<path d="M417.719 303.501H404.353C403.701 303.501 403.173 304.03 403.173 304.683C403.173 305.335 403.701 305.864 404.353 305.864H417.719C418.371 305.864 418.899 305.335 418.899 304.683C418.899 304.03 418.371 303.501 417.719 303.501Z" fill="white"/>
<path d="M406.372 297.973H404.222C403.57 297.973 403.042 298.502 403.042 299.154C403.042 299.806 403.57 300.335 404.222 300.335H406.372C407.024 300.335 407.553 299.806 407.553 299.154C407.553 298.502 407.024 297.973 406.372 297.973Z" fill="white"/>
<path d="M430.967 297.973H428.816C428.164 297.973 427.636 298.502 427.636 299.154C427.636 299.806 428.164 300.335 428.816 300.335H430.967C431.619 300.335 432.147 299.806 432.147 299.154C432.147 298.502 431.619 297.973 430.967 297.973Z" fill="white"/>
<path d="M437.935 297.973H435.785C435.133 297.973 434.604 298.502 434.604 299.154C434.604 299.806 435.133 300.335 435.785 300.335H437.935C438.587 300.335 439.115 299.806 439.115 299.154C439.115 298.502 438.587 297.973 437.935 297.973Z" fill="white"/>
<path d="M424.277 298.17H410.912C410.26 298.17 409.731 298.699 409.731 299.351C409.731 300.003 410.26 300.532 410.912 300.532H424.277C424.929 300.532 425.458 300.003 425.458 299.351C425.458 298.699 424.929 298.17 424.277 298.17Z" fill="white"/>
<path d="M412.931 292.641H410.781C410.129 292.641 409.6 293.17 409.6 293.822C409.6 294.474 410.129 295.003 410.781 295.003H412.931C413.583 295.003 414.112 294.474 414.112 293.822C414.112 293.17 413.583 292.641 412.931 292.641Z" fill="white"/>
<path d="M437.525 292.641H435.375C434.723 292.641 434.194 293.17 434.194 293.822C434.194 294.474 434.723 295.003 435.375 295.003H437.525C438.177 295.003 438.706 294.474 438.706 293.822C438.706 293.17 438.177 292.641 437.525 292.641Z" fill="white"/>
<path d="M444.494 292.641H442.343C441.691 292.641 441.163 293.17 441.163 293.822C441.163 294.474 441.691 295.003 442.343 295.003H444.494C445.146 295.003 445.674 294.474 445.674 293.822C445.674 293.17 445.146 292.641 444.494 292.641Z" fill="white"/>
<path d="M430.835 292.838H417.47C416.818 292.838 416.29 293.367 416.29 294.019C416.29 294.671 416.818 295.2 417.47 295.2H430.835C431.487 295.2 432.016 294.671 432.016 294.019C432.016 293.367 431.487 292.838 430.835 292.838Z" fill="white"/>
<path d="M381.823 371.124L371.728 355.157L403.414 329.883L416.493 315.385C418.192 313.501 420.356 312.097 422.767 311.312C425.179 310.527 427.754 310.389 430.236 310.912C432.717 311.435 435.018 312.6 436.908 314.292C438.799 315.983 440.212 318.142 441.008 320.551C442.187 324.121 441.933 328.01 440.301 331.397C438.668 334.784 435.785 337.404 432.258 338.704L411.577 346.327L381.823 371.124Z" fill="#FFB6B6"/>
<path d="M144.958 255.355V332.958H199.291V255.355C199.292 254.797 199.114 254.254 198.783 253.804C198.453 253.355 197.986 253.023 197.454 252.859C197.202 252.775 196.939 252.735 196.675 252.737H147.582C147.237 252.737 146.897 252.804 146.578 252.935C146.26 253.066 145.971 253.259 145.727 253.502C145.484 253.745 145.29 254.034 145.158 254.352C145.026 254.67 144.958 255.011 144.958 255.355ZM166.162 282.02C166.176 280.49 166.793 279.028 167.879 277.951C168.966 276.874 170.433 276.27 171.962 276.27C173.491 276.27 174.958 276.874 176.044 277.951C177.13 279.028 177.748 280.49 177.762 282.02V291.024C177.754 292.558 177.139 294.027 176.053 295.109C174.966 296.191 173.495 296.798 171.962 296.798C170.429 296.798 168.958 296.191 167.871 295.109C166.784 294.027 166.169 292.558 166.162 291.024V282.02Z" fill="#2F2E41"/>
<path d="M144.792 330.476V337.959C144.793 338.347 144.947 338.719 145.22 338.993C145.493 339.268 145.864 339.424 146.251 339.427H197.998C198.386 339.425 198.757 339.27 199.031 338.995C199.304 338.72 199.458 338.347 199.458 337.959V330.476H144.792Z" fill="#3F3D56"/>
<path d="M59.4834 138.438V280.128C59.4848 281.934 60.2023 283.665 61.4784 284.942C62.7544 286.219 64.4847 286.937 66.2893 286.938H276.137C277.942 286.937 279.672 286.219 280.948 284.942C282.224 283.665 282.942 281.934 282.943 280.128V138.438C282.939 136.634 282.22 134.905 280.944 133.63C279.669 132.355 277.94 131.638 276.137 131.635H66.2893C64.4863 131.638 62.7576 132.355 61.482 133.63C60.2064 134.905 59.4877 136.634 59.4834 138.438Z" fill="#3F3D56"/>
<path d="M64.4062 140.201V278.381C64.4079 279.345 64.7917 280.27 65.4734 280.952C66.1552 281.634 67.0794 282.018 68.0436 282.02H274.39C275.354 282.018 276.279 281.634 276.96 280.952C277.642 280.27 278.026 279.345 278.028 278.381V140.201C278.028 139.235 277.645 138.308 276.963 137.625C276.281 136.941 275.356 136.556 274.39 136.554H68.0436C67.0783 136.556 66.1532 136.941 65.4713 137.625C64.7894 138.308 64.4063 139.235 64.4062 140.201Z" fill="white"/>
<path d="M102.701 338.92C102.911 339.184 103.178 339.396 103.482 339.542C103.785 339.687 104.118 339.762 104.455 339.76H227.218C227.554 339.76 227.885 339.684 228.188 339.54C228.491 339.395 228.758 339.185 228.97 338.924C229.181 338.663 229.332 338.358 229.411 338.031C229.49 337.705 229.495 337.365 229.426 337.036L227.521 327.979C227.442 327.61 227.272 327.266 227.026 326.979C226.78 326.692 226.467 326.472 226.114 326.337C225.859 326.237 225.587 326.186 225.312 326.186H106.353C106.079 326.186 105.807 326.237 105.552 326.337C105.199 326.472 104.885 326.692 104.64 326.979C104.394 327.266 104.224 327.61 104.145 327.979L102.239 337.036C102.172 337.365 102.178 337.704 102.258 338.03C102.337 338.356 102.489 338.66 102.701 338.92Z" fill="#2F2E41"/>
<path d="M267.694 155.589H74.6162C74.4155 155.584 74.2245 155.501 74.0842 155.358C73.9438 155.214 73.8652 155.021 73.8652 154.82C73.8652 154.619 73.9438 154.427 74.0842 154.283C74.2245 154.139 74.4155 154.056 74.6162 154.052H267.694C267.895 154.056 268.086 154.139 268.226 154.283C268.366 154.427 268.445 154.619 268.445 154.82C268.445 155.021 268.366 155.214 268.226 155.358C268.086 155.501 267.895 155.584 267.694 155.589Z" fill="#3F3D56"/>
<path d="M87.759 150.129C90.2442 150.129 92.2588 148.069 92.2588 145.527C92.2588 142.985 90.2442 140.924 87.759 140.924C85.2739 140.924 83.2593 142.985 83.2593 145.527C83.2593 148.069 85.2739 150.129 87.759 150.129Z" fill="#3F3D56"/>
<path d="M103.303 150.129C105.789 150.129 107.803 148.069 107.803 145.527C107.803 142.985 105.789 140.924 103.303 140.924C100.818 140.924 98.8037 142.985 98.8037 145.527C98.8037 148.069 100.818 150.129 103.303 150.129Z" fill="#3F3D56"/>
<path d="M118.848 150.129C121.334 150.129 123.348 148.069 123.348 145.527C123.348 142.985 121.334 140.924 118.848 140.924C116.363 140.924 114.349 142.985 114.349 145.527C114.349 148.069 116.363 150.129 118.848 150.129Z" fill="#3F3D56"/>
<path d="M258.333 142.062H247.292C247.074 142.067 246.867 142.157 246.714 142.314C246.561 142.47 246.476 142.68 246.476 142.898C246.476 143.117 246.561 143.326 246.714 143.483C246.867 143.639 247.074 143.729 247.292 143.734H258.333C258.553 143.731 258.762 143.642 258.916 143.485C259.071 143.329 259.157 143.118 259.157 142.898C259.157 142.678 259.071 142.467 258.916 142.311C258.762 142.155 258.553 142.065 258.333 142.062Z" fill="#3F3D56"/>
<path d="M258.333 145.202H247.292C247.074 145.207 246.866 145.297 246.713 145.453C246.561 145.61 246.475 145.82 246.475 146.038C246.475 146.257 246.561 146.467 246.713 146.623C246.866 146.779 247.074 146.87 247.292 146.874H258.333C258.553 146.872 258.763 146.782 258.918 146.626C259.072 146.469 259.159 146.258 259.159 146.038C259.159 145.818 259.072 145.607 258.918 145.451C258.763 145.294 258.553 145.205 258.333 145.202Z" fill="#3F3D56"/>
<path d="M258.333 148.342H247.292C247.074 148.347 246.867 148.438 246.714 148.594C246.561 148.75 246.476 148.96 246.476 149.178C246.476 149.397 246.561 149.607 246.714 149.763C246.867 149.919 247.074 150.009 247.292 150.014H258.333C258.553 150.011 258.762 149.922 258.916 149.765C259.071 149.609 259.157 149.398 259.157 149.178C259.157 148.959 259.071 148.748 258.916 148.591C258.762 148.435 258.553 148.345 258.333 148.342Z" fill="#3F3D56"/>
<path d="M524.503 333.76C524.836 334.731 525.468 335.571 526.308 336.16C527.148 336.748 528.153 337.056 529.179 337.037L549.212 336.521C550.245 336.501 551.244 336.147 552.059 335.512C552.874 334.877 553.462 333.995 553.735 332.998L556.57 302.666C557.576 303.121 558.671 303.347 559.775 303.324C560.734 303.3 561.679 303.088 562.556 302.698C563.433 302.308 564.224 301.75 564.886 301.054C565.547 300.359 566.064 299.54 566.409 298.644C566.754 297.748 566.919 296.793 566.895 295.833C566.871 294.873 566.658 293.928 566.269 293.05C565.88 292.173 565.321 291.381 564.626 290.719C563.931 290.058 563.112 289.54 562.217 289.195C561.322 288.85 560.367 288.684 559.408 288.709C558.967 288.707 558.527 288.753 558.095 288.845C557.626 288.337 557.055 287.933 556.421 287.659C555.786 287.385 555.101 287.247 554.409 287.254L523.593 288.05C523.338 288.06 523.083 288.091 522.833 288.145C522.158 288.271 521.517 288.54 520.954 288.935C520.391 289.329 519.919 289.84 519.569 290.433C519.22 291.025 519.002 291.686 518.929 292.37C518.857 293.054 518.931 293.745 519.148 294.398L524.503 333.76ZM557.151 300.606L559.169 293.378C559.398 292.543 559.403 291.662 559.184 290.825C559.282 290.824 559.368 290.778 559.466 290.778C560.849 290.749 562.187 291.27 563.187 292.227C564.187 293.185 564.766 294.499 564.799 295.883C564.831 297.267 564.313 298.607 563.36 299.61C562.406 300.613 561.094 301.196 559.711 301.232C558.817 301.26 557.932 301.044 557.151 300.606Z" fill="#2F2E41"/>
<path d="M522.833 288.144C523.49 291.901 530.871 294.541 539.746 294.082C547.908 293.706 554.581 290.838 555.804 287.44C555.351 287.306 554.881 287.243 554.409 287.254L523.593 288.05C523.338 288.059 523.083 288.091 522.833 288.144Z" fill="#3F3D56"/>
<path d="M541.373 317.093C541.414 317.082 541.452 317.065 541.487 317.042L545.838 314.193C545.89 314.159 545.933 314.112 545.963 314.057C545.993 314.001 546.009 313.94 546.009 313.877C546.009 313.814 545.993 313.752 545.964 313.697C545.934 313.642 545.89 313.595 545.838 313.56L541.316 310.597C541.274 310.569 541.228 310.55 541.179 310.541C541.13 310.531 541.08 310.532 541.031 310.542C540.982 310.552 540.936 310.571 540.895 310.599C540.854 310.627 540.819 310.663 540.791 310.705C540.764 310.746 540.745 310.793 540.736 310.842C540.727 310.891 540.727 310.941 540.738 310.99C540.748 311.039 540.768 311.085 540.796 311.126C540.824 311.167 540.86 311.202 540.902 311.229L544.94 313.876L541.073 316.409C540.998 316.458 540.943 316.532 540.918 316.618C540.892 316.704 540.898 316.796 540.934 316.878C540.97 316.96 541.034 317.026 541.114 317.066C541.194 317.105 541.286 317.115 541.373 317.093H541.373Z" fill="#F12711"/>
<path d="M534.501 317.409C534.575 317.391 534.64 317.351 534.691 317.295C534.741 317.239 534.773 317.169 534.783 317.094C534.794 317.019 534.781 316.943 534.748 316.876C534.715 316.808 534.662 316.752 534.597 316.715L530.587 314.414L534.463 311.533C534.503 311.504 534.536 311.467 534.562 311.424C534.587 311.381 534.604 311.334 534.611 311.285C534.618 311.236 534.616 311.186 534.604 311.138C534.592 311.09 534.57 311.044 534.541 311.004C534.511 310.965 534.474 310.931 534.431 310.905C534.389 310.88 534.341 310.863 534.292 310.856C534.243 310.849 534.193 310.851 534.145 310.863C534.097 310.875 534.052 310.897 534.012 310.926L529.672 314.152C529.622 314.189 529.582 314.239 529.555 314.295C529.529 314.352 529.516 314.415 529.52 314.478C529.524 314.54 529.543 314.601 529.576 314.654C529.609 314.708 529.655 314.752 529.71 314.783L534.221 317.371C534.306 317.42 534.406 317.434 534.501 317.409Z" fill="#F12711"/>
<path d="M540.94 319.589C540.977 319.58 541.012 319.565 541.044 319.546C541.086 319.52 541.123 319.486 541.153 319.446C541.182 319.406 541.203 319.36 541.215 319.312C541.227 319.264 541.229 319.214 541.221 319.164C541.214 319.115 541.196 319.068 541.171 319.026L535.003 308.88C534.951 308.795 534.867 308.733 534.769 308.71C534.672 308.686 534.569 308.702 534.484 308.755C534.398 308.807 534.337 308.891 534.313 308.988C534.289 309.086 534.305 309.188 534.357 309.274L540.524 319.42C540.566 319.489 540.63 319.542 540.704 319.573C540.779 319.603 540.862 319.609 540.94 319.589Z" fill="#F12711"/>
<path d="M194.224 197.355H160.807C159.444 197.355 158.338 198.461 158.338 199.825V203.092C158.338 204.456 159.444 205.562 160.807 205.562H194.224C195.588 205.562 196.693 204.456 196.693 203.092V199.825C196.693 198.461 195.588 197.355 194.224 197.355Z" fill="#F12711"/>
<path d="M213.703 213.768H141.328C139.965 213.768 138.859 214.874 138.859 216.238V219.505C138.859 220.869 139.965 221.975 141.328 221.975H213.703C215.066 221.975 216.171 220.869 216.171 219.505V216.238C216.171 214.874 215.066 213.768 213.703 213.768Z" fill="#E6E6E6"/>
<path d="M213.703 230.181H141.328C139.965 230.181 138.859 231.287 138.859 232.651V235.918C138.859 237.282 139.965 238.388 141.328 238.388H213.703C215.066 238.388 216.171 237.282 216.171 235.918V232.651C216.171 231.287 215.066 230.181 213.703 230.181Z" fill="#E6E6E6"/>
<path d="M219.838 285.141L220.002 285.659L220.011 285.676L224.945 300.687L230.622 317.985L241.301 350.491L241.405 355.541V355.558L242.198 396.179L239.999 401.686L242.474 410.714C242.474 410.714 241.336 397.066 235.228 404.904C231.769 409.358 227.723 413.915 224.402 418.188C229.241 420.147 234.159 421.92 239.153 423.505C240.232 423.85 241.319 424.178 242.406 424.506C242.638 424.576 242.871 424.645 243.104 424.714C259.661 429.613 276.778 432.366 294.036 432.905C294.933 432.931 295.813 432.948 296.667 432.965C296.969 432.974 297.262 432.983 297.555 432.983C298.521 432.991 299.479 433 300.445 433C302.395 433 304.336 432.971 306.268 432.914C320.57 432.51 334.789 430.586 348.685 427.174C348.59 421.434 348.331 414.727 347.96 407.563C347.788 404.049 343.914 400.243 343.681 396.566C343.518 393.804 346.994 391.206 346.813 388.4C345.64 371.128 344.173 377.759 343.086 365.528C342.974 364.328 342.871 363.18 342.776 362.084C342.077 354.229 341.594 349.317 341.594 349.317L346.235 320.047L353.524 274.093L352.964 273.169L352.334 272.858L313.885 253.817L311.798 248.465C311.189 246.924 310.134 245.599 308.767 244.662C307.401 243.726 305.785 243.219 304.129 243.209L278.801 243.105C277.487 243.099 276.19 243.407 275.018 244.003C273.846 244.599 272.833 245.466 272.064 246.532L265.206 256.035L219.838 285.141Z" fill="#3F3D56"/>
<path d="M247.141 343.258L241.405 355.541L237.488 363.931L230.751 399.225L227.378 402.808L224.488 390.127L194.241 396.846C193.249 391.331 193.976 397.033 193.363 390.982C193.536 390.81 193.717 390.637 193.898 390.464C194.381 390.015 194.787 389.592 194.778 389.187C194.433 368.316 195.468 332.796 204.112 311.278C205.466 307.764 207.251 304.433 209.426 301.36C209.598 301.127 209.762 300.894 209.926 300.661C213.912 295.076 216.431 289.578 220.002 285.668V285.659C220.024 285.641 220.045 285.621 220.063 285.599C220.076 285.592 220.087 285.583 220.097 285.573L244.631 272.556L245.683 302.145L246.434 323.414L247.141 343.258Z" fill="#3F3D56"/>
<path d="M335.606 346.747L342.772 362.088L345.273 367.43L352.009 402.722L355.371 406.295L358.267 393.617L359.628 393.338L384.174 388.252L391.328 410.986C392.94 408.298 393.576 405.135 393.126 402.032C392.677 398.929 391.17 396.077 388.862 393.957C388.373 393.515 387.966 393.084 387.978 392.677C388.385 368.129 386.884 323.304 373.332 304.855C369.028 299.001 366.445 293.169 362.688 289.095C362.676 289.084 362.676 289.072 362.665 289.072L353.521 274.092L352.963 273.172L352.335 272.858L335.606 346.747Z" fill="#3F3D56"/>
<path d="M292.196 235.893C310.806 235.893 325.892 220.798 325.892 202.178C325.892 183.557 310.806 168.463 292.196 168.463C273.587 168.463 258.501 183.557 258.501 202.178C258.501 220.798 273.587 235.893 292.196 235.893Z" fill="#FFB6B6"/>
<path d="M337.74 178.628C337.478 178.349 337.164 178.125 336.814 177.971C336.465 177.816 336.088 177.733 335.705 177.728L336.212 176.32C336.377 175.877 336.422 175.398 336.341 174.931C336.261 174.465 336.058 174.029 335.753 173.667C335.448 173.305 335.053 173.031 334.607 172.872C334.162 172.713 333.682 172.676 333.218 172.764L331.372 173.12L331.546 171.886C331.613 171.427 331.559 170.958 331.39 170.526C331.22 170.094 330.942 169.713 330.581 169.422C330.22 169.13 329.789 168.937 329.331 168.863C328.874 168.788 328.404 168.834 327.969 168.996C327.574 169.152 327.149 169.217 326.725 169.187C326.301 169.157 325.889 169.032 325.519 168.822C325.148 168.618 324.826 168.336 324.575 167.995C324.325 167.654 324.151 167.262 324.067 166.847L323.425 163.745L323.357 163.578C320.226 158.357 314.206 154.559 306.841 153.167C300.285 151.918 293.562 152.554 287.081 153.152C284.51 153.394 281.606 153.666 279.186 155.149C277.13 156.42 275.39 158.963 275.746 161.528C269.356 159.568 262.504 163.48 259.109 168.413C255.086 174.285 254.428 181.64 254.322 187.39C254.035 200.995 256.84 212.125 262.641 220.478C263.064 221.084 263.17 222.347 264.009 222.771L263.835 222.491C264.773 222.96 265.726 223.717 265.37 224.527C264.35 226.857 271.133 232.01 275.912 233.712C284.631 236.822 296.224 236.557 304.376 235.437L304.663 233.508C307.605 233.107 309.677 232.343 310.259 231.147C311.287 230.27 312.165 229.483 312.928 228.756L312.936 228.749C312.951 228.734 312.981 228.711 312.996 228.696C316.679 225.162 317.534 223.149 317.919 220.085C318.29 217.081 317.632 214.032 316.959 211.285C331.13 213.479 311.378 196.182 324.582 192.838C324.733 192.791 324.887 192.753 325.043 192.724C325.429 192.634 325.814 192.543 326.185 192.437C327.971 191.952 329.681 191.221 331.267 190.265C334.957 188.018 336.174 185.037 338.08 181.677C338.355 181.199 338.47 180.645 338.409 180.097C338.348 179.549 338.113 179.034 337.74 178.628Z" fill="#2F2E41"/>
<path d="M411.372 349.147C411.364 350.471 411.349 352.325 411.289 354.618C411.281 354.936 411.273 355.261 411.266 355.594C411.168 359.808 411.069 363.342 410.911 367.269C410.903 367.541 410.895 367.806 410.88 368.079C410.669 373.557 410.336 379.935 409.761 390.037C408.695 408.696 406.835 392.602 404.967 399.147C404.876 399.472 404.778 399.858 404.687 400.312C404.404 401.959 403.927 403.567 403.265 405.102C402.275 405.692 401.254 406.259 400.248 406.827C397.382 408.423 394.471 409.959 391.536 411.42C389.888 412.237 388.232 413.039 386.568 413.811C386.304 413.932 386.046 414.053 385.789 414.166C377.27 418.109 368.49 421.461 359.511 424.199C357.757 424.729 356.01 425.244 354.24 425.72C352.395 426.235 350.55 426.719 348.682 427.173C334.787 430.586 320.568 432.511 306.266 432.916C304.338 432.977 302.395 432.999 300.444 432.999C299.476 432.999 298.523 432.992 297.555 432.984C297.26 432.984 296.965 432.977 296.67 432.969C295.816 432.946 294.931 432.931 294.038 432.908C276.781 432.37 259.664 429.616 243.108 424.714L242.405 424.51C241.316 424.177 240.234 423.851 239.153 423.503C234.162 421.922 229.244 420.151 224.399 418.192C220.701 416.701 217.046 415.102 213.434 413.394C213.401 413.386 213.37 413.37 213.343 413.349C212.587 413.001 211.824 412.638 211.067 412.267C210.969 412.214 210.863 412.161 210.757 412.108C207.937 410.731 205.146 409.288 202.386 407.78C200.064 402.446 196.798 401.424 194.771 396.733C194.181 395.339 193.755 393.882 193.501 392.39C193.501 392.375 193.493 392.359 193.493 392.337C193.705 395.152 192.593 387.343 193.485 392.307C193.478 392.216 193.47 392.117 193.463 392.004C193.44 391.731 193.41 391.399 193.365 390.982C190.771 365.642 190.937 336.662 189.81 312.782C189.735 311.239 189.657 309.761 189.576 308.348C189.553 307.879 189.523 307.418 189.493 306.964C189.546 306.828 189.606 306.684 189.674 306.548C189.689 306.508 189.706 306.47 189.727 306.434C189.749 306.387 189.775 306.342 189.803 306.298C189.818 306.275 189.841 306.245 189.856 306.222C189.867 306.196 189.879 306.171 189.893 306.147C189.962 306.041 190.037 305.927 190.12 305.821C190.158 305.776 190.188 305.738 190.226 305.7C190.252 305.661 190.283 305.626 190.317 305.594C190.34 305.558 190.368 305.525 190.4 305.496C190.43 305.466 190.461 305.428 190.498 305.39C190.515 305.366 190.535 305.346 190.559 305.329C190.619 305.261 190.685 305.197 190.756 305.14C191.025 304.892 191.314 304.664 191.618 304.459C191.723 304.391 191.837 304.323 191.943 304.247C192.705 303.791 193.507 303.406 194.34 303.097C194.627 302.991 194.915 302.893 195.225 302.787C195.338 302.757 195.444 302.719 195.557 302.681C195.724 302.628 195.89 302.575 196.064 302.537C196.926 302.28 197.856 302.061 198.862 301.856C198.983 301.834 199.112 301.811 199.24 301.781C199.422 301.743 199.611 301.713 199.8 301.682C200.057 301.637 200.322 301.592 200.586 301.546C202.832 301.191 205.381 300.926 208.194 300.752C208.458 300.737 208.723 300.721 208.988 300.706C209.298 300.691 209.608 300.676 209.925 300.661C210.19 300.646 210.462 300.638 210.735 300.631C210.999 300.615 211.271 300.608 211.551 300.6C212.315 300.578 213.102 300.555 213.903 300.54C216.187 300.494 218.592 300.51 221.117 300.563C222.289 300.593 223.484 300.623 224.709 300.676C224.793 300.676 224.868 300.684 224.944 300.684C226.01 300.721 227.084 300.767 228.188 300.827C228.959 300.865 229.738 300.903 230.517 300.948C231.25 300.994 231.992 301.039 232.74 301.092C233.323 301.122 233.905 301.168 234.495 301.206C234.994 301.244 235.493 301.281 235.992 301.312L236.672 301.357C237.043 301.387 237.414 301.41 237.792 301.448C238.624 301.516 239.455 301.584 240.302 301.652C241.142 301.728 241.996 301.803 242.851 301.879C243.705 301.955 244.567 302.038 245.429 302.121C245.52 302.129 245.603 302.136 245.687 302.144C246.473 302.227 247.259 302.303 248.053 302.386C248.235 302.401 248.424 302.416 248.605 302.439C249.363 302.515 250.134 302.604 250.898 302.685C251.133 302.711 251.366 302.735 251.601 302.761C252.2 302.826 252.79 302.883 253.392 302.954C254.186 303.044 254.995 303.128 255.782 303.233C256.394 303.302 257.007 303.37 257.619 303.445C258.58 303.559 259.555 303.68 260.531 303.809C260.901 303.854 261.272 303.899 261.642 303.952C264.425 304.3 267.238 304.686 270.097 305.087C274.43 305.7 278.831 306.366 283.262 307.085C287.701 307.804 292.166 308.563 296.655 309.362C297.789 309.567 298.924 309.771 300.065 309.983C300.58 310.081 301.094 310.179 301.608 310.278C302.485 310.437 303.362 310.603 304.24 310.77C305.117 310.936 305.994 311.103 306.871 311.277C307.915 311.481 308.966 311.685 310.01 311.89C316.883 313.252 323.72 314.704 330.389 316.225C331.486 316.475 332.582 316.732 333.671 316.982C335.849 317.489 338.007 318.003 340.144 318.525C340.734 318.662 341.317 318.805 341.899 318.949C343.351 319.312 344.803 319.676 346.232 320.046L346.481 320.114C347.533 320.372 348.561 320.636 349.589 320.909C352.017 321.544 354.404 322.188 356.751 322.838C358.309 323.27 359.849 323.706 361.371 324.147C363.647 324.806 365.878 325.471 368.049 326.145C368.585 326.311 369.122 326.478 369.652 326.637C371.24 327.129 372.805 327.628 374.325 328.127C375.535 328.521 376.715 328.922 377.879 329.323C379.044 329.724 380.186 330.125 381.305 330.526C382.023 330.783 382.734 331.056 383.445 331.313C384.466 331.691 385.472 332.069 386.455 332.448C386.757 332.561 387.052 332.682 387.347 332.796C387.536 332.879 387.718 332.947 387.899 333.023C388.254 333.167 388.617 333.303 388.965 333.447C389.321 333.583 389.669 333.727 390.016 333.878C390.357 334.014 390.705 334.158 391.037 334.302C391.378 334.438 391.71 334.582 392.043 334.733C392.323 334.846 392.595 334.967 392.86 335.089C393.397 335.323 393.934 335.558 394.455 335.8C394.712 335.921 394.97 336.034 395.227 336.155L395.817 336.428C395.9 336.473 395.983 336.511 396.066 336.549C396.255 336.64 396.452 336.738 396.641 336.829C397.079 337.033 397.51 337.253 397.934 337.457C398.501 337.744 399.053 338.032 399.582 338.312C400.119 338.599 400.641 338.887 401.14 339.167C401.223 339.212 401.299 339.258 401.382 339.303C401.496 339.364 401.609 339.432 401.723 339.492C402.108 339.712 402.479 339.939 402.849 340.158C403.575 340.604 404.263 341.043 404.906 341.482C405.05 341.581 405.186 341.679 405.33 341.77C405.806 342.11 406.26 342.443 406.683 342.784C406.683 342.791 406.683 342.791 406.691 342.791C406.835 342.897 406.971 343.011 407.107 343.117C407.22 343.222 407.341 343.313 407.455 343.419C407.848 343.76 408.211 344.085 408.543 344.418C408.655 344.521 408.761 344.629 408.861 344.743C408.905 344.78 408.946 344.82 408.982 344.864C409.133 345.016 409.269 345.167 409.398 345.318C409.418 345.339 409.436 345.362 409.451 345.386C409.632 345.598 409.799 345.81 409.958 346.022C410.033 346.128 410.116 346.234 410.184 346.34C410.275 346.469 410.366 346.605 410.442 346.733C410.51 346.839 410.57 346.953 410.631 347.059C410.791 347.331 410.928 347.618 411.039 347.914C411.124 348.115 411.192 348.322 411.243 348.534C411.3 348.735 411.343 348.94 411.372 349.147Z" fill="#2F2E41"/>
<path opacity="0.2" d="M411.372 349.147C411.364 350.471 411.349 352.325 411.288 354.618C411.281 354.936 411.266 355.261 411.258 355.594C411.183 358.81 411.069 362.782 410.91 367.269C410.903 367.541 410.895 367.806 410.88 368.079C410.668 373.557 410.336 379.935 409.761 390.037C408.695 408.696 406.834 392.602 404.966 399.147C399.779 395.954 394.092 392.609 388.012 389.174C386.916 388.554 385.809 387.931 384.693 387.305C372.533 380.518 358.951 373.405 344.772 366.361C344.213 366.081 343.646 365.801 343.086 365.529C310.607 349.465 275.156 333.84 246.435 323.413C240.892 321.401 235.598 319.585 230.623 317.988C220.142 314.636 211.082 312.291 204.11 311.277C196.85 310.217 191.837 310.596 189.81 312.782C189.734 311.239 189.656 309.761 189.576 308.348C189.545 307.879 189.515 307.418 189.485 306.964C189.532 306.839 189.592 306.72 189.651 306.6C189.659 306.583 189.665 306.565 189.674 306.548C189.688 306.508 189.706 306.47 189.727 306.434C189.749 306.387 189.774 306.342 189.802 306.298C189.827 306.244 189.858 306.194 189.893 306.147C189.961 306.041 190.037 305.927 190.12 305.821C190.181 305.742 190.247 305.666 190.317 305.594C190.34 305.558 190.368 305.525 190.4 305.496C190.43 305.466 190.46 305.428 190.498 305.39C190.514 305.366 190.535 305.346 190.559 305.329C190.618 305.261 190.684 305.197 190.755 305.14C191.025 304.892 191.313 304.664 191.617 304.459C191.723 304.391 191.837 304.323 191.943 304.247C192.705 303.791 193.507 303.406 194.34 303.097C194.627 302.991 194.914 302.893 195.224 302.787C195.338 302.757 195.444 302.719 195.557 302.681C195.724 302.628 195.89 302.575 196.064 302.537C196.926 302.28 197.856 302.061 198.862 301.856C199.164 301.796 199.482 301.735 199.8 301.682C200.057 301.637 200.321 301.592 200.586 301.546C202.832 301.191 205.38 300.926 208.193 300.752C208.458 300.737 208.723 300.721 208.987 300.706C209.298 300.691 209.608 300.676 209.925 300.661C210.19 300.646 210.462 300.638 210.734 300.631C210.999 300.615 211.271 300.608 211.551 300.6C212.315 300.578 213.101 300.555 213.903 300.54C216.187 300.502 218.591 300.517 221.117 300.57C222.289 300.593 223.484 300.631 224.709 300.684C224.785 300.684 224.868 300.691 224.943 300.691C226.01 300.721 227.091 300.774 228.188 300.827C228.959 300.865 229.738 300.903 230.517 300.948C231.25 300.994 231.991 301.039 232.74 301.092C233.322 301.122 233.905 301.168 234.494 301.206C234.993 301.244 235.493 301.281 235.992 301.312C236.589 301.357 237.186 301.402 237.791 301.448C238.623 301.516 239.455 301.584 240.302 301.652C241.141 301.728 241.996 301.803 242.85 301.879C243.705 301.955 244.567 302.038 245.429 302.121C245.52 302.129 245.603 302.136 245.686 302.144C246.473 302.227 247.259 302.303 248.053 302.386C252.454 302.832 256.984 303.355 261.642 303.952C264.425 304.308 267.243 304.689 270.097 305.095C274.43 305.708 278.831 306.374 283.262 307.085C287.701 307.804 292.165 308.563 296.655 309.362C297.789 309.567 298.923 309.771 300.065 309.983C301.457 310.24 302.848 310.502 304.239 310.77C305.117 310.936 305.994 311.103 306.871 311.277C307.915 311.481 308.966 311.685 310.009 311.89C316.883 313.252 323.719 314.704 330.389 316.225C331.486 316.475 332.582 316.732 333.671 316.982C335.849 317.489 338.007 318.003 340.144 318.525C340.734 318.669 341.316 318.813 341.899 318.957C343.358 319.32 344.803 319.683 346.232 320.046V320.054C346.315 320.069 346.398 320.092 346.481 320.114C347.525 320.379 348.561 320.644 349.589 320.916C352.017 321.552 354.404 322.193 356.751 322.838C358.308 323.277 359.851 323.709 361.371 324.147C363.647 324.813 365.878 325.479 368.048 326.145C368.585 326.311 369.122 326.478 369.652 326.637C371.24 327.136 372.797 327.633 374.325 328.127C375.535 328.521 376.715 328.922 377.879 329.323C379.044 329.724 380.186 330.125 381.305 330.526C382.031 330.783 382.742 331.048 383.445 331.305C384.473 331.684 385.471 332.062 386.454 332.448C386.757 332.561 387.052 332.682 387.347 332.796C387.899 333.008 388.436 333.227 388.965 333.447C389.321 333.583 389.668 333.727 390.016 333.878C390.357 334.014 390.704 334.158 391.037 334.302C391.377 334.438 391.71 334.582 392.043 334.733C392.323 334.846 392.595 334.967 392.86 335.089C393.396 335.323 393.933 335.558 394.455 335.8C394.712 335.921 394.969 336.034 395.227 336.155L395.816 336.428C395.9 336.473 395.983 336.511 396.066 336.549C396.709 336.852 397.329 337.154 397.934 337.457C398.501 337.744 399.053 338.032 399.582 338.312C400.21 338.645 400.807 338.97 401.382 339.303C401.495 339.364 401.609 339.432 401.722 339.492C402.108 339.712 402.479 339.939 402.849 340.158C403.575 340.604 404.263 341.043 404.906 341.482C405.541 341.921 406.131 342.352 406.683 342.784C406.683 342.791 406.683 342.791 406.691 342.791C406.955 343.003 407.212 343.215 407.454 343.419C407.848 343.76 408.211 344.085 408.543 344.418C408.655 344.521 408.761 344.629 408.861 344.743C408.905 344.78 408.945 344.82 408.982 344.864C409.141 345.038 409.3 345.213 409.451 345.387C409.632 345.598 409.799 345.81 409.957 346.022C410.033 346.128 410.116 346.234 410.184 346.34C410.275 346.469 410.366 346.605 410.441 346.733C410.51 346.839 410.57 346.953 410.631 347.059C410.791 347.331 410.928 347.618 411.039 347.914C411.122 348.115 411.19 348.323 411.243 348.534C411.3 348.735 411.343 348.94 411.372 349.147Z" fill="black"/>
</g>
<defs>
<clipPath id="clip0_264_682">
<rect width="595" height="433" fill="white"/>
</clipPath>
</defs>
</svg>
