<svg width="604" height="288" viewBox="0 0 604 288" fill="none" xmlns="http://www.w3.org/2000/svg">
<g clip-path="url(#clip0_264_787)">
<path opacity="0.1" d="M599.403 238.853C596.509 244.426 592.437 249.304 587.469 253.151C586.763 253.715 586.042 254.259 585.31 254.793C584.325 255.484 583.315 256.162 582.28 256.829C574.243 261.921 564.831 265.403 555.641 267.941C553.137 268.632 550.624 269.281 548.102 269.889C545.975 270.404 543.846 270.884 541.715 271.329C540.906 271.505 540.096 271.671 539.287 271.847C538.477 272.023 537.549 272.194 536.692 272.365L535.463 272.598C511.688 276.976 487.602 277.81 463.34 276.712L462.188 276.655L460.346 276.561C455.42 276.306 450.489 275.979 445.553 275.582L443.685 275.432L442.86 275.365C440.093 275.133 437.326 274.879 434.558 274.603C430.912 274.258 427.261 273.876 423.605 273.458L423.133 273.406L422.749 273.36C409.699 271.894 396.618 270.132 383.522 268.324L381.67 268.065L378.344 267.604L375.542 267.216L374.712 267.102C370.291 266.484 365.87 265.872 361.45 265.268L360.734 265.17C352.432 264.035 344.083 262.942 335.76 261.947L334.676 261.818C331.269 261.414 327.863 261.029 324.459 260.662L321.865 260.388L318.415 260.041C308.852 259.093 299.294 258.336 289.757 257.865C285.171 257.637 280.573 257.464 275.966 257.347C272.161 257.261 268.356 257.211 264.551 257.197C259.39 257.173 254.218 257.202 249.037 257.285H247.864C240.563 257.404 233.247 257.611 225.926 257.86L224.608 257.901H224.172C208.606 258.45 193.04 259.181 177.516 259.704L173.723 259.828H173.173C167.776 260.001 162.385 260.134 157 260.227H155.573H155.526H153.793L151.385 260.258C148.884 260.283 146.389 260.296 143.898 260.3H140.842C131.699 260.274 122.593 260.072 113.544 259.6L112.538 259.543C94.9532 258.595 77.5659 256.637 60.4899 253.078C58.7223 252.709 56.9581 252.322 55.1974 251.918C43.3978 249.276 31.8122 245.759 20.5369 241.396C15.2237 239.324 9.87937 236.931 5.83738 232.879C-4.41547 222.518 -0.56546 202.226 12.7747 196.326C23.2091 191.71 35.4337 195.466 46.6568 193.383C47.3464 193.252 48.0274 193.079 48.696 192.865C50.1227 192.406 51.5108 191.834 52.8469 191.156C53.3035 190.928 53.7601 190.684 54.2219 190.43C55.2597 189.866 56.2974 189.239 57.2936 188.555C58.9222 187.473 60.4819 186.292 61.9635 185.017C62.6207 184.457 63.2606 183.877 63.8833 183.276C66.0381 181.255 67.9405 178.982 69.5493 176.505C70.1351 175.568 70.6552 174.592 71.1059 173.583C71.3498 173.065 71.5677 172.506 71.7493 171.967C72.0205 171.187 72.227 170.387 72.3668 169.574C73.0206 165.73 71.9621 161.979 68.2781 158.808C67.9481 158.527 67.6016 158.266 67.2404 158.026C66.5267 157.532 65.7735 157.097 64.9885 156.726C64.672 156.576 64.3451 156.431 64.013 156.291C59.2705 154.296 53.1531 153.53 47.9955 152.146C46.4237 151.748 44.8891 151.216 43.4087 150.556C42.4696 150.121 41.5356 149.665 40.6172 149.188L40.3733 149.054C32.5311 145.017 25.6344 139.367 20.1374 132.476C18.7709 130.735 17.5129 128.911 16.3704 127.016C16.0228 126.446 15.6855 125.86 15.3638 125.275C6.24729 108.853 5.30814 87.8096 14.7931 71.662C15.9453 69.7029 17.2281 67.8233 18.6327 66.0359C19.0893 65.4454 19.5615 64.8651 20.0492 64.2953C29.0775 53.6597 42.0493 46.4536 55.1455 41.1177C72.7248 33.9582 91.1291 29.4356 109.886 26.4569C113.691 25.8525 117.496 25.3102 121.301 24.8302C137.231 22.7994 153.347 21.7219 169.349 20.9033C184.316 20.147 199.35 19.6583 214.449 19.4373C219.565 19.3682 224.686 19.3388 229.812 19.3492C241.362 19.3492 252.913 19.572 264.463 20.0175C268.268 20.1625 272.073 20.3352 275.878 20.5355C285.636 21.0398 295.375 21.7305 305.095 22.6077C309.765 23.0291 314.424 23.4936 319.074 24.0013C354.481 27.8659 389.375 34.4193 423.065 44.6094C426.888 45.7629 430.693 46.9717 434.48 48.2357C448.648 52.893 462.57 58.2651 476.192 64.3315C477.479 64.9083 478.762 65.4885 480.042 66.0722C488.548 69.9679 496.933 74.1659 505.197 78.666C516.103 84.5258 526.607 91.1023 536.641 98.3519C540.556 101.218 544.361 104.209 548.056 107.325C554.586 112.824 560.677 118.824 566.273 125.27C566.771 125.847 567.264 126.427 567.752 127.011C570.284 130.046 572.688 133.191 574.964 136.444C586.068 152.379 593.519 170.604 599.019 189.223C603.87 205.469 607.098 223.71 599.403 238.853Z" fill="#F12711"/>
<path opacity="0.1" d="M592.424 183.276H548.097V126.98H567.814C567.326 126.396 566.833 125.816 566.335 125.239H548.118V107.294C544.43 104.185 540.625 101.194 536.702 98.3209V125.26H434.511V66.036H480.073C478.79 65.4523 477.506 64.8721 476.223 64.2954H434.511V48.1995C430.706 46.9458 426.901 45.737 423.096 44.5732V64.2591H277.252L276.905 63.9275L319.094 23.9444C314.445 23.4332 309.785 22.9687 305.116 22.5508L275.898 50.2354V20.4993C272.093 20.299 268.288 20.1263 264.483 19.9813V52.1471L229.833 19.313C224.71 19.313 219.589 19.3423 214.469 19.4011L261.458 63.9275L261.11 64.2591H121.311V24.851C117.506 25.331 113.701 25.8732 109.896 26.4776V64.2954H20.0489C19.5612 64.8652 19.089 65.4454 18.6324 66.036H109.886V125.239H15.3428C15.6645 125.824 16.0017 126.41 16.3494 126.98H109.886V183.276H63.8778C63.2552 183.877 62.6152 184.457 61.958 185.017H109.886V242.624C113.691 243.166 117.496 243.733 121.301 244.323V185.017H264.473V257.197C268.278 257.197 272.083 257.247 275.888 257.347V185.017H423.086V273.381L423.558 273.432C427.211 273.84 430.862 274.222 434.511 274.577V185.017H536.671V272.339C537.543 272.179 538.415 272.008 539.266 271.821C540.117 271.635 540.885 271.495 541.694 271.303C543.825 270.851 545.954 270.371 548.081 269.863V185.017H592.766C592.652 184.437 592.538 183.856 592.424 183.276ZM264.473 183.276H121.311V126.98H264.473V183.276ZM264.473 125.254H121.311V66.036H262.444L264.457 67.6212L264.473 125.254ZM423.086 183.276H275.898V126.98H423.086V183.276ZM423.086 125.254H275.898V66.036H423.086V125.254ZM536.671 183.276H434.511V126.98H536.671V183.276Z" fill="#F12711"/>
<path d="M154.203 262.76C154.203 262.818 154.161 262.875 154.146 262.932C154.146 262.875 154.182 262.818 154.208 262.76H154.203Z" fill="#EAECF0"/>
<path d="M156.911 260.279H155.484H155.438H153.705L151.297 260.31L151.033 257.58L150.789 254.99L149.658 243.173L149.621 242.81V242.65L149.305 239.324L154.151 237.511L154.742 242.334L154.784 242.691V242.733L155.983 252.524L156.351 255.529L156.564 257.274L156.745 258.772V258.823L156.911 260.279Z" fill="#EAECF0"/>
<path d="M174.309 262.755L174.366 262.926H173.982L173.925 262.755H174.309Z" fill="#3A3768"/>
<path d="M249.462 194.502C249.462 194.606 249.462 194.663 249.462 194.663V194.725C249.462 194.725 244.938 207.07 243.464 217.607C243.364 218.298 243.281 218.989 243.215 219.68C243.142 220.41 243.085 221.125 243.054 221.819C243.013 222.632 243.002 223.42 243.023 224.171C243.023 224.342 243.023 224.518 243.023 224.689C243.023 225.036 243.059 225.394 243.08 225.761C243.101 226.129 243.132 226.497 243.163 226.88C243.194 227.264 243.225 227.601 243.262 227.968C244.377 239.365 248.616 256.052 248.616 256.052C248.616 256.052 248.756 256.503 248.938 257.269H247.765C240.465 257.388 233.149 257.596 225.828 257.844L224.51 257.886H224.074C208.508 258.435 192.942 259.165 177.417 259.689L173.624 259.813H173.074C167.678 259.986 162.287 260.119 156.901 260.212H155.474C155.84 259.696 156.261 259.222 156.73 258.798C157.124 258.433 157.549 258.103 158.001 257.813C160.467 256.278 163.153 255.127 165.966 254.399C166.559 254.237 167.172 254.162 167.787 254.177L171.419 254.249H171.979L177.552 254.358L225.35 255.306H225.47L225.807 255.239C226.362 255.1 226.902 254.91 227.421 254.669C228.318 254.29 229.103 253.687 229.7 252.918C230.296 252.148 230.683 251.238 230.824 250.276C230.824 250.115 230.866 249.944 230.876 249.758C230.892 249.506 230.892 249.253 230.876 249.001C230.876 248.825 230.876 248.639 230.835 248.447C230.793 248.255 230.783 248.064 230.746 247.867C229.595 241.438 227.633 221.648 227.633 221.648V221.71C227.633 221.71 227.633 220.866 227.68 219.446C227.68 219.338 227.68 219.218 227.68 219.099V218.794C227.68 218.478 227.716 218.136 227.737 217.758C227.737 217.535 227.768 217.307 227.784 217.069C227.81 216.721 227.841 216.364 227.872 215.991C227.869 215.969 227.869 215.946 227.872 215.924C227.893 215.689 227.913 215.45 227.934 215.209C227.934 215.209 227.934 215.157 227.934 215.131C228.707 207.49 231.141 195.393 238.83 190.912C242.437 188.804 244.823 188.379 246.396 188.793C248.689 189.394 249.265 191.777 249.389 193.326C249.389 193.43 249.389 193.528 249.389 193.627C249.431 193.917 249.455 194.209 249.462 194.502Z" fill="#3A3768"/>
<path opacity="0.1" d="M154.203 262.76C154.203 262.818 154.161 262.875 154.146 262.932C154.146 262.875 154.182 262.818 154.208 262.76H154.203Z" fill="black"/>
<path opacity="0.1" d="M174.309 262.755L174.366 262.926H173.982L173.925 262.755H174.309Z" fill="black"/>
<path opacity="0.1" d="M249.462 194.502C249.462 194.606 249.462 194.663 249.462 194.663C249.462 194.663 245.731 204.842 243.951 214.603C243.827 215.293 243.713 215.962 243.609 216.607C243.557 216.939 243.51 217.27 243.464 217.602C243.363 218.293 243.28 218.983 243.215 219.674C243.142 220.405 243.085 221.12 243.054 221.814C243.012 222.627 243.002 223.415 243.023 224.166C243.023 224.337 243.023 224.513 243.023 224.684C243.023 225.031 243.059 225.388 243.08 225.756C243.1 226.124 243.132 226.497 243.163 226.875C243.194 227.253 243.225 227.595 243.261 227.963C243.298 228.331 243.334 228.683 243.375 229.046C243.541 230.512 243.749 232.05 243.988 233.615C245.612 244.168 248.616 255.99 248.616 255.99C248.616 255.99 248.766 256.466 248.948 257.264H247.775C240.475 257.383 233.159 257.59 225.838 257.839L224.52 257.88H224.084C208.518 258.43 192.952 259.16 177.427 259.683L173.634 259.808H173.084C167.688 259.98 162.297 260.113 156.911 260.207H155.484H155.438C155.815 259.672 156.25 259.18 156.735 258.74C157.128 258.369 157.555 258.036 158.011 257.746C160.479 256.215 163.164 255.064 165.976 254.332C166.57 254.174 167.183 254.101 167.797 254.114L171.429 254.187H171.989L177.578 254.296L225.412 255.238H225.495C225.495 255.238 225.635 255.238 225.869 255.161C226.429 255.022 226.973 254.826 227.493 254.575C228.371 254.199 229.139 253.607 229.726 252.854C230.313 252.101 230.7 251.212 230.85 250.27C230.85 250.11 230.891 249.939 230.902 249.752C230.917 249.5 230.917 249.248 230.902 248.996C230.902 248.82 230.902 248.633 230.86 248.442C230.819 248.25 230.808 248.022 230.772 247.804C229.62 241.375 227.659 221.586 227.659 221.586C227.659 221.586 227.659 220.741 227.706 219.322C227.706 219.213 227.706 219.094 227.706 218.975V218.669C227.706 218.353 227.742 218.011 227.763 217.633C227.763 217.41 227.794 217.182 227.809 216.944C227.835 216.597 227.866 216.24 227.898 215.867C227.895 215.844 227.895 215.822 227.898 215.799C227.918 215.564 227.939 215.326 227.96 215.084C227.96 215.084 227.96 215.032 227.96 215.007C228.053 214.053 228.178 213.028 228.333 211.955C229.413 204.454 232.111 194.658 238.835 190.715C242.348 188.643 244.699 188.208 246.276 188.565C248.704 189.12 249.28 191.617 249.389 193.191C249.389 193.295 249.389 193.394 249.389 193.492C249.436 193.827 249.46 194.164 249.462 194.502Z" fill="black"/>
<path d="M154.203 262.76C154.203 262.818 154.161 262.875 154.146 262.932C154.146 262.875 154.182 262.818 154.208 262.76H154.203Z" fill="#3A3768"/>
<path d="M174.309 262.755L174.366 262.926H173.982L173.925 262.755H174.309Z" fill="#3A3768"/>
<path d="M248.134 194.062C248.134 194.062 241.362 212.535 241.689 223.591C242.016 234.646 247.303 255.42 247.303 255.42C247.303 255.42 247.532 256.15 247.776 257.316C240.475 257.435 233.159 257.642 225.838 257.891L224.52 257.932H224.084C208.518 258.481 192.952 259.212 177.427 259.735L173.634 259.859H173.084C167.688 260.032 162.297 260.165 156.911 260.258H155.484H155.438H153.705C154.419 259.062 155.392 258.041 156.553 257.269L156.693 257.171C159.164 255.665 161.847 254.539 164.653 253.829C165.247 253.672 165.86 253.598 166.474 253.612L171.268 253.705H171.829L177.604 253.819L224.172 254.746C224.838 254.621 225.485 254.411 226.097 254.119C226.301 254.026 226.498 253.921 226.689 253.803C227.273 253.467 227.799 253.039 228.245 252.534C229.226 251.42 229.88 249.763 229.444 247.354C228.287 240.925 226.331 221.135 226.331 221.135C226.331 221.135 225.999 197.056 237.559 190.296C242.229 187.565 244.854 187.659 246.323 188.741C246.367 188.769 246.408 188.8 246.447 188.835C248.471 190.461 248.134 194.062 248.134 194.062Z" fill="#3A3768"/>
<path d="M61.8077 239.391L61.6209 241.324L60.4897 253.182C58.7221 252.812 56.958 252.425 55.1973 252.021L56.5204 241.241L56.9666 237.578L61.8077 239.391Z" fill="#EAECF0"/>
<path d="M28.6001 235.558L56.8577 175.51L170.682 184.374L181.174 235.558H28.6001Z" fill="#EFC6CD"/>
<path d="M28.6001 240.795V235.558H181.174V243.214L28.6001 240.795Z" fill="#D48A9B"/>
<path d="M71.6247 226.787L139.887 228.176C140.038 228.179 140.188 228.146 140.324 228.08C140.46 228.013 140.578 227.915 140.668 227.794C140.758 227.673 140.817 227.532 140.841 227.383C140.865 227.233 140.853 227.081 140.806 226.937L130.164 198.279L84.1865 197.403L70.587 225.202C70.5109 225.374 70.4791 225.562 70.4945 225.75C70.5099 225.937 70.5719 226.118 70.675 226.276C70.7781 226.433 70.919 226.562 71.0848 226.652C71.2507 226.741 71.4363 226.788 71.6247 226.787Z" fill="#DFE6F5"/>
<path opacity="0.15" d="M71.6247 226.787L139.887 228.176C140.038 228.179 140.188 228.146 140.324 228.08C140.46 228.013 140.578 227.915 140.668 227.794C140.758 227.673 140.817 227.532 140.841 227.383C140.865 227.233 140.853 227.081 140.806 226.937L130.164 198.279L84.1865 197.403L70.587 225.202C70.5109 225.374 70.4791 225.562 70.4945 225.75C70.5099 225.937 70.5719 226.118 70.675 226.276C70.7781 226.433 70.919 226.562 71.0848 226.652C71.2507 226.741 71.4363 226.788 71.6247 226.787Z" fill="black"/>
<path d="M71.0747 225.59L140.043 227.041L130.667 198.688C130.515 198.229 130.225 197.827 129.836 197.54C129.446 197.252 128.977 197.092 128.493 197.082L84.171 196.243L71.0747 225.59Z" fill="#DFE6F5"/>
<path d="M76.7717 219.172L85.0373 201.014C85.213 200.631 85.4952 200.306 85.8502 200.079C86.2052 199.851 86.6182 199.73 87.0401 199.729H107.582C108.164 199.729 108.723 199.96 109.134 200.371C109.546 200.782 109.777 201.339 109.777 201.921V221.539C109.777 221.836 109.716 222.13 109.599 222.403C109.481 222.676 109.31 222.922 109.094 223.127C108.879 223.332 108.624 223.491 108.346 223.594C108.067 223.698 107.77 223.745 107.473 223.731L78.6604 222.264C78.3032 222.246 77.9558 222.142 77.6485 221.959C77.3412 221.776 77.0832 221.522 76.897 221.217C76.7108 220.912 76.6021 220.566 76.5803 220.21C76.5584 219.853 76.6241 219.497 76.7717 219.172Z" fill="#4C4C56"/>
<path d="M117.285 216.872L117.638 206.511C117.647 206.096 117.819 205.702 118.115 205.411C118.412 205.121 118.81 204.958 119.226 204.957H125.296C125.669 204.958 126.03 205.091 126.314 205.332C126.599 205.573 126.79 205.905 126.853 206.272L128.638 216.576C128.677 216.804 128.666 217.037 128.606 217.259C128.546 217.482 128.438 217.689 128.29 217.866C128.142 218.043 127.957 218.185 127.749 218.284C127.54 218.382 127.312 218.434 127.081 218.436L118.868 218.509C118.655 218.508 118.445 218.465 118.249 218.382C118.054 218.299 117.877 218.177 117.73 218.024C117.582 217.872 117.467 217.691 117.39 217.493C117.314 217.295 117.278 217.084 117.285 216.872Z" fill="#D1D9EC"/>
<path d="M36.8605 149.483L59.7478 147.577C60.0822 147.533 60.4219 147.599 60.7157 147.764C61.0096 147.929 61.2417 148.186 61.3771 148.494L83.0191 197.403L70.9398 224.477C71.3186 223.627 71.5988 230.237 68.8643 224.508L34.4685 152.866C34.0067 151.908 35.7864 149.618 36.8605 149.483Z" fill="#4C4C56"/>
<path opacity="0.15" d="M36.8605 149.483L59.7478 147.577C60.0822 147.533 60.4219 147.599 60.7157 147.764C61.0096 147.929 61.2417 148.186 61.3771 148.494L83.0191 197.403L70.9398 224.477C71.3186 223.627 71.5988 230.237 68.8643 224.508L34.4685 152.866C34.0067 151.908 35.7864 149.618 36.8605 149.483Z" fill="black"/>
<path d="M36.8606 149.484L60.9102 146.417C61.2446 146.373 61.5843 146.438 61.8781 146.604C62.172 146.769 62.404 147.025 62.5394 147.334L84.1867 196.243L71.0904 225.59L35.6309 151.706C35.5222 151.482 35.469 151.235 35.4757 150.987C35.4823 150.738 35.5487 150.495 35.6692 150.277C35.7897 150.059 35.9608 149.873 36.1681 149.735C36.3754 149.597 36.6129 149.511 36.8606 149.484Z" fill="#4C4C56"/>
<path d="M42.8638 152.923L60.2511 150.219C60.5987 150.164 60.9547 150.229 61.2609 150.402C61.5672 150.575 61.8056 150.847 61.9374 151.172L80.1497 195.652C80.2243 195.834 80.2601 196.029 80.2548 196.225C80.2494 196.422 80.203 196.615 80.1186 196.792L71.7804 214.188C71.6671 214.43 71.4871 214.635 71.2615 214.778C71.0359 214.921 70.774 214.998 70.5065 214.998C70.2391 214.998 69.9772 214.921 69.7516 214.778C69.526 214.635 69.346 214.43 69.2327 214.188L41.686 155.13C41.581 154.911 41.5292 154.67 41.5346 154.427C41.54 154.183 41.6025 153.945 41.717 153.73C41.8316 153.515 41.9951 153.331 42.1942 153.191C42.3934 153.05 42.6227 152.959 42.8638 152.923Z" fill="#F12711"/>
<path d="M228.385 253.145C228.385 253.145 228.027 253.736 227.503 254.7L227.457 254.788C226.99 255.617 226.419 256.704 225.838 257.896L224.52 257.937H224.084C208.518 258.487 192.952 259.217 177.427 259.74L173.634 259.865H173.084C167.688 260.037 162.297 260.17 156.911 260.263H155.484H155.438H153.705L151.297 260.295C148.796 260.319 146.3 260.333 143.81 260.336H140.842C131.699 260.31 122.593 260.108 113.544 259.637L112.537 259.58C114.317 255.715 117.498 249.379 120.082 247.354C122.079 245.799 136.426 244.074 149.621 242.81L151.012 242.676H151.043L154.727 242.334C159.775 241.873 164.357 241.5 167.626 241.246L167.927 241.22L166.225 235.521L163.76 227.233L164.461 220.27L164.518 219.71H164.44C163.737 219.785 163.027 219.696 162.364 219.451L137.723 218.602H137.277L127.813 218.265C122.738 218.084 119.132 217.949 118.992 217.923C118.843 217.898 118.697 217.858 118.556 217.804C118.335 217.72 118.132 217.597 117.954 217.441C117.748 217.265 117.572 217.055 117.436 216.82H117.332H117.104L115.765 216.908L115.085 216.954C115.059 216.882 115.038 216.809 115.012 216.742C114.95 216.54 114.888 216.348 114.831 216.151H114.473L109.803 216.053H109.72C109.72 216.053 97.6719 216.97 91.378 214.68C89.069 213.841 87.5332 212.572 87.6525 210.67C87.6787 210.238 87.7696 209.812 87.9223 209.406C85.8987 205.63 95.7832 198.74 103.317 200.641C105.353 201.222 107.498 201.311 109.575 200.9C110.702 200.657 111.764 200.174 112.688 199.486C112.781 199.418 112.864 199.351 112.942 199.284C112.818 199.206 112.688 199.139 112.569 199.076C112.052 198.805 111.498 198.613 110.924 198.507L112.968 197.911H112.999C112.999 197.911 120.263 197.248 124.99 196.984H125.021C126.428 196.911 127.616 196.864 128.321 196.885C131.435 196.973 137.5 194.751 137.76 194.067C138.019 193.383 140.79 194.067 140.79 194.067L143.213 193.124C145.636 192.186 147.021 190.907 147.021 189.964C147.021 189.021 149.185 188.001 149.185 188.001C150.161 186.364 152.075 184.607 154.083 183.053C155.822 181.711 157.627 180.515 158.966 179.681C159.485 176.325 160.178 172.998 161.041 169.713C161.96 166.652 164.808 164.383 165.831 163.647L166.204 163.398C165.918 162.108 165.536 160.84 165.063 159.606C165.028 159.503 164.986 159.399 164.938 159.295C164.834 159.052 164.725 158.814 164.616 158.591L164.456 158.28C164.191 158.332 163.937 158.378 163.656 158.415C162.797 158.54 161.93 158.604 161.062 158.606C157.171 158.621 153.383 157.362 150.277 155.023C147.171 152.684 144.917 149.394 143.862 145.655C143.862 145.655 143.862 145.655 143.862 145.624C143.445 144.105 143.236 142.537 143.239 140.962C143.237 139.45 143.435 137.945 143.83 136.486C143.908 136.175 144.002 135.869 144.1 135.563C144.11 135.528 144.122 135.494 144.137 135.46C144.183 135.32 144.23 135.175 144.282 135.035C143.514 135.152 142.739 135.219 141.963 135.237H141.444C139.962 135.292 138.485 135.047 137.101 134.517C136.765 134.374 136.444 134.201 136.141 133.999C136.125 133.992 136.111 133.981 136.099 133.968C135.705 133.738 135.345 133.454 135.03 133.123C135.608 132.682 136.092 132.13 136.454 131.501C136.817 130.871 137.051 130.176 137.142 129.456C137.282 128.337 137.096 127.088 137.765 126.176C138.108 125.765 138.518 125.414 138.979 125.14C141.739 123.26 143.929 120.68 146.425 118.457C148.921 116.235 151.94 114.313 155.297 114.209C159.801 114.07 163.765 117.199 168.228 117.789C169.597 117.97 171.004 117.908 172.342 118.25C173.842 118.718 175.254 119.433 176.519 120.364C177.662 121.013 178.672 121.87 179.498 122.892C180.071 123.778 180.482 124.758 180.712 125.788C181.29 127.957 181.637 130.182 181.749 132.424C181.869 134.771 181.749 137.133 181.998 139.464C182.175 141.489 182.86 143.437 183.991 145.127H184.058C184.255 145.403 184.47 145.666 184.702 145.914C184.261 146.054 183.82 146.178 183.368 146.287C182.618 146.479 181.857 146.63 181.09 146.738C180.739 146.796 180.383 146.825 180.027 146.826C179.779 146.832 179.532 146.81 179.29 146.759L179.747 147.064L181.013 147.914L181.49 148.23L182.45 148.867C182.668 148.23 182.969 148.059 183.316 148.1C184.022 147.437 185.075 148.872 185.075 148.872C185.693 150.053 187.353 151.229 188.822 152.1C189.685 152.607 190.573 153.07 191.483 153.488C210.874 165.025 209.644 182.286 210.785 183.654C211.927 185.022 211.999 189.974 211.999 189.974C211.999 189.974 214.858 206.806 216.15 208.262C217.442 209.717 216.233 210.225 217.359 211.852C218.485 213.478 218.226 217.83 218.226 217.83C218.226 217.83 219.004 228.082 221.775 230.305C224.26 232.299 227.581 249.079 228.24 252.508L228.385 253.145Z" fill="url(#paint0_linear_264_787)"/>
<path d="M114.738 199.144C114.738 199.144 112.045 203.377 104.417 201.429C96.79 199.481 86.698 206.847 89.5777 210.484C92.4574 214.121 111.028 209.448 111.028 209.448L118.152 208.008L117.685 202.087L114.738 199.144Z" fill="#D38884"/>
<path opacity="0.1" d="M114.738 199.144C114.738 199.144 112.045 203.377 104.417 201.429C96.79 199.481 86.698 206.847 89.5777 210.484C92.4574 214.121 111.028 209.448 111.028 209.448L118.152 208.008L117.685 202.087L114.738 199.144Z" fill="black"/>
<path d="M117.218 198.916L113.912 198.745L111.878 199.336C111.878 199.336 118.323 200.268 116.548 208.987L123.496 208.567L117.218 198.916Z" fill="#A36468"/>
<path opacity="0.1" d="M117.218 198.916L113.912 198.745L111.878 199.336C111.878 199.336 118.323 200.268 116.548 208.987L123.496 208.567L117.218 198.916Z" fill="black"/>
<path d="M160.969 179.417C160.969 179.417 151.899 184.597 149.351 188.902C149.351 188.902 147.234 189.938 147.234 190.85C147.234 191.762 145.875 193.046 143.504 193.958L141.127 194.891C141.127 194.891 138.414 194.212 138.159 194.891C137.905 195.569 131.974 197.766 128.918 197.683C125.862 197.6 113.913 198.719 113.913 198.719C116.101 199.711 117.888 201.415 118.981 203.551C120.074 205.688 120.409 208.132 119.931 210.484L148.168 209.303L158.847 206.93L165.125 200.667L160.969 179.417Z" fill="#444053"/>
<path opacity="0.1" d="M160.969 179.417C160.969 179.417 151.899 184.597 149.351 188.902C149.351 188.902 147.234 189.938 147.234 190.85C147.234 191.762 145.875 193.046 143.504 193.958L141.127 194.891C141.127 194.891 138.414 194.212 138.159 194.891C137.905 195.569 131.974 197.766 128.918 197.683C125.862 197.6 113.913 198.719 113.913 198.719C116.101 199.711 117.888 201.415 118.981 203.551C120.074 205.688 120.409 208.132 119.931 210.484L148.168 209.303L158.847 206.93L165.125 200.667L160.969 179.417Z" fill="black"/>
<path d="M119.36 216.872L115.365 216.794L110.695 216.696C110.695 216.696 88.6434 218.39 89.0741 211.349C89.5048 204.309 106.467 201.838 108.827 203.858C110.618 205.386 114.758 206.619 116.647 207.122C117.249 207.283 117.617 207.371 117.617 207.371L119.36 216.872Z" fill="#D38884"/>
<path opacity="0.1" d="M119.36 216.872L115.365 216.794C113.772 211.328 115.619 208.319 116.668 207.137C117.269 207.298 117.638 207.386 117.638 207.386L119.36 216.872Z" fill="black"/>
<path d="M122.054 217.172L117.903 217.462L115.931 217.597C113.217 209.64 117.602 206.505 117.602 206.505H118.899L121.021 206.759L122.054 217.172Z" fill="#A36468"/>
<path d="M172.332 164.352L167.413 173.676C167.413 173.676 166.661 164.232 164.471 159.782C163.911 158.643 163.257 157.834 162.494 157.591C160.419 156.938 172.353 143.878 172.353 143.878C172.752 143.961 175.035 145.432 177.832 147.334C180.909 149.406 184.614 151.934 187.104 153.55C191.831 156.56 172.332 164.352 172.332 164.352Z" fill="#D38884"/>
<path d="M166.023 164.528C166.023 164.528 162.069 167.061 160.969 170.786C159.869 174.511 158.847 181.199 158.847 181.199C158.847 181.199 160.632 197.196 161.56 197.958C162.489 198.719 166.023 214.717 166.023 214.717L169.447 212.432L164.954 192.285C164.954 192.285 167.942 166.398 166.023 164.528Z" fill="#444053"/>
<path opacity="0.1" d="M166.023 164.528C166.023 164.528 162.069 167.061 160.969 170.786C159.869 174.511 158.847 181.199 158.847 181.199C158.847 181.199 160.632 197.196 161.56 197.958C162.489 198.719 166.023 214.717 166.023 214.717L169.447 212.432L164.954 192.285C164.954 192.285 167.942 166.398 166.023 164.528Z" fill="black"/>
<path d="M183.228 200.216H163.464L166.666 169.087H183.228V200.216Z" fill="#A36468"/>
<path d="M137.438 262.76H137.677L137.23 262.931L137.438 262.76Z" fill="#67647E"/>
<path d="M174.62 248.582L170.754 250.063L170.236 250.255L156.32 255.596L151.011 257.632L143.789 260.404H140.842C131.699 260.378 122.593 260.176 113.544 259.704C115.298 255.865 118.364 249.721 120.865 247.737C122.816 246.183 136.774 244.505 149.657 243.24C151.266 243.085 152.853 242.935 154.4 242.795L154.768 242.759C159.884 242.292 164.512 241.914 167.74 241.655L168.259 241.614L172.316 241.303L172.742 240.878L173.261 243.095L173.691 244.867L174.62 248.582Z" fill="#67647E"/>
<path opacity="0.1" d="M137.438 262.76H137.677L137.23 262.931L137.438 262.76Z" fill="black"/>
<path opacity="0.1" d="M174.62 248.582L170.754 250.063L170.236 250.255L156.32 255.596L151.011 257.632L143.789 260.404H140.842C131.699 260.378 122.593 260.176 113.544 259.704C115.298 255.865 118.364 249.721 120.865 247.737C122.816 246.183 136.774 244.505 149.657 243.24C151.266 243.085 152.853 242.935 154.4 242.795L154.768 242.759C159.884 242.292 164.512 241.914 167.74 241.655L168.259 241.614L172.316 241.303L172.742 240.878L173.261 243.095L173.691 244.867L174.62 248.582Z" fill="black"/>
<path d="M137.438 262.76H137.677L137.23 262.931L137.438 262.76Z" fill="#67647E"/>
<path d="M154.203 262.76C154.203 262.818 154.161 262.875 154.146 262.932C154.146 262.875 154.182 262.818 154.208 262.76H154.203Z" fill="#67647E"/>
<path d="M174.366 262.926H173.982L173.925 262.755H174.309L174.366 262.926Z" fill="#67647E"/>
<path d="M177.925 243.168L177.604 253.829V254.404V254.461L177.443 259.74L173.65 259.865H173.1C167.704 260.037 162.313 260.17 156.927 260.264H155.5H155.453H153.72L151.313 260.295C148.812 260.319 146.316 260.333 143.825 260.336H140.842C143.54 258.668 147.032 256.829 150.789 254.99C152.475 254.161 154.223 253.337 155.977 252.524C160.647 250.358 165.374 248.312 169.229 246.68L169.722 246.473C171.216 245.841 172.571 245.276 173.728 244.8C176.229 243.764 177.816 243.142 177.925 243.101V243.168Z" fill="#67647E"/>
<path opacity="0.1" d="M143.27 199.351C144.24 201.371 145.242 203.433 146.845 205.008C147.099 205.257 147.54 205.485 147.769 205.21C147.84 205.096 147.875 204.962 147.867 204.827C147.818 203.875 147.493 202.957 146.933 202.185C146.414 201.387 145.802 200.662 145.34 199.833C144.878 199.004 144.349 197.408 143.312 197.191C141.978 196.911 142.974 198.74 143.27 199.351Z" fill="black"/>
<path opacity="0.1" d="M177.811 147.318C177.739 147.577 177.661 147.836 177.578 148.085C176.62 151.014 174.903 153.638 172.601 155.689C170.299 157.741 167.494 159.148 164.471 159.767C163.911 158.627 163.257 157.819 162.494 157.576C160.419 156.923 172.353 143.863 172.353 143.863C172.732 143.946 175.015 145.443 177.811 147.318Z" fill="black"/>
<path d="M178.434 142.34C178.434 145.789 177.409 149.16 175.49 152.028C173.571 154.895 170.844 157.13 167.652 158.45C164.461 159.77 160.949 160.115 157.561 159.442C154.173 158.769 151.061 157.109 148.619 154.67C146.176 152.231 144.513 149.124 143.839 145.742C143.165 142.359 143.511 138.853 144.833 135.667C146.155 132.48 148.393 129.757 151.265 127.841C154.138 125.925 157.514 124.902 160.969 124.902C163.263 124.897 165.537 125.345 167.658 126.22C169.779 127.094 171.706 128.379 173.329 129.999C174.952 131.619 176.238 133.543 177.114 135.661C177.99 137.779 178.438 140.048 178.434 142.34Z" fill="#D38884"/>
<path d="M167.668 168.242C167.668 168.242 164.036 172.646 164.617 175.526H169.022L172.244 171.9L167.668 168.242Z" fill="#67647E"/>
<path opacity="0.1" d="M180.587 149.649L166.733 168.667C166.733 168.667 170.293 173.749 171.99 174.003C173.686 174.257 183.363 151.509 183.363 151.509L180.587 149.649Z" fill="black"/>
<path d="M180.764 149.307L166.905 168.351C166.905 168.351 170.464 173.428 172.161 173.682C173.858 173.936 183.535 151.193 183.535 151.193L180.764 149.307Z" fill="#A36468"/>
<path d="M165.125 173.666C165.125 173.666 164.445 184.328 163.765 186.447C163.086 188.565 163.765 208.029 163.765 208.029L170.127 205.407L169.022 175.526L165.125 173.666Z" fill="#67647E"/>
<path opacity="0.1" d="M174.309 262.755L174.366 262.926H173.982L173.925 262.755H174.309Z" fill="black"/>
<path opacity="0.1" d="M226.424 253.576C226.424 253.576 226.305 253.772 226.108 254.094C225.91 254.415 225.698 254.814 225.423 255.321C225.409 255.341 225.397 255.362 225.386 255.384C225.002 256.093 224.546 256.964 224.084 257.912C208.518 258.461 192.952 259.191 177.427 259.715L173.634 259.839H173.084L171.455 254.348V254.291L171.284 253.71L170.246 250.26L169.208 246.753L168.134 243.013L167.74 241.655L167.636 241.313L165.945 235.563L163.651 227.756L164.393 220.306L164.445 219.742L165.115 213.069L165.208 211.09L165.26 210.054V209.759L165.374 207.355L165.716 200.206L165.893 196.549L165.924 195.994L166.277 188.653L167.278 185.654L167.797 184.162L168.949 180.696L169.198 179.841C169.561 178.541 170.293 175.972 170.978 173.501L171.04 173.288L171.087 173.128L171.575 171.371L172.182 169.118C172.41 168.253 172.56 167.636 172.597 167.424C172.654 167.056 173.634 165.429 174.921 163.279C177.516 158.995 181.417 152.69 181.864 150.577C181.866 150.56 181.866 150.542 181.864 150.525C181.89 150.396 181.927 150.27 181.973 150.147C182.185 149.515 182.492 149.344 182.813 149.385C182.96 149.409 183.1 149.464 183.223 149.546C183.536 149.756 183.81 150.019 184.033 150.323C184.64 151.489 186.264 152.654 187.701 153.519L187.981 153.68L188.147 153.778C189.341 154.457 190.306 154.892 190.306 154.892C209.296 166.32 208.113 183.421 209.213 184.773C210.313 186.125 210.401 191.042 210.401 191.042C210.401 191.042 213.198 207.718 214.469 209.173C215.741 210.629 214.558 211.121 215.658 212.732C216.758 214.344 216.503 218.602 216.503 218.602C216.503 218.602 217.266 228.756 219.98 230.958C222.694 233.159 226.424 253.576 226.424 253.576Z" fill="black"/>
<path d="M226.933 253.41L226.704 253.803C226.523 254.125 226.232 254.632 225.885 255.27L225.848 255.342C225.454 256.072 224.987 256.958 224.525 257.932H224.089C208.523 258.481 192.957 259.212 177.433 259.735L173.64 259.859L172.016 254.347V254.29L171.844 253.71L170.77 250.084L169.732 246.561L168.695 243.044L168.285 241.634L166.51 235.584L164.165 227.611L164.814 221.13L164.902 220.265L165.618 212.903L165.893 207.163L166.23 200.227L166.318 198.408L166.417 196.305L166.458 195.419L166.796 188.488L167.797 185.493L168.228 184.203L169.234 181.173L169.447 180.53C169.447 180.53 170.417 177.127 171.357 173.754C171.393 173.63 171.429 173.506 171.46 173.381C171.543 173.091 171.621 172.801 171.704 172.516C171.787 172.226 171.865 171.941 171.938 171.656C172.202 170.713 172.457 169.833 172.633 169.107C172.887 168.159 173.058 167.47 173.095 167.247C173.152 166.88 174.133 165.206 175.466 163.031C177.92 158.979 181.5 153.188 182.258 150.784C182.299 150.66 182.334 150.533 182.362 150.406C182.408 150.024 182.565 149.664 182.813 149.37C183.508 148.701 184.541 150.136 184.541 150.136C185.148 151.302 186.772 152.473 188.209 153.333C189.049 153.836 189.915 154.294 190.804 154.705C209.794 166.134 208.611 183.235 209.711 184.592C210.811 185.949 210.9 190.855 210.9 190.855C210.9 190.855 213.696 207.531 214.968 208.987C216.239 210.443 215.056 210.935 216.156 212.541C217.256 214.147 217.001 218.467 217.001 218.467C217.001 218.467 217.764 228.626 220.478 230.828C223.192 233.03 226.933 253.41 226.933 253.41Z" fill="#444053"/>
<path opacity="0.1" d="M188.21 153.664C186.347 156.369 183.311 161.124 182.502 164.543C182.502 164.543 179.534 167.595 178.429 167.424C177.324 167.253 179.467 169.708 179.467 169.708L167.808 185.84L169.463 180.883C169.463 180.883 172.939 168.693 173.095 167.595C173.251 166.496 181.693 153.913 182.362 150.748C182.881 148.214 184.541 150.494 184.541 150.494C185.143 151.634 186.767 152.81 188.21 153.664Z" fill="black"/>
<path d="M188.21 153.328C186.347 156.027 183.311 160.787 182.502 164.181C182.502 164.181 179.534 167.227 178.429 167.061C177.324 166.895 179.467 169.346 179.467 169.346L167.808 185.478L169.463 180.52C169.463 180.52 172.939 168.33 173.095 167.227C173.251 166.123 181.693 153.55 182.362 150.385C182.881 147.847 184.541 150.131 184.541 150.131C185.143 151.297 186.767 152.462 188.21 153.328Z" fill="#444053"/>
<path opacity="0.1" d="M203.869 186.752C203.957 190.451 198.53 195.502 198.275 195.797C198.021 196.093 181.402 209.785 181.402 209.785L169.468 218.923C168.123 220.03 166.514 220.773 164.798 221.078L165.612 212.903L166.417 196.326C168.279 194.254 170.085 192.078 170.127 191.384C170.21 189.949 173.24 188.42 173.24 188.42C173.24 188.42 175.362 186.643 175.02 185.628C174.677 184.613 176.146 179.748 176.146 179.748C176.908 165.947 191.151 164.595 191.151 164.595C191.151 164.595 198.021 167.305 202.852 170.18C207.682 173.055 203.786 183.059 203.869 186.752Z" fill="black"/>
<path opacity="0.1" d="M122.054 217.172L117.903 217.462C116.149 214.483 118.562 206.505 118.562 206.505H118.899L121.021 206.759L122.054 217.172Z" fill="black"/>
<path d="M191.151 163.756C191.151 163.756 176.908 165.113 176.145 178.909C176.145 178.909 174.703 183.737 175.04 184.752C175.378 185.768 173.261 187.545 173.261 187.545C173.261 187.545 170.21 189.068 170.147 190.508C170.085 191.948 162.364 199.802 162.364 199.802C162.364 199.802 159.147 203.459 151.686 203.843C144.225 204.226 140.748 206.505 140.748 206.505C140.748 206.505 137.116 203.967 134.47 204.728C131.824 205.49 118.956 206.505 118.956 206.505C118.956 206.505 115.536 217.82 119.801 218.529C120.32 218.612 162.297 220.052 162.297 220.052C162.297 220.052 165.166 221.405 169.488 218.105C173.811 214.805 181.422 208.961 181.422 208.961C181.422 208.961 198.026 195.248 198.296 194.974C198.566 194.699 204.004 189.622 203.889 185.928C203.775 182.235 207.708 172.242 202.852 169.351C197.995 166.46 191.151 163.756 191.151 163.756Z" fill="#444053"/>
<path opacity="0.1" d="M178.434 142.34C178.435 144.174 178.147 145.998 177.578 147.743C177.341 147.464 177.126 147.168 176.934 146.857C176.125 145.614 175.314 144.37 174.501 143.127C173.869 142.008 173.029 141.02 172.026 140.216C170.988 139.48 169.514 139.179 168.394 139.832C167.408 140.412 166.925 141.599 166.837 142.738C166.807 143.882 166.836 145.027 166.925 146.168C166.967 146.605 166.855 147.043 166.609 147.406C166.24 147.736 165.765 147.92 165.27 147.924L163.713 148.137C163.573 148.186 163.424 148.207 163.275 148.198C163.126 148.188 162.981 148.15 162.847 148.083C162.714 148.017 162.595 147.925 162.498 147.812C162.401 147.7 162.327 147.568 162.281 147.427C160.989 145.09 160.097 142.189 157.674 141.065C156.179 140.371 154.208 140.418 153.248 139.081C152.594 138.169 152.682 136.931 152.874 135.822C153.085 134.572 153.389 133.339 153.782 132.134C154.057 131.284 154.67 129.59 153.31 129.419C152.387 129.3 151.11 130.279 150.643 130.974C150.176 131.668 150.062 132.595 149.73 133.388C149.094 134.752 147.948 135.813 146.539 136.346C145.833 136.635 145.094 136.835 144.339 136.941C145.615 132.985 148.265 129.613 151.811 127.435C155.357 125.256 159.566 124.414 163.679 125.06C167.792 125.707 171.538 127.799 174.242 130.959C176.947 134.12 178.431 138.141 178.429 142.298L178.434 142.34Z" fill="black"/>
<path d="M150.649 130.533C150.177 131.253 150.068 132.15 149.736 132.942C149.1 134.305 147.957 135.366 146.55 135.9C145.151 136.423 143.669 136.686 142.176 136.677C139.758 136.75 137.06 136.382 135.503 134.533C136.07 134.094 136.546 133.548 136.902 132.926C137.258 132.303 137.488 131.617 137.578 130.906C137.713 129.798 137.532 128.56 138.191 127.653C138.526 127.256 138.926 126.918 139.374 126.653C142.082 124.788 144.22 122.229 146.669 120.032C149.118 117.836 152.07 115.924 155.36 115.821C159.765 115.686 163.662 118.784 168.02 119.369C169.359 119.551 170.739 119.488 172.047 119.825C173.518 120.282 174.902 120.982 176.141 121.897C177.261 122.546 178.252 123.396 179.062 124.405C179.621 125.286 180.023 126.257 180.25 127.275C180.824 129.424 181.172 131.627 181.288 133.849C181.407 136.17 181.288 138.511 181.537 140.822C181.786 143.132 182.523 145.484 184.105 147.194C182.951 147.558 181.769 147.83 180.572 148.007C179.823 148.185 179.037 148.123 178.325 147.831C177.749 147.465 177.277 146.956 176.955 146.355L174.522 142.625C173.89 141.506 173.05 140.517 172.047 139.713C171.009 138.978 169.536 138.677 168.415 139.33C167.429 139.91 166.952 141.096 166.858 142.236C166.828 143.38 166.857 144.525 166.946 145.666C166.988 146.102 166.876 146.54 166.63 146.904C166.26 147.234 165.782 147.418 165.286 147.422L163.729 147.634C163.589 147.684 163.44 147.704 163.291 147.695C163.142 147.686 162.997 147.647 162.863 147.581C162.73 147.515 162.611 147.423 162.514 147.31C162.417 147.197 162.343 147.066 162.297 146.924C161.005 144.583 160.113 141.687 157.69 140.563C156.195 139.869 154.224 139.915 153.264 138.579C152.61 137.667 152.698 136.429 152.89 135.32C153.101 134.07 153.405 132.837 153.798 131.632C154.073 130.782 154.686 129.088 153.326 128.912C152.392 128.813 151.116 129.792 150.649 130.533Z" fill="#444053"/>
<path opacity="0.1" d="M190.155 171.496C191.468 171.314 192.848 171.195 194.078 171.698C190.876 170.387 185.667 170.889 182.751 172.692C183.016 173.298 189.138 171.635 190.155 171.496Z" fill="black"/>
<path opacity="0.1" d="M191.686 175.743C194.877 175.956 198.172 176.401 201.197 175.365C198.665 174.495 195.878 175.044 193.211 174.78C191.084 174.568 188.92 173.832 186.845 174.371C185.978 174.593 182.787 176.059 183.005 177.132C185.73 175.928 188.721 175.45 191.686 175.743Z" fill="black"/>
<path opacity="0.1" d="M183.233 182.706C183.901 182.636 184.577 182.706 185.215 182.913C187.609 183.476 190.062 183.745 192.521 183.716C194.399 183.716 196.423 183.431 197.793 182.162L183.233 182.706Z" fill="black"/>
<path opacity="0.1" d="M172.955 198.916C175.186 199.939 177.64 200.384 180.089 200.211C182.528 200.032 184.938 199.569 187.27 198.833C188.308 198.527 189.439 198.144 190.046 197.243L172.955 198.916Z" fill="black"/>
<path opacity="0.1" d="M195.925 201.195C200.78 203.967 206.187 205.639 211.761 206.091C208.949 204.965 206.116 203.9 203.262 202.895C200.343 201.873 197.351 201.073 194.312 200.501C194.889 200.626 195.438 200.862 195.925 201.195Z" fill="black"/>
<path opacity="0.1" d="M203.765 198.227C204.74 198.389 205.73 198.443 206.717 198.388C207.236 198.388 207.854 198.315 208.16 197.869C205.934 197.963 203.739 197.393 201.565 196.901C200.948 196.756 199.837 196.414 199.318 196.782C200.304 197.486 202.52 197.978 203.765 198.227Z" fill="black"/>
<path opacity="0.1" d="M217.147 244.504C218.314 246.504 219.497 248.525 221.111 250.203C222.043 251.118 223.037 251.97 224.084 252.752C222.159 247.851 220.203 242.909 217.121 238.625C216.342 237.547 215.18 236.003 213.764 235.806C213.359 237.003 214.381 239.122 214.874 240.246C215.551 241.707 216.309 243.129 217.147 244.504Z" fill="black"/>
<path opacity="0.1" d="M160.419 207.857C160.331 208.686 160.263 209.603 160.746 210.282C160.985 210.617 161.334 210.857 161.732 210.961C161.483 210.898 161.213 208.464 161.151 208.132C161.036 207.453 161.151 206.184 160.668 205.682C160.544 206.397 160.497 207.132 160.419 207.857Z" fill="black"/>
<path opacity="0.1" d="M163.117 206.904C163.288 207.634 163.607 208.321 164.053 208.924C164.499 209.527 165.063 210.033 165.711 210.412C164.803 209.293 164.508 207.821 163.719 206.593C163.465 206.2 163.169 205.635 162.681 205.557C162.804 206.013 162.949 206.463 163.117 206.904Z" fill="black"/>
<path opacity="0.1" d="M160.834 191.985C160.068 192.439 159.217 192.731 158.333 192.843C157.449 192.954 156.552 192.882 155.697 192.632C155.308 192.518 154.4 192.114 154.618 191.544C154.836 190.974 155.889 191.368 156.32 191.42L158.577 191.705C158.992 191.757 160.497 192.181 160.834 191.985Z" fill="black"/>
<path opacity="0.1" d="M153.196 195.673C154.26 195.538 155.215 196.274 156.211 196.673C157.313 197.04 158.475 197.194 159.635 197.129C160.217 197.129 160.876 197.082 161.234 196.611C158.53 195.994 156.003 195.316 153.196 195.673Z" fill="black"/>
<path d="M166.022 164.522H166.194L167.465 169.087L166.022 170.62V164.522Z" fill="#A36468"/>
<g opacity="0.1">
<path d="M137.91 128.337C137.753 129.077 137.674 129.833 137.677 130.59C137.741 130.352 137.788 130.11 137.817 129.865C137.879 129.368 137.874 128.844 137.91 128.337Z" fill="black"/>
<path d="M153.388 128.927C153.514 128.935 153.637 128.968 153.749 129.025C153.861 129.082 153.961 129.162 154.041 129.259C154.121 129.357 154.179 129.47 154.214 129.591C154.248 129.712 154.256 129.839 154.239 129.963C154.483 129.103 154.618 128.047 153.559 127.891C152.636 127.777 151.359 128.756 150.892 129.471C150.425 130.186 150.311 131.093 149.979 131.885C149.345 133.249 148.201 134.311 146.793 134.843C145.395 135.366 143.912 135.63 142.419 135.621C140.219 135.688 137.786 135.382 136.193 133.932C136.002 134.134 135.795 134.321 135.575 134.491C137.132 136.341 139.83 136.708 142.253 136.636C143.745 136.644 145.225 136.381 146.622 135.859C148.031 135.325 149.175 134.264 149.813 132.901C150.145 132.108 150.249 131.212 150.721 130.492C151.193 129.772 152.464 128.813 153.388 128.927Z" fill="black"/>
<path d="M180.795 146.987C180.046 147.164 179.26 147.102 178.548 146.81C177.973 146.443 177.501 145.935 177.178 145.334C176.369 144.091 175.557 142.847 174.745 141.604C174.116 140.484 173.278 139.496 172.275 138.693C171.237 137.952 169.758 137.657 168.643 138.309C167.652 138.889 167.174 140.076 167.06 141.216C167.06 141.262 167.06 141.309 167.06 141.355C167.248 140.52 167.756 139.79 168.477 139.325C169.582 138.672 171.071 138.972 172.109 139.708C173.11 140.514 173.95 141.502 174.584 142.619C175.393 143.863 176.204 145.106 177.017 146.349C177.337 146.952 177.809 147.461 178.387 147.826C179.097 148.118 179.881 148.179 180.628 148.002C181.828 147.824 183.011 147.552 184.167 147.189C183.939 146.942 183.728 146.681 183.534 146.406C182.634 146.657 181.719 146.851 180.795 146.987Z" fill="black"/>
<path d="M166.842 145.883C166.472 146.209 165.997 146.393 165.504 146.401L163.947 146.614C163.806 146.663 163.657 146.684 163.509 146.675C163.36 146.665 163.214 146.627 163.081 146.561C162.947 146.494 162.829 146.402 162.731 146.289C162.634 146.177 162.561 146.046 162.515 145.904C161.223 143.562 160.33 140.666 157.907 139.542C156.413 138.848 154.446 138.895 153.487 137.558C152.999 136.742 152.835 135.774 153.025 134.844C152.999 135.004 152.962 135.16 152.937 135.315C152.75 136.424 152.656 137.662 153.315 138.573C154.275 139.91 156.247 139.863 157.736 140.558C160.164 141.682 161.057 144.578 162.349 146.919C162.467 147.213 162.676 147.462 162.946 147.629C163.215 147.719 163.505 147.731 163.781 147.665L165.338 147.453C165.832 147.448 166.308 147.264 166.676 146.935C166.925 146.572 167.037 146.134 166.993 145.697C166.947 145.763 166.897 145.825 166.842 145.883Z" fill="black"/>
</g>
<path d="M381.597 268.039L378.271 267.578V218.555L378.951 218.762L381.026 219.4V221.031V222.259V224.119L381.052 226.248L381.099 230.631V231.071V231.657V232.9V233.651V235.47V236.609L381.348 258.683V259.274L381.436 267.045V267.164L381.597 268.039Z" fill="#EAECF0"/>
<path d="M383.465 268.299L381.613 268.04V267.154V267.035L381.524 259.264V258.673L381.275 236.599V235.459V233.641V232.89V231.646V231.061V230.621L381.229 226.238L381.203 224.109V222.249V221.021V219.389H383.2V221.192V222.425V223.845V225.725L383.242 230.46V231.496V232.579V233.335V234.263V235.47L383.434 258.637V259.233L383.496 266.936V267.06L383.465 268.299Z" fill="#D3DAE1"/>
<path d="M585.305 212.479V254.793C584.319 255.484 583.309 256.162 582.275 256.829L582.233 221.601V217.861L585.305 212.479Z" fill="#EAECF0"/>
<path d="M587.464 211.867V253.156C586.758 253.721 586.037 254.264 585.305 254.798V212.478L587.464 211.867Z" fill="#D3DAE1"/>
<path d="M539.281 271.832C538.005 272.091 536.723 272.35 535.442 272.572L535.395 234.283V232.625L539.094 231.071V234.584L539.281 271.832Z" fill="#EAECF0"/>
<path d="M541.72 229.859V271.303C540.911 271.479 540.101 271.645 539.292 271.821L539.121 234.589V231.077L539.364 230.963L541.72 229.859Z" fill="#D3DAE1"/>
<path d="M321.797 260.362L318.347 260.015L317.906 216.841V215.608V214.784H321.294V215.898V217.131L321.797 260.362Z" fill="#EAECF0"/>
<path d="M324.366 260.637L321.771 260.362L321.252 217.131V215.898V214.784H323.873V216.126V217.359L324.366 260.637Z" fill="#D3DAE1"/>
<path opacity="0.1" d="M539.338 230.968L541.71 229.854V235.081L539.401 235.853L539.338 230.968Z" fill="black"/>
<path opacity="0.1" d="M587.459 211.857V219.856L585.305 220.576L582.228 221.596L582.223 217.856L585.305 212.473L587.459 211.857Z" fill="black"/>
<path d="M587.458 196.481V218.628L539.401 234.62L539.089 210.935L587.458 196.481Z" fill="#D48A9B"/>
<path d="M317.268 194.943L380.424 182.945L587.458 196.481L539.089 210.935L317.268 194.943Z" fill="#EFC6CD"/>
<path opacity="0.1" d="M323.894 214.784L323.915 217.353L321.299 217.126L317.901 216.835L317.885 214.784H323.894Z" fill="black"/>
<path opacity="0.1" d="M383.071 222.43L381.073 222.254L378.271 222.016V218.555L381.042 219.394H383.045L383.071 222.43Z" fill="black"/>
<path d="M317.268 194.943V215.551L539.401 234.62L539.089 210.935L317.268 194.943Z" fill="#D48A9B"/>
<path d="M493.393 219.446H464.377V208.935L493.393 210.976V219.446Z" fill="#D48A9B"/>
<path opacity="0.1" d="M493.393 219.446H464.377V208.935L493.393 210.976V219.446Z" fill="black"/>
<path opacity="0.1" d="M425.405 206.63V223.239L536.781 231.698V214.012L493.341 211.551L489.024 215.395L471.31 214.168L464.995 209.552L425.405 206.63Z" fill="black"/>
<path d="M424.788 206.013V222.627L536.163 231.082V213.395L492.723 210.935L488.411 214.784L470.692 213.551L464.377 208.935L424.788 206.013Z" fill="white"/>
<path d="M356.084 201.553L382.427 203.402L382.121 211.758H364.921L353.417 207.246L356.084 201.553Z" fill="#D48A9B"/>
<path opacity="0.1" d="M356.084 201.553L382.427 203.402L382.121 211.758H364.921L353.417 207.246L356.084 201.553Z" fill="black"/>
<path opacity="0.1" d="M320.967 199.248V214.167L422.017 222.166V206.324L383.045 204.014L378.883 207.091L363.172 206.169L356.702 202.169L320.967 199.248Z" fill="black"/>
<path d="M320.35 198.631V213.551L421.399 221.55V205.708L382.427 203.402L378.271 206.474L362.554 205.552L356.084 201.553L320.35 198.631Z" fill="white"/>
<path opacity="0.1" d="M536.791 198.688L550.956 199.615L527.487 206.63L515.533 205.77L536.791 198.688Z" fill="black"/>
<path d="M536.791 198.077L550.956 198.999L527.487 206.013L515.533 205.153L536.791 198.077Z" fill="white"/>
<path d="M535.1 199.667C535.66 199.424 536.257 199.874 536.853 199.988C537.191 200.056 537.543 199.988 537.891 200.056C538.586 200.149 539.271 200.61 539.936 200.377L535.1 199.667Z" fill="#D3DAE1"/>
<path d="M534.368 200.087C534.923 199.849 535.52 200.299 536.116 200.413C536.459 200.475 536.812 200.413 537.154 200.475C537.844 200.569 538.534 201.035 539.198 200.802L534.368 200.087Z" fill="#D3DAE1"/>
<path d="M532.687 200.936C533.242 200.698 533.838 201.143 534.435 201.257C534.778 201.325 535.125 201.257 535.473 201.325C536.168 201.418 536.858 201.884 537.517 201.646L532.687 200.936Z" fill="#D3DAE1"/>
<path opacity="0.1" d="M441.22 190.928L472.804 192.995L466.074 202.646L431.352 198.942L441.22 190.928Z" fill="black"/>
<path d="M440.603 190.311L472.187 192.373L465.457 202.029L430.729 198.325L440.603 190.311Z" fill="#3A3768"/>
<path d="M441.993 191.021L469.54 192.705L463.672 200.569L433.385 197.548L441.993 191.021Z" fill="#D5E1F4"/>
<path d="M423.522 269.889C423.522 270.034 423.522 270.184 423.496 270.329C423.47 270.474 423.496 270.588 423.454 270.718C423.344 271.631 423.09 272.521 422.702 273.355C409.652 271.888 396.572 270.127 383.475 268.319L381.623 268.06L378.297 267.599L375.495 267.211C372.428 267.134 369.37 266.848 366.342 266.356C364.434 266.074 362.546 265.676 360.686 265.164C352.385 264.03 344.036 262.937 335.713 261.942L334.629 261.812C334.826 260.932 334.992 260.398 334.992 260.398C334.992 260.398 336.777 253.394 338.261 245.566C338.588 243.867 338.899 242.137 339.169 240.422C339.387 239.049 339.584 237.692 339.75 236.386C339.844 235.666 339.921 234.962 339.989 234.273C340.025 233.931 340.056 233.589 340.082 233.237C340.108 232.884 340.139 232.501 340.165 232.144C340.191 231.786 340.202 231.47 340.217 231.144V230.657C340.217 229.957 340.217 229.227 340.191 228.476C339.929 224.734 339.338 221.023 338.427 217.384C338.282 216.763 338.131 216.141 337.976 215.535C337.929 215.338 337.877 215.146 337.825 214.955C336.149 208.474 334.193 203.179 334.193 203.179C334.191 203.15 334.191 203.121 334.193 203.091C334.195 203.071 334.195 203.05 334.193 203.029C334.195 202.986 334.195 202.943 334.193 202.9C334.193 202.734 334.193 202.48 334.193 202.174C334.193 202.112 334.193 202.045 334.193 201.978C334.231 201.434 334.325 200.896 334.473 200.372C334.53 200.185 334.596 200.002 334.67 199.822C334.856 199.301 335.165 198.833 335.572 198.457C335.978 198.082 336.47 197.811 337.005 197.667C338.474 197.289 340.694 197.667 344.046 199.651C344.592 199.966 345.113 200.323 345.603 200.719C345.852 200.916 346.122 201.123 346.329 201.346C350.169 204.915 352.213 210.805 353.303 216.182C353.345 216.374 353.381 216.566 353.417 216.758C353.547 217.421 353.656 218.068 353.754 218.705C353.931 219.824 354.071 220.902 354.175 221.902C354.175 222.171 354.232 222.42 354.258 222.694C354.284 222.969 354.31 223.212 354.325 223.461C354.393 224.269 354.439 225.015 354.47 225.647C354.559 227.326 354.543 228.357 354.543 228.357V228.408C354.543 228.408 354.543 228.486 354.517 228.631C354.514 228.645 354.514 228.659 354.517 228.673C354.517 228.735 354.517 228.813 354.517 228.901C354.517 228.989 354.517 229.051 354.517 229.139C354.496 229.357 354.47 229.61 354.439 229.9C354.393 230.346 354.341 230.869 354.278 231.455C354.237 231.89 354.185 232.361 354.133 232.859C354.019 233.895 353.895 235.097 353.76 236.361C353.728 236.599 353.703 236.837 353.677 237.075C353.557 238.158 353.433 239.288 353.303 240.427C353.163 241.722 353.007 243.018 352.857 244.297C352.82 244.577 352.784 244.857 352.753 245.131C352.369 248.239 351.985 251.063 351.674 252.819C351.625 253.079 351.59 253.342 351.57 253.606C351.565 253.696 351.565 253.786 351.57 253.876C351.554 254.11 351.554 254.346 351.57 254.58C351.824 259.005 356.613 259.761 356.613 259.761L378.359 259.331L381.587 259.269L383.465 259.233L400.416 258.896L401.973 258.865L410.405 258.699C410.977 258.686 411.548 258.754 412.101 258.901C414.705 259.599 417.188 260.684 419.469 262.118C420.182 262.575 420.823 263.133 421.373 263.776C421.4 263.801 421.425 263.829 421.446 263.859C422.596 265.235 423.306 266.924 423.485 268.708C423.485 268.827 423.485 268.946 423.485 269.065C423.527 269.314 423.527 269.594 423.522 269.889Z" fill="#3A3768"/>
<path opacity="0.1" d="M423.522 269.889C423.522 270.034 423.522 270.184 423.496 270.329C423.47 270.474 423.496 270.588 423.454 270.718C423.331 271.631 423.068 272.52 422.676 273.355C409.627 271.889 396.546 270.127 383.45 268.319L381.597 268.06L378.271 267.599L375.469 267.211C372.403 267.134 369.345 266.848 366.317 266.356C364.409 266.074 362.52 265.676 360.661 265.164C352.359 264.03 344.01 262.937 335.688 261.942L334.603 261.812C334.8 260.901 334.977 260.346 334.977 260.346C334.977 260.346 336.435 254.648 337.82 247.742C337.919 247.266 338.012 246.789 338.106 246.307L338.246 245.577C338.567 243.883 338.879 242.142 339.154 240.432C339.372 239.06 339.569 237.702 339.735 236.397C339.828 235.677 339.906 234.972 339.974 234.283C340.01 233.941 340.041 233.599 340.067 233.247C340.093 232.895 340.124 232.511 340.15 232.154C340.176 231.797 340.186 231.481 340.202 231.154V230.667C340.202 229.968 340.202 229.237 340.176 228.486C339.921 224.745 339.336 221.033 338.427 217.395C338.282 216.766 338.132 216.15 337.976 215.545C337.924 215.348 337.877 215.157 337.825 214.965C336.144 208.464 334.193 203.138 334.193 203.138C334.195 203.126 334.195 203.114 334.193 203.102C334.196 203.081 334.196 203.06 334.193 203.04C334.196 202.996 334.196 202.953 334.193 202.91C334.193 202.744 334.193 202.49 334.193 202.185C334.193 202.123 334.193 202.055 334.193 201.988C334.226 201.445 334.315 200.907 334.458 200.382C334.515 200.201 334.577 200.014 334.65 199.833C334.837 199.283 335.16 198.79 335.591 198.399C336.021 198.008 336.543 197.734 337.109 197.6C338.578 197.258 340.773 197.683 344.052 199.6C344.62 199.933 345.162 200.311 345.671 200.729C345.915 200.931 346.148 201.133 346.376 201.351C350.185 204.941 352.214 210.821 353.293 216.183C353.334 216.374 353.371 216.571 353.407 216.763C353.537 217.421 353.646 218.073 353.744 218.705C353.921 219.824 354.056 220.897 354.159 221.891C354.185 222.166 354.217 222.435 354.237 222.694C354.258 222.953 354.289 223.212 354.305 223.461C354.372 224.269 354.419 225.015 354.45 225.647C354.538 227.326 354.523 228.357 354.523 228.357V228.533C354.523 228.564 354.523 228.595 354.523 228.631C354.52 228.645 354.52 228.659 354.523 228.673C354.523 228.735 354.523 228.813 354.523 228.901C354.523 228.989 354.523 229.051 354.523 229.139C354.502 229.357 354.476 229.61 354.445 229.901C354.398 230.346 354.346 230.869 354.284 231.455C354.232 231.885 354.185 232.356 354.133 232.859C354.019 233.895 353.895 235.097 353.76 236.361C353.729 236.599 353.703 236.837 353.677 237.075C353.558 238.158 353.428 239.298 353.303 240.438C353.153 241.733 353.002 243.028 352.847 244.302C352.81 244.582 352.779 244.862 352.743 245.136C352.364 248.245 351.985 251.027 351.674 252.772C351.623 253.052 351.588 253.334 351.57 253.617C351.565 253.707 351.565 253.797 351.57 253.886C351.555 254.121 351.555 254.356 351.57 254.591C351.866 258.963 356.614 259.694 356.614 259.694L378.359 259.269L381.582 259.201L383.465 259.165L400.448 258.834L402.035 258.803L410.436 258.637C411.009 258.618 411.581 258.686 412.133 258.839C414.756 259.518 417.259 260.592 419.558 262.025C420.283 262.488 420.933 263.057 421.488 263.714C421.515 263.739 421.539 263.767 421.561 263.797C422.71 265.179 423.412 266.877 423.574 268.666C423.574 268.785 423.574 268.905 423.574 269.024C423.527 269.314 423.527 269.594 423.522 269.889Z" fill="black"/>
<path d="M423.558 273.432L422.702 273.334C409.652 271.868 396.572 270.106 383.475 268.298L381.623 268.039L378.297 267.578L375.495 267.19C372.428 267.113 369.37 266.827 366.342 266.335C364.435 266.053 362.546 265.655 360.687 265.144C352.385 264.009 344.036 262.916 335.713 261.921C335.849 261.194 336.022 260.475 336.232 259.766C336.232 259.766 341.162 240.386 341.468 230.082C341.577 226.399 340.845 221.84 339.854 217.493C339.709 216.866 339.563 216.245 339.408 215.633L339.268 215.053C337.509 208.241 335.418 202.542 335.418 202.542C335.369 201.837 335.409 201.129 335.537 200.434C335.569 200.247 335.611 200.062 335.662 199.879C335.861 199.011 336.329 198.228 337 197.642C337.031 197.614 337.064 197.59 337.099 197.569C338.463 196.533 340.913 196.46 345.271 199.009C346.154 199.529 346.971 200.154 347.705 200.869C347.912 201.066 348.12 201.273 348.317 201.485C351.819 205.272 353.677 211.075 354.652 216.265L354.761 216.84C354.875 217.488 354.974 218.125 355.067 218.742C355.067 218.742 355.067 218.778 355.067 218.794C355.187 219.612 355.285 220.394 355.368 221.14C355.611 223.337 355.736 225.546 355.742 227.756C355.742 227.756 355.539 229.802 355.223 232.75C355.104 233.905 354.964 235.2 354.813 236.568C354.813 236.635 354.813 236.703 354.813 236.775L354.735 237.5C354.471 239.889 354.18 242.437 353.884 244.8C353.853 245.09 353.817 245.375 353.78 245.654C353.448 248.312 353.116 250.674 352.841 252.213C351.762 258.212 357.771 259.134 357.771 259.134L378.287 258.73L381.504 258.668L383.387 258.626H384.176H384.43L400.702 258.305H402.258L411.598 258.119C412.171 258.104 412.742 258.174 413.295 258.326C415.919 259.005 418.424 260.077 420.725 261.507C421.37 261.923 421.958 262.421 422.474 262.988C422.506 263.021 422.535 263.055 422.562 263.092C423.781 264.5 424.533 266.251 424.711 268.104C424.89 269.956 424.487 271.819 423.558 273.432Z" fill="#3A3768"/>
<path d="M496.906 179.79L503.251 193.362H502.188L494.747 179.95L496.906 179.79Z" fill="#4C4C56"/>
<path opacity="0.1" d="M496.906 179.79L503.251 193.362H502.188L494.747 179.95L496.906 179.79Z" fill="black"/>
<path d="M496.905 193.363H503.251V194.782L496.905 194.943V193.363Z" fill="#4C4C56"/>
<path opacity="0.1" d="M496.905 193.363H503.251V194.782L496.905 194.943V193.363Z" fill="black"/>
<path d="M447.545 129.844V177.241C447.545 178.174 447.917 179.068 448.577 179.728C449.238 180.388 450.134 180.758 451.069 180.758H530.196C530.662 180.758 531.123 180.666 531.552 180.486C531.981 180.306 532.371 180.042 532.697 179.71C533.023 179.378 533.279 178.985 533.451 178.553C533.623 178.121 533.707 177.659 533.698 177.194L532.801 129.756C532.783 128.84 532.406 127.968 531.751 127.327C531.097 126.686 530.216 126.326 529.298 126.327H451.069C450.606 126.327 450.148 126.418 449.72 126.594C449.293 126.771 448.904 127.03 448.577 127.357C448.25 127.684 447.991 128.071 447.814 128.498C447.637 128.925 447.545 129.382 447.545 129.844Z" fill="#4C4C56"/>
<path opacity="0.1" d="M447.545 129.844V177.241C447.545 178.174 447.917 179.068 448.577 179.728C449.238 180.388 450.134 180.758 451.069 180.758H530.196C530.662 180.758 531.123 180.666 531.552 180.486C531.981 180.306 532.371 180.042 532.697 179.71C533.023 179.378 533.279 178.985 533.451 178.553C533.623 178.121 533.707 177.659 533.698 177.194L532.801 129.756C532.783 128.84 532.406 127.968 531.751 127.327C531.097 126.686 530.216 126.326 529.298 126.327H451.069C450.606 126.327 450.148 126.418 449.72 126.594C449.293 126.771 448.904 127.03 448.577 127.357C448.25 127.684 447.991 128.071 447.814 128.498C447.637 128.925 447.545 129.382 447.545 129.844Z" fill="black"/>
<path d="M444.691 129.844V177.241C444.691 178.174 445.063 179.068 445.723 179.728C446.384 180.388 447.28 180.758 448.215 180.758H527.342C527.808 180.758 528.268 180.666 528.697 180.486C529.126 180.306 529.515 180.042 529.841 179.71C530.167 179.378 530.423 178.985 530.594 178.553C530.766 178.121 530.849 177.659 530.839 177.194L529.942 129.756C529.924 128.841 529.548 127.97 528.894 127.329C528.24 126.688 527.361 126.328 526.444 126.327H448.235C447.771 126.324 447.311 126.413 446.881 126.589C446.451 126.764 446.06 127.023 445.731 127.35C445.401 127.677 445.14 128.065 444.962 128.493C444.783 128.921 444.691 129.381 444.691 129.844Z" fill="#4C4C56"/>
<path d="M447.805 132.808V174.537C447.805 175.47 448.176 176.364 448.837 177.024C449.497 177.684 450.393 178.054 451.328 178.054H524.597C525.526 178.054 526.417 177.686 527.074 177.03C527.731 176.374 528.1 175.485 528.1 174.557V132.782C528.098 131.855 527.729 130.967 527.072 130.312C526.415 129.658 525.525 129.29 524.597 129.29H451.328C450.393 129.29 449.497 129.661 448.837 130.32C448.176 130.98 447.805 131.875 447.805 132.808Z" fill="#F12711"/>
<path d="M479.508 179.981L486.466 193.362H502.188L494.327 178.054L479.508 179.981Z" fill="#4C4C56"/>
<path d="M473.966 193.363L472.804 194.782H496.905V193.363H473.966Z" fill="#4C4C56"/>
<path d="M370.71 137.451C371.135 139.745 371.561 142.042 372.341 144.231C372.345 144.246 372.35 144.261 372.356 144.277C372.364 144.298 372.373 144.322 372.382 144.355C372.284 144.32 372.194 144.265 372.117 144.194C371.964 144.031 371.852 143.834 371.791 143.619C370.998 141.414 370.566 139.105 370.135 136.802C369.609 133.993 369.084 131.192 367.909 128.596C367.569 127.925 367.273 127.233 367.022 126.524C366.974 126.374 366.935 126.222 366.903 126.068L367.022 125.995L367.152 125.943L367.282 125.907L367.411 125.876C367.439 126.334 367.519 126.788 367.65 127.228C367.899 127.936 368.192 128.628 368.527 129.3C369.677 131.878 370.193 134.662 370.71 137.451Z" fill="url(#paint1_linear_264_787)"/>
<path d="M389.691 146.956C388.874 147.874 388.203 148.912 387.699 150.033C387.621 150.204 387.543 150.37 387.471 150.551C385.177 155.731 384.399 163.062 384.399 163.062C384.399 163.062 382.977 162.425 380.964 161.43C377.213 159.575 371.422 156.488 369.082 154.027C368.044 152.913 367.671 151.929 368.532 151.24C368.719 151.09 368.911 150.919 369.103 150.722C369.766 150.06 370.372 149.342 370.914 148.577C371.661 147.541 372.398 146.386 373.093 145.199C373.503 144.505 373.892 143.806 374.255 143.127L374.4 142.858C375.957 139.91 377.093 137.392 377.093 137.392C377.093 137.392 377.612 137.558 378.453 137.853C382.329 139.237 393.002 143.438 389.691 146.956Z" fill="#EFB7B9"/>
<path d="M460.714 266.983C460.714 266.983 461.347 271.676 462.152 276.629L460.31 276.535C455.384 276.28 450.453 275.954 445.517 275.556C442.715 269.076 439.809 261.382 439.809 261.263C439.809 261.144 439.721 258.611 439.622 255.782C439.591 254.788 439.555 253.762 439.524 252.798C439.472 251.337 439.425 250.022 439.399 249.203C439.399 248.644 439.368 248.312 439.368 248.312C439.368 248.312 436.701 248.778 434.304 249.105L433.24 249.245C432.69 249.312 432.203 249.364 431.762 249.395C431.382 249.453 430.995 249.453 430.615 249.395C429.795 249.079 431.497 241.106 431.497 241.106L435.731 230.874L436.914 228.025L437.433 227.896C437.687 227.834 438.029 227.761 438.439 227.683C442.481 226.942 453.279 226 455.111 236.64C457.378 249.783 457.705 252.736 457.705 252.736L460.714 266.983Z" fill="#EFB7B9"/>
<path opacity="0.05" d="M460.714 266.983C460.714 266.983 461.347 271.676 462.152 276.629L460.31 276.535C455.384 276.28 450.453 275.954 445.517 275.556C442.715 269.076 439.809 261.382 439.809 261.263C439.809 261.144 439.721 258.611 439.622 255.782C439.591 254.788 439.555 253.762 439.524 252.798C439.472 251.337 439.425 250.022 439.399 249.203C439.399 248.644 439.368 248.312 439.368 248.312C439.368 248.312 436.701 248.778 434.304 249.105L433.24 249.245C432.69 249.312 432.203 249.364 431.762 249.395C431.382 249.453 430.995 249.453 430.615 249.395C429.795 249.079 431.497 241.106 431.497 241.106L435.731 230.874L436.914 228.025L437.433 227.896C437.687 227.834 438.029 227.761 438.439 227.683C442.481 226.942 453.279 226 455.111 236.64C457.378 249.783 457.705 252.736 457.705 252.736L460.714 266.983Z" fill="black"/>
<path d="M460.309 276.536C455.384 276.28 450.453 275.954 445.516 275.556L443.648 275.406L442.823 275.339C440.499 269.739 438.434 264.263 438.434 264.165C438.434 264.066 438.346 261.512 438.247 258.684C438.128 255.15 437.993 251.213 437.993 251.213L437.645 251.27L437.5 251.296H437.438H437.313L436.478 251.436L436.021 251.509C435.196 251.643 434.2 251.793 433.224 251.933L433.006 251.964L432.436 252.037L431.917 252.099C431.517 252.151 431.139 252.192 430.796 252.223L430.376 252.26C429.996 252.32 429.609 252.32 429.229 252.26C428.409 251.944 430.111 243.971 430.111 243.971L435.528 230.89L435.715 230.838C436 230.766 436.602 230.626 437.417 230.486C437.723 230.434 438.06 230.382 438.423 230.336C443.124 229.735 452.07 229.906 453.725 239.505C455.992 252.648 456.319 255.601 456.319 255.601L459.344 269.889C459.344 269.889 459.739 272.842 460.309 276.536Z" fill="#EFB7B9"/>
<path opacity="0.1" d="M438.247 258.684C438.128 255.15 437.993 251.208 437.993 251.208C437.993 251.208 432.804 252.115 430.386 252.291L430.874 250.643C430.874 250.643 439.757 248.193 439.944 249.576C440.079 250.545 438.937 255.694 438.247 258.684Z" fill="black"/>
<path opacity="0.1" d="M438.434 227.657V231.403C438.434 231.403 437.993 238.138 434.527 248.442C434.455 248.664 434.377 248.882 434.294 249.1C433.93 250.091 433.5 251.057 433.007 251.99C432.031 252.125 431.087 252.239 430.387 252.291C430.007 252.349 429.62 252.349 429.24 252.291C428.42 251.975 430.117 244.002 430.117 244.002L435.534 230.926L435.726 230.875L436.904 228.02C436.904 228.02 437.485 227.834 438.434 227.657Z" fill="black"/>
<path d="M437.427 227.067V231.403C437.427 231.403 436.986 238.138 433.52 248.447C433.432 248.716 433.334 248.965 433.235 249.239C433.136 249.514 433.007 249.84 432.877 250.13C432.592 250.82 432.27 251.488 431.933 252.13C429.219 257.264 425.084 260.937 422.458 262.957C422.074 263.253 421.716 263.512 421.42 263.729H421.394C420.875 264.082 420.502 264.335 420.263 264.486C420.025 264.636 420.004 264.646 420.004 264.646C417.544 263.139 410.555 262.885 410.555 262.885L394.242 265.843C390.676 266.456 387.078 266.864 383.465 267.066L381.613 267.154C380.544 267.195 379.433 267.221 378.297 267.226C377.379 267.226 376.445 267.226 375.495 267.19C372.428 267.113 369.37 266.827 366.342 266.335C364.677 266.062 363.028 265.697 361.403 265.242C360.244 264.921 359.103 264.541 357.983 264.102C346.568 259.626 349.541 249.012 351.466 244.416C351.57 244.173 351.669 243.95 351.762 243.743C352.188 242.805 352.504 242.256 352.504 242.256L353.262 240.427L354.502 237.428L354.777 236.77L354.855 236.578L355.773 234.356L368.745 232.677L378.276 231.444L381.177 231.071L383.143 230.818L386.895 230.331L388.306 230.149C389.177 230.014 390.056 229.945 390.937 229.942C391.413 229.92 391.889 229.99 392.338 230.149C393.375 230.621 401.283 229.331 401.283 229.331C401.283 229.331 407.452 227.445 412.869 228.072C415.548 228.257 418.236 228.274 420.917 228.124L421.581 228.093L422.442 228.056H422.629C429.644 227.73 437.427 227.067 437.427 227.067Z" fill="#444053"/>
<path opacity="0.1" d="M390.755 240.08C390.755 240.08 384.529 254.228 384.269 254.477C384.01 254.726 384.02 259.139 384.269 258.88C384.518 258.621 393.152 239.516 393.152 239.516L390.755 240.08Z" fill="black"/>
<path opacity="0.1" d="M420.922 228.113C420.922 228.113 417.773 230.144 416.828 231.781C415.884 233.418 407.255 249.701 405.117 252.089C403.342 254.225 401.741 256.5 400.328 258.891C400.079 259.321 400.079 262.025 401.589 259.445C403.099 256.865 402.725 256.43 405.683 253.229C408.64 250.027 411.909 242.79 413.175 241.344C414.441 239.899 416.2 235.558 418.406 232.978L422.629 228.051L420.922 228.113Z" fill="black"/>
<path opacity="0.1" d="M421.68 256.052C421.68 256.052 419.474 254.544 417.399 257.119C415.323 259.694 421.68 256.052 421.68 256.052Z" fill="black"/>
<path opacity="0.1" d="M424.388 256.829C424.388 256.829 422.562 260.01 421.68 260.264C420.798 260.517 424.388 256.829 424.388 256.829Z" fill="black"/>
<path opacity="0.1" d="M421.68 257.622C421.68 257.622 420.232 260.139 418.971 259.885L421.68 257.622Z" fill="black"/>
<path d="M411.484 189.648C411.484 189.648 424.835 189.083 426.158 188.643C427.481 188.203 439.192 186.695 439.192 186.695C439.192 186.695 473.894 189.145 464.009 192.104C454.125 195.062 440.707 193.798 440.707 193.798C440.707 193.798 427.605 197.196 425.592 198.978C423.579 200.76 408.713 200.802 408.713 200.802L411.484 189.648Z" fill="#EFB7B9"/>
<path opacity="0.05" d="M411.484 189.648C411.484 189.648 424.835 189.083 426.158 188.643C427.481 188.203 439.192 186.695 439.192 186.695C439.192 186.695 473.894 189.145 464.009 192.104C454.125 195.062 440.707 193.798 440.707 193.798C440.707 193.798 427.605 197.196 425.592 198.978C423.579 200.76 408.713 200.802 408.713 200.802L411.484 189.648Z" fill="black"/>
<path d="M363.992 159.28C363.992 159.28 351.773 163.424 357.693 173.993C363.613 184.561 371.235 189.534 371.235 189.534L390.885 203.117C390.885 203.117 399.135 207.832 402.912 205.884L409.082 205.366L410.119 189.203C410.119 189.203 404.931 193.228 399.285 187.648C393.64 182.069 386.687 178.277 386.122 175.262C385.556 172.247 371.106 156.7 363.992 159.28Z" fill="#A36468"/>
<path d="M402.596 193.487C402.596 193.487 408.957 195.751 408.708 195.875C408.459 195.999 402.596 198.201 402.596 198.201L403.037 206.816L411.666 206.345C411.666 206.345 414.815 190.658 412.107 189.083L402.596 188.643V193.487Z" fill="#67647E"/>
<path opacity="0.1" d="M402.596 193.487C402.596 193.487 408.957 195.751 408.708 195.875C408.459 195.999 402.596 198.201 402.596 198.201L403.037 206.816L411.666 206.345C411.666 206.345 414.815 190.658 412.107 189.083L402.596 188.643V193.487Z" fill="black"/>
<path opacity="0.1" d="M389.691 146.955C388.874 147.874 388.202 148.912 387.699 150.033C387.621 150.204 387.543 150.369 387.47 150.551C382.837 150.551 379.506 146.955 376.662 143.738C376.144 143.143 374.831 144.044 374.4 143.376C374.353 143.298 374.307 143.22 374.255 143.143L374.4 142.873C375.957 139.925 377.093 137.408 377.093 137.408C377.093 137.408 377.612 137.573 378.453 137.869C382.329 139.236 393.002 143.438 389.691 146.955Z" fill="black"/>
<path d="M403.182 134.445C403.181 138.554 401.555 142.497 398.657 145.416C395.76 148.335 391.825 149.995 387.709 150.033H387.559C385.342 150.034 383.15 149.564 381.13 148.652C379.11 147.741 377.307 146.41 375.843 144.749C375.319 144.155 374.84 143.523 374.411 142.858C373.099 140.818 372.282 138.501 372.024 136.09C371.766 133.68 372.074 131.243 372.924 128.972C373.774 126.701 375.142 124.66 376.92 123.009C378.699 121.358 380.837 120.144 383.168 119.463C385.498 118.781 387.955 118.652 390.344 119.084C392.733 119.516 394.988 120.498 396.93 121.952C398.873 123.406 400.449 125.292 401.535 127.461C402.62 129.629 403.184 132.02 403.182 134.445Z" fill="#EFB7B9"/>
<path opacity="0.1" d="M387.294 231.149C387.294 231.149 386.106 232.6 384.793 233.952C383.802 234.988 382.744 235.936 382.064 236.179C380.508 236.749 373.373 242.153 373.373 242.153C373.373 242.153 367.707 245.991 366.259 247.121C364.812 248.25 359.582 247.561 359.582 247.561C359.582 247.561 354.549 246.463 351.43 244.453C351.733 243.715 352.08 242.995 352.468 242.298L355.742 234.371L368.714 232.698L387.294 231.149Z" fill="black"/>
<path d="M387.04 230.144C387.04 230.144 385.857 231.595 384.544 232.947C383.553 233.983 382.469 234.931 381.815 235.174C380.258 235.739 373.124 241.147 373.124 241.147C373.124 241.147 367.453 244.986 366.005 246.116C364.557 247.245 359.332 246.556 359.332 246.556C359.332 246.556 352.151 245.002 349.629 242.152C347.865 240.168 349.692 236.49 350.937 234.465C351.456 233.599 351.897 233.035 351.897 233.035L387.04 230.144Z" fill="#67647E"/>
<path d="M396.364 181.411C392.078 181.033 377.97 163.797 377.97 163.797L378.292 163.357L381.249 159.27H388.166L388.929 163.041C394.19 170.408 397.288 175.531 398.128 178.463C398.735 180.598 398.159 181.572 396.364 181.411Z" fill="#67647E"/>
<path opacity="0.1" d="M396.364 181.411C392.078 181.033 377.97 163.797 377.97 163.797L378.292 163.357C380.821 165.674 383.197 168.152 385.406 170.775C395.731 182.908 397.775 179.52 398.128 178.463C398.735 180.598 398.159 181.572 396.364 181.411Z" fill="black"/>
<path opacity="0.1" d="M387.04 230.144C387.04 230.144 385.857 231.595 384.544 232.947C383.852 233.214 383.122 233.372 382.38 233.413C380.741 233.351 376.963 235.931 376.963 235.931C376.963 235.931 370.291 235.552 369.03 236.241C367.769 236.93 362.918 237.06 362.918 237.06C354.04 239.588 351.586 235.749 350.937 234.47C351.456 233.605 351.897 233.04 351.897 233.04L387.04 230.144Z" fill="black"/>
<path d="M402.461 192.699C402.461 192.943 402.414 193.186 402.383 193.42C402.352 193.653 402.321 193.891 402.284 194.114C402.117 195.393 401.732 196.635 401.148 197.787C400.017 199.672 396.551 207.029 396.551 207.029L396.317 208.386L396.198 209.096L396.073 209.795L395.228 214.753L394.849 220.477C394.849 220.477 392.773 223.368 391.891 224.622C391.009 225.875 391.134 227.704 391.45 229.025C391.767 230.346 388.555 230.533 388.555 230.533C388.555 230.533 384.02 232.734 382.38 232.672C380.741 232.61 376.963 235.18 376.963 235.18C376.963 235.18 370.291 234.801 369.03 235.496C367.769 236.19 362.918 236.314 362.918 236.314C353.412 239.013 351.269 234.423 350.828 233.48C350.387 232.538 352.717 228.704 352.717 228.704C352.717 228.704 353.236 223.86 354.227 223.482C355.218 223.104 356.432 216.696 356.432 216.696C356.432 216.696 356.053 214.742 356.873 213.675C357.693 212.608 357.63 209.588 358.699 208.143C359.768 206.697 357.568 201.853 357.947 200.595C358.326 199.336 356.748 194.243 356.873 192.922C356.997 191.601 356.562 190.534 355.55 187.892C354.688 185.638 354.932 175.624 355.031 172.754C355.031 172.267 355.057 171.988 355.057 171.988C355.057 171.988 355.939 169.154 358.269 163.497C360.033 159.213 364.002 157.591 365.823 157.063C366.136 156.969 366.453 156.891 366.773 156.83C367.23 156.895 367.678 157.008 368.112 157.166C369.948 157.783 373.622 159.529 378.863 164.419C381.181 166.588 383.37 168.892 385.416 171.319C397.231 185.183 398.196 178.712 398.196 178.712C398.196 178.712 398.714 179.893 401.148 184.607C402.45 187.115 402.689 190.109 402.461 192.699Z" fill="#A36468"/>
<path opacity="0.1" d="M383.008 158.508L371.157 149.069C371.157 149.069 366.887 149.587 365.123 156.747L377.322 167.413L383.008 158.508Z" fill="black"/>
<path d="M383.008 158.508L380.933 161.404L378.826 164.372L377.239 166.698L367.499 158.508L365.823 157.057L364.884 156.26C365.834 152.39 367.52 150.457 368.864 149.525C369.474 149.059 370.185 148.742 370.939 148.598L383.008 158.508Z" fill="#67647E"/>
<path d="M464.507 195.875C454.618 198.828 441.205 197.574 441.205 197.574C441.205 197.574 428.103 200.967 426.09 202.755C424.793 203.889 418.167 204.309 413.637 204.48C411.121 204.573 409.237 204.578 409.237 204.578L412.003 193.425L413.601 193.352C417.186 193.186 425.639 192.762 426.677 192.414C428 191.974 439.711 190.467 439.711 190.467C439.711 190.467 474.392 192.917 464.507 195.875Z" fill="#EFB7B9"/>
<path opacity="0.1" d="M402.285 194.088C402.117 195.368 401.733 196.61 401.148 197.761C400.017 199.647 396.551 207.003 396.551 207.003L396.074 209.795C394.465 209.198 392.904 208.482 391.404 207.65L371.739 194.052C371.739 194.052 364.117 189.083 358.196 178.51C352.276 167.937 364.495 163.797 364.495 163.797C371.609 161.207 386.034 176.749 386.599 179.769C387.165 182.789 394.097 186.561 399.763 192.156C400.51 192.913 401.359 193.563 402.285 194.088Z" fill="black"/>
<path opacity="0.1" d="M402.461 192.699C402.414 193.192 402.357 193.663 402.285 194.114C402.117 195.393 401.733 196.635 401.148 197.787C400.017 199.672 396.551 207.029 396.551 207.029L396.318 208.386C394.617 207.773 392.969 207.025 391.388 206.148L371.739 192.544C371.739 192.544 364.117 187.576 358.196 177.003C352.276 166.429 364.495 162.285 364.495 162.285C371.609 159.694 386.034 175.236 386.599 178.256C387.165 181.276 394.097 185.048 399.763 190.648C400.554 191.463 401.464 192.154 402.461 192.699Z" fill="black"/>
<path d="M410.597 192.984L409.59 209.142L403.416 209.66C403.281 209.731 403.14 209.792 402.996 209.842C399.062 211.282 391.388 206.894 391.388 206.894L371.739 193.295C371.739 193.295 364.117 188.327 358.196 177.753C352.276 167.18 364.495 163.041 364.495 163.041C371.609 160.451 386.034 175.992 386.599 179.012C387.165 182.033 394.097 185.804 399.763 191.399C400.593 192.233 401.549 192.932 402.596 193.471C403.847 194.127 405.254 194.429 406.665 194.343C408.075 194.257 409.435 193.787 410.597 192.984Z" fill="#A36468"/>
<path opacity="0.1" d="M410.597 192.984L409.59 209.142L403.416 209.66C403.28 209.731 403.14 209.792 402.995 209.842L402.596 201.988C402.596 201.988 408.454 199.786 408.708 199.662C408.962 199.538 402.596 197.274 402.596 197.274V193.518C403.851 194.167 405.26 194.461 406.671 194.367C408.081 194.273 409.439 193.795 410.597 192.984Z" fill="black"/>
<path opacity="0.1" d="M413.611 204.454C411.095 204.547 409.211 204.552 409.211 204.552L412.003 193.425L413.601 193.352C414.628 195.119 414.187 200.309 413.611 204.454Z" fill="black"/>
<path d="M403.099 197.258C403.099 197.258 409.46 199.522 409.211 199.647C408.962 199.771 403.099 201.973 403.099 201.973L403.54 210.588L412.169 210.116C412.169 210.116 415.318 194.43 412.61 192.855L403.099 192.415V197.258Z" fill="#67647E"/>
<path opacity="0.1" d="M365.377 207.573C365.377 207.573 363.234 209.583 361.47 210.116L365.377 207.573Z" fill="black"/>
<path opacity="0.1" d="M360.277 213.546C360.277 213.546 365.502 213.354 366.13 212.287C366.758 211.22 360.277 213.546 360.277 213.546Z" fill="black"/>
<path opacity="0.1" d="M357.693 221.026C358.009 221.026 364.303 220.146 364.557 219.327L357.693 221.026Z" fill="black"/>
<path opacity="0.1" d="M355.742 225.808C358.009 225.741 361.849 223.29 361.849 223.29L355.742 225.808Z" fill="black"/>
<path opacity="0.1" d="M370.416 227.062C370.416 227.062 384.083 227.062 384.71 224.549C385.338 222.037 370.416 227.062 370.416 227.062Z" fill="black"/>
<path opacity="0.1" d="M380.679 191.912C380.933 191.912 391.45 191.912 392.457 190.466C393.464 189.021 380.679 191.912 380.679 191.912Z" fill="black"/>
<path opacity="0.1" d="M369.097 150.737C369.183 151.251 369.228 151.771 369.232 152.291C369.232 152.87 369.18 153.447 369.077 154.016C368.869 155.097 368.541 156.152 368.101 157.161L367.992 157.415C367.837 157.777 367.671 158.13 367.499 158.482C366.728 160.052 365.818 161.55 364.78 162.958C362.412 166.098 359.674 168.942 356.624 171.428C356.095 171.874 355.56 172.314 355.021 172.749C355.021 172.262 355.046 171.982 355.046 171.982C355.046 171.982 355.929 169.149 358.258 163.492C360.022 159.207 363.992 157.586 365.813 157.057L364.874 156.26C365.823 152.39 367.51 150.457 368.854 149.525C368.937 149.908 369.035 150.312 369.097 150.737Z" fill="black"/>
<path opacity="0.1" d="M400.899 126.347C400.739 126.387 400.586 126.448 400.443 126.529C399.457 127.073 399.171 128.363 398.367 129.176C397.438 130.134 395.985 130.279 394.662 130.445C393.339 130.611 391.86 130.937 391.16 132.072C390.641 132.916 390.688 133.978 390.501 134.952C390.481 135.127 390.411 135.293 390.299 135.429C390.12 135.573 389.895 135.647 389.666 135.636C387.071 135.817 385.183 134.926 382.754 134.3C381.613 134.009 380.284 134.046 379.413 134.818C378.624 135.527 378.406 136.688 378.427 137.75V137.843C378.539 138.875 378.57 139.914 378.52 140.951C378.401 141.753 378.093 142.516 377.621 143.176C377.149 143.836 376.527 144.375 375.807 144.749C375.201 145.073 374.532 145.264 373.845 145.308C373.58 145.336 373.313 145.297 373.067 145.194C373.529 144.407 373.97 143.64 374.375 142.858C373.249 141.12 372.481 139.176 372.115 137.139C371.749 135.101 371.793 133.012 372.244 130.992C372.695 128.972 373.544 127.062 374.742 125.373C375.94 123.683 377.462 122.249 379.221 121.153C380.979 120.058 382.939 119.322 384.985 118.99C387.031 118.658 389.123 118.735 391.138 119.218C393.154 119.701 395.053 120.58 396.726 121.803C398.398 123.026 399.809 124.569 400.878 126.342L400.899 126.347Z" fill="black"/>
<path d="M405.174 124.358C404.984 124.782 404.685 125.149 404.308 125.42C403.125 126.187 401.428 125.342 400.193 126.026C399.202 126.57 398.922 127.86 398.118 128.673C397.194 129.632 395.741 129.777 394.413 129.943C393.085 130.108 391.616 130.435 390.911 131.569C390.392 132.414 390.444 133.471 390.252 134.45C390.234 134.625 390.163 134.791 390.049 134.926C389.87 135.069 389.645 135.143 389.416 135.134C386.822 135.315 384.933 134.419 382.505 133.797C381.369 133.507 380.04 133.543 379.169 134.315C378.297 135.087 378.162 136.19 378.178 137.252C378.285 138.312 378.318 139.379 378.276 140.444C378.096 141.586 377.539 142.636 376.693 143.425C375.847 144.215 374.76 144.699 373.606 144.8C373.438 144.826 373.267 144.817 373.102 144.775C372.937 144.734 372.782 144.659 372.646 144.557C372.497 144.395 372.388 144.2 372.33 143.987C370.602 139.138 370.618 133.756 368.521 129.052C368.183 128.381 367.89 127.689 367.645 126.979C367.603 126.834 367.561 126.684 367.53 126.534C367.469 126.235 367.427 125.932 367.406 125.627C367.191 125.658 366.988 125.742 366.814 125.871C366.753 125.923 366.697 125.982 366.648 126.047C366.351 126.543 366.2 127.112 366.212 127.689C365.825 134.166 366.455 140.663 368.08 146.945C368.576 148.514 368.878 150.137 368.978 151.779C368.92 153.554 368.496 155.298 367.733 156.902C364.479 164.393 357.942 169.879 351.44 174.837C352.108 174.122 352.624 173.279 352.956 172.359C353.287 171.439 353.429 170.462 353.37 169.485C353.258 169.858 353.046 170.193 352.755 170.452C352.465 170.712 352.109 170.886 351.726 170.957C350.957 171.087 350.171 171.075 349.406 170.92C350.402 170.594 350.792 169.423 351.041 168.408C351.549 166.336 352.021 164.245 352.457 162.134C352.922 160.12 353.227 158.073 353.37 156.011C353.448 154.26 353.313 152.504 353.241 150.748C353.087 145.932 353.26 141.112 353.76 136.32C354.144 132.175 354.839 127.694 357.885 124.866C359.199 123.757 360.667 122.842 362.243 122.151C362.243 121.633 366.046 120.597 366.55 120.525C366.759 120.484 366.97 120.46 367.183 120.452C367.455 120.413 367.732 120.46 367.975 120.587C368.218 120.715 368.415 120.916 368.537 121.162C368.724 120.825 368.931 120.493 369.149 120.177C369.449 119.743 369.778 119.329 370.135 118.939C372.112 116.763 374.675 115.23 376.963 113.386C377.803 112.634 378.714 111.964 379.682 111.386C380.949 110.75 382.339 110.397 383.755 110.35C386.098 110.218 388.441 110.585 390.63 111.428C393.785 112.64 396.54 114.816 399.804 115.696C400.61 115.871 401.405 116.09 402.186 116.354C402.934 116.65 403.613 117.099 404.177 117.672C404.742 118.245 405.18 118.93 405.463 119.683C405.746 120.435 405.869 121.238 405.823 122.041C405.777 122.843 405.563 123.627 405.195 124.343L405.174 124.358Z" fill="#444053"/>
<g opacity="0.1">
<path d="M352.629 170.76C353.007 169.788 353.168 168.744 353.101 167.703C352.987 168.076 352.773 168.41 352.482 168.67C352.191 168.929 351.835 169.104 351.451 169.175C351.253 169.222 351.052 169.252 350.849 169.263C350.59 170.092 350.18 170.889 349.386 171.148C350.15 171.304 350.936 171.318 351.705 171.19C352.038 171.109 352.352 170.963 352.629 170.76Z" fill="black"/>
<path d="M405.548 120.229C405.51 121.048 405.298 121.85 404.926 122.581C404.729 122.996 404.429 123.352 404.054 123.617C402.876 124.384 401.174 123.545 399.939 124.223C398.953 124.767 398.668 126.063 397.864 126.871C396.935 127.829 395.482 127.979 394.159 128.14C392.836 128.3 391.357 128.658 390.657 129.767C390.138 130.611 390.185 131.673 389.998 132.647C389.994 132.749 389.968 132.849 389.923 132.941C389.878 133.032 389.813 133.113 389.735 133.178C389.656 133.243 389.564 133.291 389.465 133.318C389.367 133.345 389.264 133.351 389.162 133.336C386.568 133.517 384.679 132.621 382.251 131.994C381.11 131.704 379.781 131.74 378.91 132.512C378.121 133.227 377.903 134.382 377.924 135.45C378.032 136.508 378.064 137.573 378.017 138.636C377.844 139.781 377.288 140.835 376.441 141.626C375.594 142.418 374.504 142.901 373.347 142.998C373.179 143.022 373.008 143.013 372.843 142.971C372.678 142.93 372.523 142.856 372.387 142.754C372.238 142.59 372.129 142.393 372.071 142.179C370.343 137.33 370.353 131.948 368.257 127.249C367.924 126.577 367.633 125.885 367.385 125.177C367.253 124.737 367.171 124.283 367.142 123.825C366.844 123.86 366.572 124.01 366.384 124.244C366.092 124.742 365.942 125.31 365.948 125.886C365.707 130.038 365.88 134.203 366.467 138.32C366.092 134.855 366.007 131.365 366.213 127.886C366.201 127.309 366.352 126.739 366.649 126.244C366.74 126.126 366.854 126.028 366.984 125.956C367.114 125.883 367.258 125.839 367.406 125.824C367.435 126.282 367.515 126.736 367.645 127.176C367.893 127.885 368.186 128.577 368.522 129.249C370.597 133.952 370.597 139.33 372.33 144.179C372.391 144.393 372.501 144.59 372.652 144.754C372.783 144.864 372.936 144.946 373.1 144.995C373.264 145.044 373.437 145.059 373.607 145.039C374.76 144.937 375.847 144.453 376.693 143.663C377.54 142.874 378.097 141.824 378.277 140.682C378.319 139.617 378.286 138.551 378.178 137.491C378.178 136.424 378.38 135.268 379.169 134.553C380.041 133.766 381.369 133.735 382.505 134.035C384.934 134.657 386.812 135.553 389.417 135.372C389.646 135.381 389.871 135.308 390.05 135.165C390.164 135.028 390.234 134.86 390.252 134.683C390.444 133.709 390.387 132.647 390.911 131.808C391.617 130.673 393.09 130.342 394.413 130.176C395.736 130.01 397.195 129.87 398.123 128.912C398.907 128.098 399.187 126.809 400.199 126.259C401.428 125.581 403.13 126.425 404.313 125.658C404.691 125.387 404.99 125.021 405.18 124.596C405.862 123.243 405.994 121.678 405.548 120.229Z" fill="black"/>
<path d="M368.729 150.012C368.672 151.787 368.25 153.531 367.489 155.136C364.578 161.834 359.037 166.932 353.251 171.475C353.007 172.83 352.38 174.088 351.446 175.101C357.942 170.149 364.49 164.663 367.738 157.171C368.502 155.567 368.926 153.823 368.984 152.048C368.971 151.29 368.882 150.535 368.719 149.794C368.724 149.846 368.729 149.929 368.729 150.012Z" fill="black"/>
</g>
<path opacity="0.1" d="M369.378 120.172C368.911 122.317 368.268 125.104 367.785 126.539C367.726 126.24 367.684 125.937 367.661 125.633C367.448 125.663 367.246 125.747 367.074 125.876C367.074 124.369 367.256 122.125 367.411 120.447C367.684 120.407 367.962 120.454 368.206 120.582C368.451 120.709 368.648 120.91 368.771 121.157C368.937 120.825 369.16 120.494 369.378 120.172Z" fill="black"/>
<path d="M369.129 120.172C368.662 122.317 368.018 125.104 367.536 126.539C367.474 126.24 367.432 125.937 367.411 125.633C367.197 125.663 366.994 125.747 366.82 125.876C366.82 124.369 367.001 122.125 367.162 120.447C367.434 120.408 367.712 120.455 367.955 120.582C368.198 120.71 368.395 120.911 368.517 121.157C368.703 120.825 368.937 120.494 369.129 120.172Z" fill="#67647E"/>
<g opacity="0.7">
<path d="M474.786 3.90601H560.747V87.3847H474.786V3.90601Z" fill="#2E001E"/>
<path d="M470.9 -0.015625V91.2857H564.675V-0.015625H470.9ZM474.807 3.89048H560.768V87.3847H474.786L474.807 3.89048Z" fill="#FF2BC2"/>
<path d="M539.001 38.3511C538.283 38.0569 537.509 37.9225 536.734 37.9574C531.815 37.9574 528.53 41.7444 528.53 48.0231C528.53 55.2033 531.893 58.0889 536.267 58.0889C537.185 58.1165 538.101 57.9706 538.965 57.6589V38.3511H539.001ZM521.484 48.3392C521.484 39.2474 527.342 32.1449 536.957 32.1449C537.634 32.1303 538.312 32.1579 538.986 32.2278V22.0843C538.986 21.9799 539.027 21.8798 539.101 21.8059C539.175 21.7321 539.275 21.6906 539.38 21.6906H545.669C545.98 21.6906 546.058 21.8098 546.058 22.0066V57.6589C546.034 58.9363 546.1 60.2138 546.255 61.4821C546.255 61.7567 546.255 61.7981 546.022 61.9121C542.897 63.3989 539.479 64.1722 536.018 64.176C527.539 64.176 521.489 58.9488 521.489 48.3392H521.484ZM508.16 42.0189L519.113 63.1865C519.31 63.4973 519.191 63.8082 518.879 63.8082H512.082C511.907 63.8302 511.729 63.7906 511.579 63.6961C511.43 63.6015 511.318 63.458 511.262 63.2901C508.762 58.1407 506.209 52.7961 503.604 47.2564H503.526C501.181 52.4836 498.602 58.1821 496.101 63.316C496.038 63.4486 495.938 63.56 495.813 63.6364C495.687 63.7128 495.542 63.7509 495.395 63.746H488.91C488.52 63.746 488.484 63.43 488.676 63.1968L499.38 42.6406L489.029 22.2605C488.981 22.2098 488.949 22.1459 488.938 22.0769C488.927 22.008 488.937 21.9373 488.966 21.874C488.996 21.8108 489.044 21.758 489.104 21.7225C489.165 21.687 489.234 21.6705 489.304 21.6751H496.023C496.412 21.6751 496.61 21.7528 496.724 22.1051C499.188 27.2856 501.689 32.4039 504.035 37.6466H504.112C506.375 32.4972 508.876 27.2856 511.262 22.1983C511.454 21.8823 511.574 21.6803 511.963 21.6803H518.257C518.568 21.6803 518.682 21.9134 518.49 22.2657L508.175 42.0448L508.16 42.0189Z" fill="#FF2BC2"/>
</g>
<g opacity="0.7">
<path d="M118.484 37.5225L147.862 94.9277L98.4863 37.5225H118.484Z" fill="#EA6C00"/>
<path d="M177.246 37.5225L147.867 94.9277L197.243 37.5225H177.246Z" fill="#EA6C00"/>
<path d="M118.483 37.5225H177.235L147.862 94.9277L118.483 37.5225Z" fill="#FDAD00"/>
<path d="M147.862 5.70898L120.03 8.64633L118.473 37.5225L147.862 5.70898Z" fill="#FDD231"/>
<path d="M147.862 5.70898L175.689 8.64633L177.245 37.5225L147.862 5.70898Z" fill="#FDD231"/>
<path d="M197.243 37.5224L175.699 8.64624L177.256 37.5224H197.243Z" fill="#FDAD00"/>
<path d="M98.4863 37.5224L120.03 8.64624L118.473 37.5224H98.4863Z" fill="#FDAD00"/>
<path d="M147.862 5.70898L118.483 37.5225H177.235L147.862 5.70898Z" fill="#FEEEB7"/>
</g>
</g>
<defs>
<linearGradient id="paint0_linear_264_787" x1="87.6162" y1="187.322" x2="228.385" y2="187.322" gradientUnits="userSpaceOnUse">
<stop stop-color="#808080" stop-opacity="0.25"/>
<stop offset="0.54" stop-color="#808080" stop-opacity="0.12"/>
<stop offset="1" stop-color="#808080" stop-opacity="0.1"/>
</linearGradient>
<linearGradient id="paint1_linear_264_787" x1="407.696" y1="276.686" x2="407.696" y2="109.563" gradientUnits="userSpaceOnUse">
<stop stop-color="#808080" stop-opacity="0.25"/>
<stop offset="0.54" stop-color="#808080" stop-opacity="0.12"/>
<stop offset="1" stop-color="#808080" stop-opacity="0.1"/>
</linearGradient>
<clipPath id="clip0_264_787">
<rect width="604" height="288" fill="white"/>
</clipPath>
</defs>
</svg>
