<svg width="626" height="428" viewBox="0 0 626 428" fill="none" xmlns="http://www.w3.org/2000/svg">
<g clip-path="url(#clip0_264_635)">
<path d="M368.428 379.893C374.458 390.549 369.345 426.541 369.345 426.541C369.345 426.541 335.861 412.37 329.832 401.718C328.396 399.184 327.473 396.392 327.116 393.501C326.759 390.611 326.976 387.678 327.754 384.871C328.531 382.064 329.854 379.438 331.648 377.142C333.441 374.847 335.669 372.927 338.205 371.493C340.741 370.06 343.534 369.139 346.426 368.785C349.318 368.431 352.251 368.651 355.058 369.431C357.864 370.211 360.49 371.536 362.784 373.331C365.078 375.126 366.996 377.356 368.428 379.893V379.893Z" fill="#F1F1F1"/>
<path d="M369.83 426.494L369.119 426.644C362.268 394.101 338.342 372.032 338.102 371.813L338.591 371.275C338.833 371.496 362.929 393.715 369.83 426.494Z" fill="white"/>
<path d="M423.216 392.026C415.034 406.866 368.902 426.97 368.902 426.97C368.902 426.97 361.297 377.235 369.475 362.4C371.42 358.872 374.042 355.762 377.19 353.247C380.338 350.732 383.951 348.861 387.822 347.742C391.693 346.623 395.746 346.277 399.751 346.724C403.756 347.171 407.633 348.403 411.162 350.348C414.69 352.293 417.801 354.914 420.317 358.062C422.832 361.209 424.703 364.821 425.823 368.691C426.942 372.561 427.288 376.614 426.841 380.618C426.393 384.622 425.162 388.498 423.216 392.026Z" fill="#F1F1F1"/>
<path d="M369.31 427.508L368.617 426.779C401.999 395.083 410.64 350.876 410.724 350.433L411.712 350.619C411.629 351.065 402.934 395.582 369.31 427.508Z" fill="white"/>
<path d="M592.242 16.2266H0.252441V297.079H592.242V16.2266Z" fill="#E6E6E6"/>
<path d="M575.315 40.3101H17.1807V274.634H575.315V40.3101Z" fill="white"/>
<path d="M591.989 0H0V25.1444H591.989V0Z" fill="#F12711"/>
<path d="M18.6892 17.7754C21.2636 17.7754 23.3506 15.6889 23.3506 13.115C23.3506 10.5411 21.2636 8.45459 18.6892 8.45459C16.1148 8.45459 14.0278 10.5411 14.0278 13.115C14.0278 15.6889 16.1148 17.7754 18.6892 17.7754Z" fill="white"/>
<path d="M36.3821 17.7754C38.9565 17.7754 41.0434 15.6889 41.0434 13.115C41.0434 10.5411 38.9565 8.45459 36.3821 8.45459C33.8077 8.45459 31.7207 10.5411 31.7207 13.115C31.7207 15.6889 33.8077 17.7754 36.3821 17.7754Z" fill="white"/>
<path d="M54.0759 17.7754C56.6503 17.7754 58.7373 15.6889 58.7373 13.115C58.7373 10.5411 56.6503 8.45459 54.0759 8.45459C51.5015 8.45459 49.4146 10.5411 49.4146 13.115C49.4146 15.6889 51.5015 17.7754 54.0759 17.7754Z" fill="white"/>
<path d="M236.087 111.047C234.832 111.052 233.817 112.77 233.819 114.886C233.822 116.995 234.835 118.704 236.087 118.708H469.807C471.062 118.704 472.077 116.986 472.074 114.87C472.072 112.761 471.058 111.052 469.807 111.047H236.087Z" fill="#E6E6E6"/>
<path d="M236.087 134.033C234.832 134.037 233.817 135.755 233.819 137.871C233.822 139.981 234.835 141.69 236.087 141.694H408.793C410.048 141.69 411.063 139.971 411.06 137.856C411.058 135.746 410.044 134.037 408.793 134.033H236.087Z" fill="#E6E6E6"/>
<path d="M236.087 156.499C234.832 156.503 233.817 158.221 233.819 160.337C233.822 162.446 234.835 164.156 236.087 164.16H469.807C471.062 164.155 472.077 162.437 472.074 160.322C472.072 158.212 471.058 156.503 469.807 156.499H236.087Z" fill="#E6E6E6"/>
<path d="M236.087 179.484C234.832 179.488 233.817 181.206 233.819 183.322C233.822 185.432 234.835 187.141 236.087 187.145H408.793C410.048 187.141 411.063 185.422 411.06 183.307C411.058 181.197 410.044 179.488 408.793 179.484H236.087Z" fill="#E6E6E6"/>
<path d="M54.7174 195.808C53.4628 195.812 52.4477 197.531 52.4502 199.646C52.4527 201.756 53.4663 203.465 54.7174 203.469H170.085C171.339 203.465 172.354 201.747 172.352 199.631C172.349 197.521 171.336 195.812 170.085 195.808H54.7174Z" fill="#E6E6E6"/>
<path d="M54.7174 218.794C53.4628 218.798 52.4477 220.517 52.4502 222.632C52.4527 224.742 53.4663 226.451 54.7174 226.455H109.071C110.325 226.451 111.34 224.732 111.338 222.617C111.335 220.507 110.322 218.798 109.071 218.794H54.7174Z" fill="#E6E6E6"/>
<path d="M156.562 98.6966C154.326 92.2748 150.716 86.4179 145.984 81.5343C141.251 76.6507 135.51 72.858 129.161 70.4206C122.812 67.9833 116.008 66.96 109.222 67.422C102.437 67.8841 95.8338 69.8204 89.8738 73.096C83.9138 76.3716 78.7402 80.9075 74.7137 86.3876C70.6873 91.8676 67.9049 98.1598 66.5607 104.825C65.2164 111.491 65.3427 118.37 66.9305 124.981C68.5184 131.593 71.5298 137.779 75.7545 143.108C76.1742 143.637 76.6107 144.165 77.0554 144.677C77.089 144.711 77.114 144.744 77.1476 144.778C78.242 146.038 79.4051 147.237 80.6314 148.37C80.9503 148.663 81.286 148.966 81.6216 149.251C82.2598 149.822 82.9143 150.367 83.5943 150.887C84.9219 151.934 86.3061 152.906 87.7408 153.799L87.7912 153.825C88.7228 154.404 89.6712 154.941 90.6368 155.453L91.0311 155.654C91.9377 156.124 92.8611 156.569 93.8095 156.98C94.0026 157.064 94.2124 157.148 94.4055 157.232C94.4223 157.24 94.4309 157.24 94.4477 157.249C96.3641 158.045 98.3329 158.71 100.34 159.238C104.275 160.286 108.33 160.816 112.402 160.815C113.888 160.815 115.357 160.748 116.809 160.606C120.127 160.299 123.402 159.638 126.579 158.633C126.588 158.633 126.596 158.625 126.604 158.625C128.611 157.986 130.572 157.209 132.472 156.3C132.48 156.292 132.497 156.292 132.505 156.284C132.933 156.082 133.345 155.864 133.764 155.654L133.966 155.553C134.302 155.377 134.637 155.201 134.973 155.016C135.812 154.555 136.635 154.068 137.449 153.548C137.676 153.413 137.894 153.271 138.121 153.12C138.859 152.633 139.59 152.113 140.295 151.584C140.421 151.492 140.555 151.399 140.681 151.299C148.545 145.331 154.317 137.027 157.17 127.577C160.023 118.128 159.81 108.018 156.562 98.6966Z" fill="white"/>
<path d="M127.833 133.335C131.704 133.335 134.841 130.198 134.841 126.328C134.841 122.459 131.704 119.322 127.833 119.322C123.963 119.322 120.825 122.459 120.825 126.328C120.825 130.198 123.963 133.335 127.833 133.335Z" fill="#2F2E41"/>
<path d="M129.786 119.515C130.999 119.515 132.191 119.829 133.246 120.428C134.3 121.027 135.182 121.889 135.804 122.93C136.425 123.971 136.766 125.156 136.793 126.368C136.819 127.581 136.531 128.779 135.955 129.847C136.562 129.087 137.005 128.209 137.254 127.268C137.503 126.328 137.554 125.346 137.403 124.385C137.251 123.424 136.901 122.505 136.375 121.686C135.849 120.868 135.158 120.168 134.346 119.631C133.535 119.095 132.62 118.733 131.661 118.569C130.702 118.405 129.719 118.443 128.775 118.68C127.832 118.917 126.948 119.348 126.179 119.945C125.411 120.543 124.776 121.293 124.314 122.15C124.97 121.327 125.802 120.663 126.749 120.207C127.697 119.751 128.735 119.514 129.786 119.515H129.786Z" fill="#2F2E41"/>
<path d="M114.737 126.313C126.107 126.313 135.324 117.098 135.324 105.731C135.324 94.3631 126.107 85.1479 114.737 85.1479C103.367 85.1479 94.1504 94.3631 94.1504 105.731C94.1504 117.098 103.367 126.313 114.737 126.313Z" fill="#2F2E41"/>
<path d="M98.5796 92.96C102.127 88.9714 107.085 86.5167 112.408 86.114C117.732 85.7113 123.003 87.392 127.11 90.8015C126.942 90.6412 126.775 90.4801 126.601 90.3248C122.534 86.6824 117.187 84.8043 111.735 85.1038C106.283 85.4032 101.174 87.8556 97.5305 91.9216C93.8873 95.9875 92.0089 101.334 92.3084 106.784C92.6079 112.235 95.0608 117.343 99.1275 120.986C99.1666 121.021 99.2058 121.056 99.2452 121.09C99.4198 121.246 99.5994 121.393 99.7782 121.541C95.9105 117.862 93.6236 112.825 93.4001 107.493C93.1766 102.16 95.034 96.9493 98.5804 92.96H98.5796Z" fill="#2F2E41"/>
<path d="M114.563 126.138C121.885 126.138 127.822 120.203 127.822 112.882C127.822 105.561 121.885 99.626 114.563 99.626C107.24 99.626 101.304 105.561 101.304 112.882C101.304 120.203 107.24 126.138 114.563 126.138Z" fill="#A0616A"/>
<path d="M138.289 147.421V151.869C137.475 152.39 136.652 152.876 135.813 153.338C135.477 153.523 135.141 153.699 134.806 153.875L134.604 153.976C134.184 154.185 133.773 154.404 133.345 154.605C133.337 154.613 133.32 154.613 133.311 154.622C131.411 155.531 129.451 156.307 127.444 156.947C127.436 156.947 127.427 156.955 127.419 156.955C124.242 157.96 120.966 158.621 117.648 158.927C116.196 159.07 114.727 159.137 113.242 159.137C109.169 159.138 105.115 158.608 101.18 157.559C99.1726 157.032 97.2038 156.367 95.2874 155.57C95.2706 155.562 95.262 155.562 95.2452 155.553C95.0521 155.469 94.8423 155.386 94.6492 155.302C93.7008 154.89 92.7774 154.446 91.8708 153.976L91.4765 153.774C90.5109 153.262 89.5625 152.725 88.6308 152.146L88.5805 152.121C87.1458 151.227 85.7615 150.255 84.4339 149.209C83.754 148.689 83.0994 148.143 82.4613 147.572C82.1256 147.287 81.79 146.985 81.4711 146.691C80.2447 145.559 79.0817 144.36 77.9873 143.099C78.1324 142.225 78.3458 141.364 78.6255 140.523L78.6336 140.515C78.6839 140.371 78.7428 140.231 78.8099 140.095C78.8562 139.975 78.9095 139.857 78.9693 139.743C80.4718 136.931 83.1917 136.235 86.566 136.084C88.4714 136 90.5781 136.092 92.8028 136.067C93.9779 136.058 95.1948 136.016 96.412 135.907C104.092 135.211 102.699 130.679 103.043 128.237C103.387 125.87 105.519 127.918 105.662 128.052L105.67 128.061C110.017 130.094 114.825 130.937 119.604 130.503C120.427 130.402 121.249 130.343 122.072 130.318C124.238 130.293 123.767 130.914 123.021 131.426C122.658 131.665 122.28 131.878 121.887 132.064C121.887 132.064 121.543 134.162 121.191 137.3C120.855 140.305 126.613 141.715 127.091 141.824C127.101 141.83 127.113 141.833 127.125 141.832C129.228 141.287 131.442 141.345 133.513 142H133.521C134.705 142.435 135.761 143.159 136.593 144.106C137.426 145.052 138.009 146.192 138.289 147.421Z" fill="#CBCBCB"/>
<path d="M95.3708 152.818C95.3708 153.439 95.3544 154.034 95.329 154.597C95.3208 154.932 95.304 155.26 95.2872 155.57C95.2704 155.562 95.2618 155.562 95.245 155.553C95.0519 155.469 94.8421 155.386 94.649 155.302C93.7006 154.89 92.7772 154.446 91.8706 153.976L91.4763 153.774C90.5107 153.262 89.5623 152.725 88.6307 152.146C88.6557 151.852 88.6979 151.559 88.7397 151.265C88.8319 150.619 88.9077 149.964 88.9582 149.318C89.2882 144.778 88.4652 140.229 86.5658 136.092V136.084C86.3978 135.748 86.2974 135.563 86.2974 135.563C86.2974 135.563 88.7397 133.465 92.2231 135.563C92.4456 135.694 92.6421 135.865 92.8026 136.067C94.9011 138.542 95.4716 146.867 95.3708 152.818Z" fill="#2F2E41"/>
<path d="M133.487 151.677C133.454 152.617 133.403 153.598 133.345 154.597V154.605C133.337 154.614 133.319 154.614 133.311 154.622C131.411 155.531 129.451 156.308 127.444 156.947C127.435 156.947 127.427 156.955 127.419 156.955L127.326 154.597L127.318 154.287L126.873 142.806C126.861 142.546 126.902 142.287 126.993 142.043C127.085 141.799 127.224 141.577 127.404 141.388C127.583 141.2 127.799 141.05 128.039 140.948C128.278 140.845 128.535 140.792 128.795 140.792H133.051C133.261 140.792 133.412 141.22 133.513 141.992V142C133.719 145.223 133.711 148.455 133.487 151.677Z" fill="#2F2E41"/>
<path d="M103.223 96.312V109.572H106.293L110.2 105.386L109.678 109.572H123.25L122.411 105.386L124.09 109.572H126.254V96.312H103.223Z" fill="#2F2E41"/>
<path d="M101.129 112.01C101.707 112.01 102.176 111.151 102.176 110.092C102.176 109.032 101.707 108.173 101.129 108.173C100.551 108.173 100.083 109.032 100.083 110.092C100.083 111.151 100.551 112.01 101.129 112.01Z" fill="#A0616A"/>
<path d="M127.997 112.01C128.575 112.01 129.044 111.151 129.044 110.092C129.044 109.032 128.575 108.173 127.997 108.173C127.419 108.173 126.95 109.032 126.95 110.092C126.95 111.151 127.419 112.01 127.997 112.01Z" fill="#A0616A"/>
<path d="M156.562 98.6966C154.326 92.2748 150.716 86.4179 145.984 81.5343C141.251 76.6507 135.51 72.858 129.161 70.4206C122.812 67.9833 116.008 66.96 109.222 67.422C102.437 67.8841 95.8338 69.8204 89.8738 73.096C83.9138 76.3716 78.7402 80.9075 74.7137 86.3876C70.6873 91.8676 67.9049 98.1598 66.5607 104.825C65.2164 111.491 65.3427 118.37 66.9305 124.981C68.5184 131.593 71.5298 137.779 75.7545 143.108C76.1742 143.637 76.6107 144.165 77.0554 144.677C77.089 144.711 77.114 144.744 77.1476 144.778C78.242 146.038 79.4051 147.237 80.6314 148.37C80.9503 148.663 81.286 148.966 81.6216 149.251C82.2598 149.822 82.9143 150.367 83.5943 150.887C84.9219 151.934 86.3061 152.906 87.7408 153.799L87.7912 153.825C88.7228 154.404 89.6712 154.941 90.6368 155.453L91.0311 155.654C91.9377 156.124 92.8611 156.569 93.8095 156.98C94.0026 157.064 94.2124 157.148 94.4055 157.232C94.4223 157.24 94.4309 157.24 94.4477 157.249C96.3641 158.045 98.3329 158.71 100.34 159.238C104.275 160.286 108.33 160.816 112.402 160.815C113.888 160.815 115.357 160.748 116.809 160.606C120.127 160.299 123.402 159.638 126.579 158.633C126.588 158.633 126.596 158.625 126.604 158.625C128.611 157.986 130.572 157.209 132.472 156.3C132.48 156.292 132.497 156.292 132.505 156.284C132.933 156.082 133.345 155.864 133.764 155.654L133.966 155.553C134.302 155.377 134.637 155.201 134.973 155.016C135.812 154.555 136.635 154.068 137.449 153.548C137.676 153.413 137.894 153.271 138.121 153.12C138.859 152.633 139.59 152.113 140.295 151.584C140.421 151.492 140.555 151.399 140.681 151.299C148.545 145.331 154.317 137.027 157.17 127.577C160.023 118.128 159.81 108.018 156.562 98.6966ZM139.136 149.259C138.859 149.478 138.574 149.687 138.289 149.88C138.012 150.09 137.735 150.292 137.449 150.476C137.206 150.652 136.963 150.82 136.71 150.98C136.501 151.122 136.291 151.257 136.081 151.391C135.385 151.827 134.68 152.247 133.966 152.65C133.89 152.692 133.815 152.734 133.739 152.776C133.42 152.952 133.101 153.12 132.782 153.288C132.74 153.313 132.69 153.33 132.648 153.355L132.598 153.38C132.195 153.59 131.784 153.791 131.372 153.984C129.785 154.748 128.15 155.41 126.478 155.965C126.26 156.04 126.042 156.116 125.824 156.183C122.817 157.139 119.716 157.769 116.574 158.063C115.197 158.189 113.804 158.256 112.402 158.256C108.55 158.264 104.714 157.761 100.995 156.762C99.0857 156.264 97.2147 155.63 95.3961 154.865C95.203 154.79 95.0099 154.706 94.8251 154.63C94.7247 154.588 94.6321 154.546 94.5313 154.496C93.7423 154.152 92.9619 153.774 92.1979 153.38L91.8287 153.187C90.8971 152.7 89.9818 152.18 89.092 151.626C88.765 151.424 88.4375 151.215 88.1186 150.997C87.1112 150.334 86.1292 149.62 85.1722 148.873C84.5259 148.387 83.9049 147.866 83.3004 147.329C82.9815 147.061 82.6708 146.767 82.3688 146.49C81.1787 145.391 80.0521 144.226 78.9944 142.999C78.6419 142.596 78.2977 142.193 77.9702 141.774C77.8957 141.691 77.8257 141.604 77.7603 141.513C72.3066 134.633 69.0262 126.284 68.3376 117.532C67.6489 108.78 69.5832 100.021 73.8937 92.3723C78.2043 84.7237 84.6957 78.5321 92.5401 74.587C100.385 70.6419 109.227 69.1222 117.938 70.2217C126.65 71.3212 134.837 74.99 141.455 80.7603C148.073 86.5306 152.822 94.1408 155.096 102.62C157.37 111.1 157.067 120.065 154.224 128.371C151.382 136.678 146.129 143.95 139.136 149.259H139.136Z" fill="#CBCBCB"/>
<path d="M444.24 168.805C444.655 169.107 445.045 169.441 445.408 169.804L490.528 160.906L494.153 150.34L510.817 153.726L506.218 173.055C505.846 174.616 504.978 176.015 503.744 177.041C502.509 178.067 500.975 178.665 499.372 178.746L447.116 181.363C446.171 183.099 444.72 184.507 442.956 185.398C441.192 186.29 439.198 186.623 437.239 186.354C435.281 186.085 433.451 185.226 431.993 183.891C430.535 182.557 429.517 180.811 429.076 178.884C428.635 176.957 428.791 174.942 429.523 173.107C430.256 171.271 431.529 169.702 433.176 168.607C434.822 167.513 436.762 166.946 438.739 166.981C440.715 167.017 442.634 167.653 444.24 168.805Z" fill="#FFB7B7"/>
<path d="M489.429 158.817C489.133 158.295 488.953 157.716 488.901 157.119C488.849 156.522 488.927 155.92 489.128 155.356L496.171 135.635C496.767 132.626 498.532 129.976 501.079 128.266C503.626 126.557 506.748 125.926 509.759 126.514C512.77 127.101 515.425 128.858 517.143 131.4C518.86 133.942 519.5 137.061 518.921 140.073L517.901 161.056C517.872 161.655 517.714 162.241 517.438 162.773C517.162 163.305 516.775 163.772 516.302 164.141C515.83 164.51 515.283 164.773 514.7 164.912C514.116 165.051 513.51 165.063 512.922 164.946L492.247 160.85C491.659 160.734 491.103 160.492 490.616 160.141C490.13 159.79 489.725 159.338 489.429 158.817Z" fill="#F12711"/>
<path d="M478.114 414.586L464.848 414.585L458.538 363.43L478.115 363.431L478.114 414.586Z" fill="#FFB7B7"/>
<path d="M481.496 427.442L438.724 427.44V426.899C438.724 422.485 440.479 418.252 443.601 415.13C446.723 412.009 450.957 410.255 455.372 410.255H455.373L481.497 410.256L481.496 427.442Z" fill="#2F2E41"/>
<path d="M603.729 400.686L591.443 405.687L566.305 360.687L584.438 353.307L603.729 400.686Z" fill="#FFB7B7"/>
<path d="M611.711 411.317L572.096 427.441L571.892 426.94C570.227 422.852 570.255 418.27 571.969 414.202C573.684 410.134 576.944 406.913 581.033 405.248L581.034 405.248L605.23 395.4L611.711 411.317Z" fill="#2F2E41"/>
<path d="M490.182 202.168L484.079 169.882C482.752 165.128 482.516 160.136 483.39 155.278C484.263 150.421 486.223 145.823 489.122 141.829L511.435 112.002L532.747 112.629C542.824 137.045 544.679 164.077 538.033 189.64L534.116 204.707C551.684 220.55 563.463 264.97 574.185 314.608L603.577 379.599L553.009 394.948L520.247 299.636L490.981 395.657L448.126 394.013L480.721 245.487L490.182 202.168Z" fill="#2F2E41"/>
<path d="M524.138 105.973C535.62 105.973 544.929 96.6671 544.929 85.1873C544.929 73.7076 535.62 64.4014 524.138 64.4014C512.656 64.4014 503.348 73.7076 503.348 85.1873C503.348 96.6671 512.656 105.973 524.138 105.973Z" fill="#FFB7B7"/>
<path d="M606.202 132.399C602.339 124.856 601.021 116.29 598.048 108.354C595.075 100.418 589.674 92.5446 581.485 90.3575C576.84 89.1168 571.905 89.8742 567.133 89.2835C562.938 88.7642 558.421 86.6227 556.815 82.8976C557.138 79.2048 556.677 75.4854 555.461 71.9833C552.468 63.4814 545.331 56.7698 537.011 53.3002C530.252 50.4817 522.469 49.6857 515.567 52.1332C508.665 54.5808 502.872 60.5625 501.631 67.7783C500.39 74.9941 504.369 83.0514 511.228 85.6145C516.153 87.4548 522.496 86.8421 525.712 91.001C528.97 95.2141 526.635 101.354 523.676 105.782L523.878 105.988C533.542 106.101 543.989 104.234 550.646 97.228C551.368 96.4631 552.033 95.6455 552.634 94.7819C552.838 95.109 553.052 95.4279 553.281 95.7326C556.633 100.183 561.881 102.707 566.88 105.167C571.88 107.626 577.065 110.387 580.068 115.079C585.494 123.56 581.932 134.982 585.036 144.559C586.417 148.823 589.08 152.556 592.662 155.25C596.244 157.945 600.571 159.468 605.051 159.614C609.531 159.759 613.947 158.519 617.696 156.062C621.445 153.606 624.345 150.052 626 145.887C617.553 146.593 610.064 139.942 606.202 132.399Z" fill="#2F2E41"/>
<path d="M404.722 185.589L405.602 164.23L435.774 104.252C436.625 102.547 438.012 101.168 439.723 100.327C440.77 99.8046 441.911 99.4963 443.079 99.4201C444.247 99.3438 445.419 99.5012 446.525 99.8829C447.807 100.325 448.969 101.057 449.921 102.021C450.874 102.986 451.59 104.158 452.015 105.445C452.197 106.001 452.325 106.573 452.397 107.153C452.611 108.875 452.307 110.622 451.522 112.17L421.308 172.23L404.722 185.589Z" fill="#F12711"/>
<path d="M443.481 99.8223L410.728 164.929L408.231 163.673L439.909 100.703C441.019 100.148 442.239 99.8467 443.481 99.8223Z" fill="#3F3D56"/>
<path d="M451.981 107.206L420.477 169.831L417.979 168.575L450.664 103.604C451.067 104.217 451.387 104.88 451.617 105.576C451.79 106.106 451.912 106.652 451.981 107.206Z" fill="#3F3D56"/>
<path d="M448.844 101.618L415.73 167.444L413.232 166.188L446.388 100.28C446.742 100.401 447.086 100.546 447.42 100.714C447.923 100.968 448.4 101.27 448.844 101.618Z" fill="#3F3D56"/>
<path d="M408.51 182L405.178 184.683L405.458 177.609C406.602 178.006 407.84 179.728 408.51 182Z" fill="#3F3D56"/>
<path d="M442.867 114.76C442.981 115.26 443.055 115.769 443.089 116.281L482.925 139.257L492.607 133.684L502.93 147.195L486.747 158.726C485.44 159.658 483.866 160.14 482.261 160.101C480.656 160.062 479.107 159.504 477.847 158.51L436.769 126.11C434.915 126.796 432.896 126.901 430.981 126.412C429.066 125.923 427.345 124.863 426.047 123.372C424.749 121.881 423.936 120.031 423.716 118.066C423.496 116.102 423.879 114.118 424.814 112.377C425.75 110.636 427.193 109.221 428.953 108.32C430.712 107.419 432.704 107.075 434.664 107.334C436.624 107.592 438.458 108.442 439.923 109.768C441.389 111.095 442.415 112.836 442.867 114.76Z" fill="#FFB7B7"/>
<path d="M483.472 136.96C483.592 136.373 483.837 135.818 484.191 135.334C484.545 134.85 484.999 134.448 485.523 134.156L503.803 123.936C506.232 122.062 509.305 121.227 512.349 121.614C515.392 122.002 518.158 123.58 520.039 126.003C521.921 128.427 522.764 131.497 522.385 134.541C522.006 137.585 520.435 140.354 518.016 142.242L503.441 157.374C503.025 157.806 502.521 158.143 501.963 158.362C501.405 158.582 500.806 158.678 500.207 158.646C499.608 158.613 499.024 158.451 498.493 158.172C497.962 157.893 497.498 157.503 497.132 157.028L484.257 140.345C483.89 139.871 483.63 139.323 483.495 138.739C483.359 138.154 483.352 137.548 483.472 136.96Z" fill="#F12711"/>
<path d="M623.352 428H303.545C303.323 428 303.109 427.912 302.952 427.754C302.794 427.597 302.706 427.384 302.706 427.161C302.706 426.938 302.794 426.725 302.952 426.568C303.109 426.41 303.323 426.322 303.545 426.322H623.352C623.574 426.322 623.788 426.41 623.945 426.568C624.103 426.725 624.191 426.938 624.191 427.161C624.191 427.384 624.103 427.597 623.945 427.754C623.788 427.912 623.574 428 623.352 428Z" fill="#CBCBCB"/>
</g>
<defs>
<clipPath id="clip0_264_635">
<rect width="626" height="428" fill="white"/>
</clipPath>
</defs>
</svg>
