<svg width="596" height="465" viewBox="0 0 596 465" fill="none" xmlns="http://www.w3.org/2000/svg">
<g clip-path="url(#clip0_263_402)">
<path d="M495.614 200.538C495.614 200.538 481.602 208.334 485.636 217.21C489.669 226.086 546.944 218.823 546.944 218.823C546.944 218.823 542.911 206.72 535.65 204.299C528.39 201.878 495.614 200.538 495.614 200.538Z" fill="#F12711"/>
<path d="M490.152 202.616C492.968 200.785 496.099 199.49 499.386 198.797C510.349 196.139 521.827 196.497 532.603 199.833L532.406 199.672C536.997 202.096 541.027 205.458 544.237 209.54L490.152 202.616Z" fill="#CCCCCC"/>
<path d="M552.204 240.787C552.01 243.684 551.816 246.578 551.623 249.47C551.357 255.526 550.697 261.558 549.646 267.528C548.662 272.523 547.097 277.478 544.298 281.73C541.499 285.975 537.344 289.485 532.423 290.776C529.402 291.5 526.261 291.569 523.211 290.977C517.459 287.709 513.563 291.889 519.307 296.142C520.61 297.105 521.964 297.997 523.364 298.813L525.97 339.053L477.568 328.563L487.015 275.033C485.568 273.718 484.245 272.273 483.062 270.716C477.649 263.526 475.786 254.158 476.141 245.169C476.504 236.172 478.899 227.401 481.279 218.726C481.886 216.373 482.618 214.054 483.473 211.779C484.53 212.215 485.603 212.61 486.692 212.941C493.654 215.055 501.051 215.224 508.328 215.216C521.275 215.208 534.206 214.703 547.121 213.699C550.089 218.587 551.892 224.092 552.389 229.789C552.598 233.455 552.536 237.131 552.204 240.787Z" fill="#CCCCCC"/>
<path d="M345.191 350.023L419.706 356.64L420.504 356.712V38.6756C420.238 38.49 419.972 38.3044 419.706 38.1188C404.176 27.2535 387.377 18.3274 369.683 11.5391L365.875 64.0691L365.528 68.8783L361.761 120.973L360.599 136.998L345.329 348.167L345.191 350.023Z" fill="#E6E6E6"/>
<path d="M160.919 32.7526C160.387 33.0915 159.854 33.4304 159.322 33.7855V356.712L160.919 356.567L234.626 350.023L234.489 348.167L219.219 136.998L218.057 120.972L214.29 68.8781L213.943 64.0689L209.95 8.98096C192.73 14.9516 176.273 22.9305 160.919 32.7526Z" fill="#E6E6E6"/>
<path d="M159.322 33.7853C158.249 34.4792 157.176 35.1893 156.119 35.9075V361.118C156.119 369.243 160.935 376.054 167.373 377.789C168.424 378.074 169.509 378.217 170.599 378.216H410.025C411.113 378.218 412.195 378.074 413.244 377.789C415.637 377.125 417.806 375.825 419.52 374.028C422.79 370.533 424.577 365.905 424.506 361.118V41.5639C423.183 40.5876 421.852 39.6193 420.504 38.6752C420.238 38.4896 419.972 38.304 419.706 38.1184V361.118C419.708 362.164 419.583 363.208 419.335 364.224C418.197 369.026 414.446 372.544 410.025 372.544H170.599C165.259 372.544 160.919 367.42 160.919 361.118V32.7524C160.387 33.0913 159.854 33.4302 159.322 33.7853Z" fill="#E6E6E6"/>
<path d="M422.105 64.0723H158.517V68.8807H422.105V64.0723Z" fill="#E6E6E6"/>
<path d="M341.376 2.73561C339.779 2.34023 338.181 1.96904 336.568 1.62207V132.189H341.376V2.73561Z" fill="#E6E6E6"/>
<path d="M244.056 0C242.451 0.298558 240.846 0.605176 239.249 0.93601V132.189H244.056V0Z" fill="#E6E6E6"/>
<path d="M106.838 369.8C106.837 372.56 107.366 375.293 108.395 377.853C108.791 378.846 109.263 379.806 109.807 380.726C110.51 381.925 111.326 383.055 112.243 384.099C114.27 386.409 116.766 388.26 119.565 389.527C122.364 390.795 125.401 391.451 128.474 391.45H444.14C449.879 391.45 455.382 389.17 459.439 385.111C463.496 381.053 465.776 375.548 465.776 369.808C465.776 364.069 463.496 358.564 459.439 354.506C455.382 350.447 449.879 348.167 444.14 348.167H128.474C122.739 348.173 117.24 350.453 113.184 354.509C109.128 358.565 106.846 364.064 106.838 369.8Z" fill="#E6E6E6"/>
<path d="M158.517 137L420.503 137V120.971L158.517 120.971V137Z" fill="#E6E6E6"/>
<path d="M300.727 124.979H278.293C278.293 123.821 278.521 122.675 278.964 121.605C279.407 120.535 280.056 119.564 280.875 118.745C281.693 117.927 282.665 117.277 283.734 116.834C284.803 116.391 285.949 116.163 287.106 116.163H291.914C294.251 116.163 296.493 117.092 298.145 118.745C299.798 120.398 300.727 122.641 300.727 124.979H300.727Z" fill="#E6E6E6"/>
<path d="M0 382.162C7.00794 390.468 14.5878 398.274 22.6842 405.522H573.316C581.412 398.274 588.992 390.468 596 382.162H0Z" fill="#3F3D56"/>
<path d="M149.367 304.045V386.802H207.328V304.045C207.329 303.45 207.139 302.87 206.786 302.391C206.433 301.911 205.936 301.558 205.368 301.382C205.1 301.294 204.819 301.25 204.537 301.253H152.166C151.799 301.252 151.436 301.324 151.096 301.464C150.757 301.604 150.448 301.809 150.188 302.069C149.928 302.328 149.722 302.636 149.581 302.975C149.44 303.314 149.368 303.678 149.367 304.045ZM171.987 332.481C172.002 330.849 172.66 329.29 173.819 328.141C174.978 326.993 176.543 326.349 178.174 326.349C179.805 326.349 181.37 326.993 182.529 328.141C183.688 329.29 184.346 330.849 184.361 332.481V342.083C184.353 343.719 183.698 345.285 182.538 346.439C181.379 347.593 179.81 348.24 178.174 348.24C176.539 348.24 174.97 347.593 173.81 346.439C172.651 345.285 171.995 343.719 171.987 342.083V332.481Z" fill="#2F2E41"/>
<path d="M149.189 384.155V392.136C149.191 392.549 149.355 392.945 149.646 393.238C149.938 393.531 150.333 393.698 150.746 393.701H205.948C206.362 393.699 206.758 393.533 207.05 393.24C207.342 392.946 207.505 392.549 207.505 392.136V384.155H149.189Z" fill="#3F3D56"/>
<path d="M58.1865 179.361V330.463C58.188 332.389 58.9534 334.235 60.3147 335.597C61.6759 336.958 63.5217 337.724 65.4467 337.725H289.304C291.229 337.724 293.075 336.958 294.436 335.597C295.797 334.235 296.562 332.389 296.564 330.463V179.361C296.559 177.437 295.793 175.593 294.432 174.233C293.071 172.874 291.227 172.109 289.304 172.106H65.4467C63.5234 172.109 61.6793 172.874 60.3185 174.233C58.9577 175.593 58.1911 177.437 58.1865 179.361Z" fill="#3F3D56"/>
<path d="M63.4385 181.241V328.599C63.4403 329.628 63.8496 330.614 64.5769 331.342C65.3042 332.069 66.2901 332.479 67.3187 332.481H287.441C288.469 332.479 289.455 332.069 290.182 331.342C290.91 330.614 291.319 329.628 291.321 328.599V181.241C291.321 180.211 290.912 179.223 290.185 178.494C289.457 177.765 288.47 177.354 287.441 177.352H67.3187C66.2889 177.354 65.302 177.765 64.5746 178.494C63.8472 179.223 63.4386 180.211 63.4385 181.241Z" fill="#F12711"/>
<path d="M108.323 395.581C108.547 395.862 108.831 396.089 109.156 396.244C109.48 396.399 109.835 396.479 110.194 396.477H241.152C241.511 396.477 241.864 396.396 242.187 396.242C242.511 396.088 242.795 395.863 243.021 395.585C243.247 395.307 243.407 394.982 243.492 394.634C243.576 394.285 243.581 393.923 243.508 393.572L241.475 383.913C241.391 383.519 241.209 383.153 240.947 382.847C240.685 382.541 240.351 382.306 239.975 382.162C239.702 382.055 239.412 382.001 239.12 382.001H112.219C111.926 382.001 111.636 382.055 111.364 382.162C110.988 382.306 110.653 382.541 110.391 382.847C110.129 383.153 109.948 383.519 109.863 383.913L107.831 393.572C107.758 393.923 107.765 394.285 107.85 394.632C107.935 394.98 108.097 395.304 108.323 395.581Z" fill="#2F2E41"/>
<path d="M234.55 386.161H237.796C238.013 386.161 238.189 385.985 238.189 385.767V384.134C238.189 383.917 238.013 383.74 237.796 383.74H234.55C234.332 383.74 234.156 383.917 234.156 384.134V385.767C234.156 385.985 234.332 386.161 234.55 386.161Z" fill="#3F3D56"/>
<path d="M226.483 386.161H229.729C229.946 386.161 230.123 385.985 230.123 385.767V384.134C230.123 383.917 229.946 383.74 229.729 383.74H226.483C226.265 383.74 226.089 383.917 226.089 384.134V385.767C226.089 385.985 226.265 386.161 226.483 386.161Z" fill="#3F3D56"/>
<path d="M218.416 386.161H221.662C221.879 386.161 222.056 385.985 222.056 385.767V384.134C222.056 383.917 221.879 383.74 221.662 383.74H218.416C218.199 383.74 218.022 383.917 218.022 384.134V385.767C218.022 385.985 218.199 386.161 218.416 386.161Z" fill="#3F3D56"/>
<path d="M210.349 386.161H213.595C213.812 386.161 213.989 385.985 213.989 385.767V384.134C213.989 383.917 213.812 383.74 213.595 383.74H210.349C210.132 383.74 209.955 383.917 209.955 384.134V385.767C209.955 385.985 210.132 386.161 210.349 386.161Z" fill="#3F3D56"/>
<path d="M202.282 386.161H205.528C205.746 386.161 205.922 385.985 205.922 385.767V384.134C205.922 383.917 205.746 383.74 205.528 383.74H202.282C202.065 383.74 201.888 383.917 201.888 384.134V385.767C201.888 385.985 202.065 386.161 202.282 386.161Z" fill="#3F3D56"/>
<path d="M194.215 386.161H197.461C197.679 386.161 197.855 385.985 197.855 385.767V384.134C197.855 383.917 197.679 383.74 197.461 383.74H194.215C193.998 383.74 193.822 383.917 193.822 384.134V385.767C193.822 385.985 193.998 386.161 194.215 386.161Z" fill="#3F3D56"/>
<path d="M186.148 386.161H189.394C189.612 386.161 189.788 385.985 189.788 385.767V384.134C189.788 383.917 189.612 383.74 189.394 383.74H186.148C185.931 383.74 185.755 383.917 185.755 384.134V385.767C185.755 385.985 185.931 386.161 186.148 386.161Z" fill="#3F3D56"/>
<path d="M178.082 386.161H181.327C181.545 386.161 181.721 385.985 181.721 385.767V384.134C181.721 383.917 181.545 383.74 181.327 383.74H178.082C177.864 383.74 177.688 383.917 177.688 384.134V385.767C177.688 385.985 177.864 386.161 178.082 386.161Z" fill="#3F3D56"/>
<path d="M170.015 386.161H173.26C173.478 386.161 173.654 385.985 173.654 385.767V384.134C173.654 383.917 173.478 383.74 173.26 383.74H170.015C169.797 383.74 169.621 383.917 169.621 384.134V385.767C169.621 385.985 169.797 386.161 170.015 386.161Z" fill="#3F3D56"/>
<path d="M161.948 386.161H165.194C165.411 386.161 165.587 385.985 165.587 385.767V384.134C165.587 383.917 165.411 383.74 165.194 383.74H161.948C161.73 383.74 161.554 383.917 161.554 384.134V385.767C161.554 385.985 161.73 386.161 161.948 386.161Z" fill="#3F3D56"/>
<path d="M153.881 386.161H157.127C157.344 386.161 157.521 385.985 157.521 385.767V384.134C157.521 383.917 157.344 383.74 157.127 383.74H153.881C153.663 383.74 153.487 383.917 153.487 384.134V385.767C153.487 385.985 153.663 386.161 153.881 386.161Z" fill="#3F3D56"/>
<path d="M145.813 386.161H149.059C149.277 386.161 149.453 385.985 149.453 385.767V384.134C149.453 383.917 149.277 383.74 149.059 383.74H145.813C145.596 383.74 145.42 383.917 145.42 384.134V385.767C145.42 385.985 145.596 386.161 145.813 386.161Z" fill="#3F3D56"/>
<path d="M137.747 386.161H140.992C141.21 386.161 141.386 385.985 141.386 385.767V384.134C141.386 383.917 141.21 383.74 140.992 383.74H137.747C137.529 383.74 137.353 383.917 137.353 384.134V385.767C137.353 385.985 137.529 386.161 137.747 386.161Z" fill="#3F3D56"/>
<path d="M129.68 386.161H132.926C133.143 386.161 133.319 385.985 133.319 385.767V384.134C133.319 383.917 133.143 383.74 132.926 383.74H129.68C129.462 383.74 129.286 383.917 129.286 384.134V385.767C129.286 385.985 129.462 386.161 129.68 386.161Z" fill="#3F3D56"/>
<path d="M121.613 386.161H124.859C125.076 386.161 125.252 385.985 125.252 385.767V384.134C125.252 383.917 125.076 383.74 124.859 383.74H121.613C121.395 383.74 121.219 383.917 121.219 384.134V385.767C121.219 385.985 121.395 386.161 121.613 386.161Z" fill="#3F3D56"/>
<path d="M113.546 386.161H116.792C117.009 386.161 117.186 385.985 117.186 385.767V384.134C117.186 383.917 117.009 383.74 116.792 383.74H113.546C113.328 383.74 113.152 383.917 113.152 384.134V385.767C113.152 385.985 113.328 386.161 113.546 386.161Z" fill="#3F3D56"/>
<path d="M234.645 390.196H237.891C238.108 390.196 238.285 390.019 238.285 389.802V388.169C238.285 387.951 238.108 387.775 237.891 387.775H234.645C234.428 387.775 234.251 387.951 234.251 388.169V389.802C234.251 390.019 234.428 390.196 234.645 390.196Z" fill="#3F3D56"/>
<path d="M226.578 390.196H229.824C230.041 390.196 230.218 390.019 230.218 389.802V388.169C230.218 387.951 230.041 387.775 229.824 387.775H226.578C226.361 387.775 226.184 387.951 226.184 388.169V389.802C226.184 390.019 226.361 390.196 226.578 390.196Z" fill="#3F3D56"/>
<path d="M218.511 390.196H221.757C221.975 390.196 222.151 390.019 222.151 389.802V388.169C222.151 387.951 221.975 387.775 221.757 387.775H218.511C218.294 387.775 218.117 387.951 218.117 388.169V389.802C218.117 390.019 218.294 390.196 218.511 390.196Z" fill="#3F3D56"/>
<path d="M210.444 390.196H213.69C213.908 390.196 214.084 390.019 214.084 389.802V388.169C214.084 387.951 213.908 387.775 213.69 387.775H210.444C210.227 387.775 210.051 387.951 210.051 388.169V389.802C210.051 390.019 210.227 390.196 210.444 390.196Z" fill="#3F3D56"/>
<path d="M202.377 390.196H205.623C205.841 390.196 206.017 390.019 206.017 389.802V388.169C206.017 387.951 205.841 387.775 205.623 387.775H202.377C202.16 387.775 201.984 387.951 201.984 388.169V389.802C201.984 390.019 202.16 390.196 202.377 390.196Z" fill="#3F3D56"/>
<path d="M194.311 390.196H197.556C197.774 390.196 197.95 390.019 197.95 389.802V388.169C197.95 387.951 197.774 387.775 197.556 387.775H194.311C194.093 387.775 193.917 387.951 193.917 388.169V389.802C193.917 390.019 194.093 390.196 194.311 390.196Z" fill="#3F3D56"/>
<path d="M186.244 390.196H189.489C189.707 390.196 189.883 390.019 189.883 389.802V388.169C189.883 387.951 189.707 387.775 189.489 387.775H186.244C186.026 387.775 185.85 387.951 185.85 388.169V389.802C185.85 390.019 186.026 390.196 186.244 390.196Z" fill="#3F3D56"/>
<path d="M178.177 390.196H181.423C181.64 390.196 181.816 390.019 181.816 389.802V388.169C181.816 387.951 181.64 387.775 181.423 387.775H178.177C177.959 387.775 177.783 387.951 177.783 388.169V389.802C177.783 390.019 177.959 390.196 178.177 390.196Z" fill="#3F3D56"/>
<path d="M170.11 390.196H173.356C173.573 390.196 173.75 390.019 173.75 389.802V388.169C173.75 387.951 173.573 387.775 173.356 387.775H170.11C169.892 387.775 169.716 387.951 169.716 388.169V389.802C169.716 390.019 169.892 390.196 170.11 390.196Z" fill="#3F3D56"/>
<path d="M162.043 390.196H165.289C165.506 390.196 165.683 390.019 165.683 389.802V388.169C165.683 387.951 165.506 387.775 165.289 387.775H162.043C161.825 387.775 161.649 387.951 161.649 388.169V389.802C161.649 390.019 161.825 390.196 162.043 390.196Z" fill="#3F3D56"/>
<path d="M153.976 390.196H157.222C157.439 390.196 157.616 390.019 157.616 389.802V388.169C157.616 387.951 157.439 387.775 157.222 387.775H153.976C153.759 387.775 153.582 387.951 153.582 388.169V389.802C153.582 390.019 153.759 390.196 153.976 390.196Z" fill="#3F3D56"/>
<path d="M145.909 390.196H149.155C149.373 390.196 149.549 390.019 149.549 389.802V388.169C149.549 387.951 149.373 387.775 149.155 387.775H145.909C145.692 387.775 145.515 387.951 145.515 388.169V389.802C145.515 390.019 145.692 390.196 145.909 390.196Z" fill="#3F3D56"/>
<path d="M137.842 390.196H141.088C141.306 390.196 141.482 390.019 141.482 389.802V388.169C141.482 387.951 141.306 387.775 141.088 387.775H137.842C137.625 387.775 137.448 387.951 137.448 388.169V389.802C137.448 390.019 137.625 390.196 137.842 390.196Z" fill="#3F3D56"/>
<path d="M129.775 390.196H133.021C133.239 390.196 133.415 390.019 133.415 389.802V388.169C133.415 387.951 133.239 387.775 133.021 387.775H129.775C129.558 387.775 129.382 387.951 129.382 388.169V389.802C129.382 390.019 129.558 390.196 129.775 390.196Z" fill="#3F3D56"/>
<path d="M121.709 390.196H124.954C125.172 390.196 125.348 390.019 125.348 389.802V388.169C125.348 387.951 125.172 387.775 124.954 387.775H121.709C121.491 387.775 121.315 387.951 121.315 388.169V389.802C121.315 390.019 121.491 390.196 121.709 390.196Z" fill="#3F3D56"/>
<path d="M113.642 390.196H116.887C117.105 390.196 117.281 390.019 117.281 389.802V388.169C117.281 387.951 117.105 387.775 116.887 387.775H113.642C113.424 387.775 113.248 387.951 113.248 388.169V389.802C113.248 390.019 113.424 390.196 113.642 390.196Z" fill="#3F3D56"/>
<path d="M167.69 395.037H199.17C199.387 395.037 199.563 394.861 199.563 394.643V393.01C199.563 392.793 199.387 392.616 199.17 392.616H167.69C167.472 392.616 167.296 392.793 167.296 393.01V394.643C167.296 394.861 167.472 395.037 167.69 395.037Z" fill="#3F3D56"/>
<path d="M78.3799 197.651H284.347C284.561 197.646 284.765 197.558 284.915 197.405C285.065 197.251 285.148 197.046 285.148 196.832C285.148 196.617 285.065 196.412 284.915 196.258C284.765 196.105 284.561 196.017 284.347 196.012H78.3799C78.1658 196.017 77.962 196.105 77.8122 196.258C77.6625 196.412 77.5786 196.617 77.5786 196.832C77.5786 197.046 77.6625 197.251 77.8122 197.405C77.962 197.558 78.1658 197.646 78.3799 197.651Z" fill="#3F3D56"/>
<path d="M270.327 191.829C272.978 191.829 275.127 189.632 275.127 186.921C275.127 184.21 272.978 182.012 270.327 182.012C267.675 182.012 265.526 184.21 265.526 186.921C265.526 189.632 267.675 191.829 270.327 191.829Z" fill="#3F3D56"/>
<path d="M253.744 191.829C256.395 191.829 258.544 189.632 258.544 186.921C258.544 184.21 256.395 182.012 253.744 182.012C251.093 182.012 248.944 184.21 248.944 186.921C248.944 189.632 251.093 191.829 253.744 191.829Z" fill="#3F3D56"/>
<path d="M237.161 191.829C239.813 191.829 241.962 189.632 241.962 186.921C241.962 184.21 239.813 182.012 237.161 182.012C234.51 182.012 232.361 184.21 232.361 186.921C232.361 189.632 234.51 191.829 237.161 191.829Z" fill="#3F3D56"/>
<path d="M87.4859 184.121C87.4853 184.237 87.5076 184.352 87.5515 184.46C87.5954 184.567 87.66 184.665 87.7417 184.747C87.8233 184.83 87.9204 184.895 88.0274 184.94C88.1344 184.985 88.2491 185.008 88.3651 185.009H100.143C100.376 185.003 100.597 184.907 100.76 184.74C100.923 184.574 101.014 184.35 101.014 184.117C101.014 183.884 100.923 183.661 100.76 183.494C100.597 183.327 100.376 183.231 100.143 183.226H88.3651C88.13 183.228 87.9056 183.324 87.7409 183.492C87.5761 183.66 87.4844 183.886 87.4859 184.121Z" fill="#3F3D56"/>
<path d="M87.4859 187.47C87.4853 187.586 87.5076 187.701 87.5515 187.809C87.5954 187.916 87.66 188.014 87.7417 188.096C87.8233 188.179 87.9204 188.244 88.0274 188.289C88.1344 188.334 88.2491 188.358 88.3651 188.358H100.143C100.376 188.353 100.598 188.257 100.761 188.09C100.923 187.923 101.015 187.699 101.015 187.466C101.015 187.233 100.923 187.009 100.761 186.843C100.598 186.676 100.376 186.58 100.143 186.575H88.3651C88.13 186.578 87.9056 186.673 87.7409 186.841C87.5761 187.009 87.4844 187.235 87.4859 187.47Z" fill="#3F3D56"/>
<path d="M87.4859 190.811C87.4844 191.046 87.5761 191.272 87.7409 191.44C87.9056 191.608 88.13 191.704 88.3651 191.707H100.143C100.376 191.701 100.597 191.605 100.76 191.438C100.923 191.272 101.014 191.048 101.014 190.815C101.014 190.582 100.923 190.358 100.76 190.192C100.597 190.025 100.376 189.929 100.143 189.923H88.3651C88.2491 189.924 88.1344 189.947 88.0274 189.992C87.9204 190.037 87.8233 190.103 87.7417 190.185C87.66 190.267 87.5954 190.365 87.5515 190.472C87.5076 190.58 87.4853 190.695 87.4859 190.811Z" fill="#3F3D56"/>
<path d="M91.1256 216.691H86.8936C85.6105 216.691 84.5703 217.732 84.5703 219.015C84.5703 220.299 85.6105 221.339 86.8936 221.339H91.1256C92.4087 221.339 93.4488 220.299 93.4488 219.015C93.4488 217.732 92.4087 216.691 91.1256 216.691Z" fill="#E6E6E6"/>
<path d="M139.527 216.691H135.295C134.012 216.691 132.972 217.732 132.972 219.015C132.972 220.299 134.012 221.339 135.295 221.339H139.527C140.81 221.339 141.85 220.299 141.85 219.015C141.85 217.732 140.81 216.691 139.527 216.691Z" fill="#E6E6E6"/>
<path d="M153.241 216.691H149.009C147.726 216.691 146.686 217.732 146.686 219.015C146.686 220.299 147.726 221.339 149.009 221.339H153.241C154.524 221.339 155.564 220.299 155.564 219.015C155.564 217.732 154.524 216.691 153.241 216.691Z" fill="#E6E6E6"/>
<path d="M126.362 216.304H100.059C98.776 216.304 97.7358 217.344 97.7358 218.628C97.7358 219.911 98.776 220.951 100.059 220.951H126.362C127.645 220.951 128.685 219.911 128.685 218.628C128.685 217.344 127.645 216.304 126.362 216.304Z" fill="#E6E6E6"/>
<path d="M190.897 216.304H164.594C163.311 216.304 162.271 217.344 162.271 218.628C162.271 219.911 163.311 220.951 164.594 220.951H190.897C192.18 220.951 193.22 219.911 193.22 218.628C193.22 217.344 192.18 216.304 190.897 216.304Z" fill="#E6E6E6"/>
<path d="M104.033 227.181H99.8008C98.5177 227.181 97.4775 228.222 97.4775 229.505C97.4775 230.788 98.5177 231.829 99.8008 231.829H104.033C105.316 231.829 106.356 230.788 106.356 229.505C106.356 228.222 105.316 227.181 104.033 227.181Z" fill="#E6E6E6"/>
<path d="M152.434 227.181H148.202C146.919 227.181 145.879 228.222 145.879 229.505C145.879 230.788 146.919 231.829 148.202 231.829H152.434C153.717 231.829 154.757 230.788 154.757 229.505C154.757 228.222 153.717 227.181 152.434 227.181Z" fill="#E6E6E6"/>
<path d="M166.148 227.181H161.916C160.633 227.181 159.593 228.222 159.593 229.505C159.593 230.788 160.633 231.829 161.916 231.829H166.148C167.431 231.829 168.471 230.788 168.471 229.505C168.471 228.222 167.431 227.181 166.148 227.181Z" fill="#E6E6E6"/>
<path d="M139.269 226.793H112.966C111.683 226.793 110.643 227.834 110.643 229.117C110.643 230.401 111.683 231.441 112.966 231.441H139.269C140.552 231.441 141.592 230.401 141.592 229.117C141.592 227.834 140.552 226.793 139.269 226.793Z" fill="#E6E6E6"/>
<path d="M203.804 226.793H177.501C176.218 226.793 175.178 227.834 175.178 229.117C175.178 230.401 176.218 231.441 177.501 231.441H203.804C205.087 231.441 206.128 230.401 206.128 229.117C206.128 227.834 205.087 226.793 203.804 226.793Z" fill="#E6E6E6"/>
<path d="M116.94 237.671H112.708C111.424 237.671 110.384 238.711 110.384 239.995C110.384 241.278 111.424 242.319 112.708 242.319H116.94C118.223 242.319 119.263 241.278 119.263 239.995C119.263 238.711 118.223 237.671 116.94 237.671Z" fill="#E6E6E6"/>
<path d="M165.341 237.671H161.109C159.826 237.671 158.786 238.711 158.786 239.995C158.786 241.278 159.826 242.319 161.109 242.319H165.341C166.625 242.319 167.665 241.278 167.665 239.995C167.665 238.711 166.625 237.671 165.341 237.671Z" fill="#E6E6E6"/>
<path d="M179.055 237.671H174.823C173.54 237.671 172.5 238.711 172.5 239.995C172.5 241.278 173.54 242.319 174.823 242.319H179.055C180.338 242.319 181.378 241.278 181.378 239.995C181.378 238.711 180.338 237.671 179.055 237.671Z" fill="#E6E6E6"/>
<path d="M152.176 237.284H125.873C124.59 237.284 123.55 238.324 123.55 239.608C123.55 240.891 124.59 241.931 125.873 241.931H152.176C153.459 241.931 154.499 240.891 154.499 239.608C154.499 238.324 153.459 237.284 152.176 237.284Z" fill="#E6E6E6"/>
<path d="M216.711 237.284H190.408C189.125 237.284 188.085 238.324 188.085 239.608C188.085 240.891 189.125 241.931 190.408 241.931H216.711C217.994 241.931 219.034 240.891 219.034 239.608C219.034 238.324 217.994 237.284 216.711 237.284Z" fill="#E6E6E6"/>
<path d="M129.847 248.161H125.615C124.332 248.161 123.292 249.201 123.292 250.485C123.292 251.768 124.332 252.808 125.615 252.808H129.847C131.13 252.808 132.17 251.768 132.17 250.485C132.17 249.201 131.13 248.161 129.847 248.161Z" fill="#E6E6E6"/>
<path d="M178.248 248.161H174.016C172.733 248.161 171.693 249.201 171.693 250.485C171.693 251.768 172.733 252.808 174.016 252.808H178.248C179.531 252.808 180.571 251.768 180.571 250.485C180.571 249.201 179.531 248.161 178.248 248.161Z" fill="#E6E6E6"/>
<path d="M191.962 248.161H187.73C186.447 248.161 185.407 249.201 185.407 250.485C185.407 251.768 186.447 252.808 187.73 252.808H191.962C193.245 252.808 194.285 251.768 194.285 250.485C194.285 249.201 193.245 248.161 191.962 248.161Z" fill="#E6E6E6"/>
<path d="M165.083 247.773H138.78C137.497 247.773 136.457 248.814 136.457 250.097C136.457 251.381 137.497 252.421 138.78 252.421H165.083C166.366 252.421 167.406 251.381 167.406 250.097C167.406 248.814 166.366 247.773 165.083 247.773Z" fill="#E6E6E6"/>
<path d="M139.527 289.873H135.295C134.012 289.873 132.972 290.913 132.972 292.197C132.972 293.48 134.012 294.521 135.295 294.521H139.527C140.81 294.521 141.85 293.48 141.85 292.197C141.85 290.913 140.81 289.873 139.527 289.873Z" fill="#E6E6E6"/>
<path d="M153.241 289.873H149.009C147.726 289.873 146.686 290.913 146.686 292.197C146.686 293.48 147.726 294.521 149.009 294.521H153.241C154.524 294.521 155.564 293.48 155.564 292.197C155.564 290.913 154.524 289.873 153.241 289.873Z" fill="#E6E6E6"/>
<path d="M190.897 290.26H164.594C163.311 290.26 162.271 291.301 162.271 292.584C162.271 293.868 163.311 294.908 164.594 294.908H190.897C192.18 294.908 193.22 293.868 193.22 292.584C193.22 291.301 192.18 290.26 190.897 290.26Z" fill="#E6E6E6"/>
<path d="M91.1256 289.873H86.8936C85.6105 289.873 84.5703 290.913 84.5703 292.197C84.5703 293.48 85.6105 294.521 86.8936 294.521H91.1256C92.4087 294.521 93.4488 293.48 93.4488 292.197C93.4488 290.913 92.4087 289.873 91.1256 289.873Z" fill="#E6E6E6"/>
<path d="M126.362 290.26H100.059C98.776 290.26 97.7358 291.301 97.7358 292.584C97.7358 293.868 98.776 294.908 100.059 294.908H126.362C127.645 294.908 128.685 293.868 128.685 292.584C128.685 291.301 127.645 290.26 126.362 290.26Z" fill="#E6E6E6"/>
<path d="M104.033 279.383H99.8008C98.5177 279.383 97.4775 280.424 97.4775 281.707C97.4775 282.991 98.5177 284.031 99.8008 284.031H104.033C105.316 284.031 106.356 282.991 106.356 281.707C106.356 280.424 105.316 279.383 104.033 279.383Z" fill="#E6E6E6"/>
<path d="M152.434 279.383H148.202C146.919 279.383 145.879 280.424 145.879 281.707C145.879 282.991 146.919 284.031 148.202 284.031H152.434C153.717 284.031 154.757 282.991 154.757 281.707C154.757 280.424 153.717 279.383 152.434 279.383Z" fill="#E6E6E6"/>
<path d="M166.148 279.383H161.916C160.633 279.383 159.593 280.424 159.593 281.707C159.593 282.991 160.633 284.031 161.916 284.031H166.148C167.431 284.031 168.471 282.991 168.471 281.707C168.471 280.424 167.431 279.383 166.148 279.383Z" fill="#E6E6E6"/>
<path d="M139.269 279.771H112.966C111.683 279.771 110.643 280.811 110.643 282.094C110.643 283.378 111.683 284.418 112.966 284.418H139.269C140.552 284.418 141.592 283.378 141.592 282.094C141.592 280.811 140.552 279.771 139.269 279.771Z" fill="#E6E6E6"/>
<path d="M116.94 268.893H112.708C111.424 268.893 110.384 269.934 110.384 271.217C110.384 272.5 111.424 273.541 112.708 273.541H116.94C118.223 273.541 119.263 272.5 119.263 271.217C119.263 269.934 118.223 268.893 116.94 268.893Z" fill="#E6E6E6"/>
<path d="M165.341 268.893H161.109C159.826 268.893 158.786 269.934 158.786 271.217C158.786 272.5 159.826 273.541 161.109 273.541H165.341C166.625 273.541 167.665 272.5 167.665 271.217C167.665 269.934 166.625 268.893 165.341 268.893Z" fill="#E6E6E6"/>
<path d="M179.055 268.893H174.823C173.54 268.893 172.5 269.934 172.5 271.217C172.5 272.5 173.54 273.541 174.823 273.541H179.055C180.338 273.541 181.378 272.5 181.378 271.217C181.378 269.934 180.338 268.893 179.055 268.893Z" fill="#E6E6E6"/>
<path d="M152.176 269.281H125.873C124.59 269.281 123.55 270.321 123.55 271.605C123.55 272.888 124.59 273.929 125.873 273.929H152.176C153.459 273.929 154.499 272.888 154.499 271.605C154.499 270.321 153.459 269.281 152.176 269.281Z" fill="#E6E6E6"/>
<path d="M129.847 258.403H125.615C124.332 258.403 123.292 259.444 123.292 260.727C123.292 262.011 124.332 263.051 125.615 263.051H129.847C131.13 263.051 132.17 262.011 132.17 260.727C132.17 259.444 131.13 258.403 129.847 258.403Z" fill="#E6E6E6"/>
<path d="M178.248 258.403H174.016C172.733 258.403 171.693 259.444 171.693 260.727C171.693 262.011 172.733 263.051 174.016 263.051H178.248C179.531 263.051 180.571 262.011 180.571 260.727C180.571 259.444 179.531 258.403 178.248 258.403Z" fill="#E6E6E6"/>
<path d="M191.962 258.403H187.73C186.447 258.403 185.407 259.444 185.407 260.727C185.407 262.011 186.447 263.051 187.73 263.051H191.962C193.245 263.051 194.285 262.011 194.285 260.727C194.285 259.444 193.245 258.403 191.962 258.403Z" fill="#E6E6E6"/>
<path d="M165.083 258.791H138.78C137.497 258.791 136.457 259.831 136.457 261.115C136.457 262.398 137.497 263.439 138.78 263.439H165.083C166.366 263.439 167.406 262.398 167.406 261.115C167.406 259.831 166.366 258.791 165.083 258.791Z" fill="#E6E6E6"/>
<path d="M75.9097 441.414C76.4017 441.664 76.9019 441.914 77.394 442.156C90.1397 448.531 100.336 452.154 114.284 456.124C115.462 442.971 116.599 419.853 117.704 405.522C117.995 401.802 118.285 398.68 118.568 396.477C118.639 395.306 118.878 394.151 119.277 393.047L119.229 396.477L119.108 405.522L118.406 457.254C135.756 461.845 153.579 464.415 171.519 464.911C172.455 464.935 173.374 464.952 174.262 464.968C174.576 464.976 174.883 464.984 175.189 464.984C176.198 464.992 177.198 465 178.206 465C197.112 465.014 215.949 462.73 234.304 458.198C233.908 445.182 233.513 422.322 233.134 405.522C233.053 402.238 232.981 399.18 232.9 396.477C232.747 390.699 232.585 386.536 232.432 385.14C232.568 385.387 232.674 385.65 232.747 385.922C233.494 389.402 234.003 392.928 234.271 396.477C234.554 399.18 234.836 402.238 235.118 405.522C236.619 422.976 238.184 446.707 239.797 456.769C249.4 454.147 258.823 450.904 268.007 447.062C272.847 445.045 277.601 442.869 282.27 440.534C281.382 434.724 280.454 428.213 279.503 421.459C278.76 416.222 277.994 410.84 277.212 405.522C276.001 397.308 258.02 339.904 256.883 337.725C255.907 335.861 254.979 334.102 254.1 332.481C251.97 328.543 250.163 325.404 248.824 323.419C243.226 314.924 234.891 308.601 225.204 305.497L224.962 305.433L224.793 305.505L208.296 300.438L205.884 299.696L204.262 299.195L198.551 294.846L195.445 292.482L192.533 290.263L186.838 285.93L151.577 288.1L144.712 304.634L129.337 310.258L129.071 310.137L128.837 310.04L128.595 310.105C118.909 313.211 110.576 319.534 104.975 328.026C104.217 329.164 103.297 330.665 102.256 332.481C101.369 334.022 100.401 335.781 99.3522 337.725C97.8598 340.493 96.2303 343.616 94.504 346.997C94.1249 347.739 93.7376 348.498 93.3504 349.264C92.6325 350.684 91.9038 352.134 91.1643 353.614C89.446 357.043 87.6713 360.626 85.8966 364.265C84.3558 367.42 82.7989 373.907 81.2662 382.162C79.9997 389.021 78.7412 397.106 77.5231 405.522C75.9259 416.432 77.628 429.496 76.184 439.534C76.0952 440.171 75.9984 440.793 75.9097 441.414Z" fill="#3F3D56"/>
<path opacity="0.2" d="M244.904 382.127L238.049 355.667L231.997 378.499L244.904 382.127Z" fill="black"/>
<path d="M62.5024 364.886C64.9548 398.68 62.4137 413.559 75.95 441.422C88.2661 447.452 101.095 452.372 114.284 456.124C115.655 456.511 117.029 456.888 118.406 457.254C135.756 461.846 153.579 464.415 171.519 464.911C172.455 464.936 173.374 464.952 174.262 464.968C174.576 464.976 174.883 464.984 175.189 464.984C176.198 464.992 177.198 465 178.206 465C197.112 465.014 215.949 462.73 234.304 458.198C236.143 457.746 237.974 457.27 239.797 456.77C249.4 454.147 258.823 450.905 268.007 447.062C272.847 445.045 277.601 442.869 282.269 440.534C283.326 440.002 284.383 439.469 285.424 438.921C290.772 429.512 293.813 418.07 293.878 404.32C290.175 380.629 70.6823 344.455 62.5024 364.886Z" fill="#2F2E41"/>
<path opacity="0.2" d="M62.5087 370.674C62.3834 368.582 62.2434 366.421 62.0801 364.17C70.2599 343.739 289.753 379.913 293.455 403.604C293.445 405.776 293.352 407.884 293.196 409.942C284.229 386.559 75.7083 352.178 62.5087 370.674Z" fill="black"/>
<path d="M12.7692 381.82C13.1246 382.855 13.7988 383.751 14.6949 384.379C15.5911 385.006 16.6631 385.334 17.757 385.315L39.1278 384.764C40.2297 384.743 41.2952 384.365 42.1648 383.688C43.0344 383.011 43.6616 382.07 43.9525 381.007L46.9767 348.66C48.0496 349.146 49.2177 349.386 50.3954 349.362C52.4608 349.309 54.4206 348.438 55.8439 346.94C57.2673 345.442 58.0377 343.44 57.9858 341.373C57.934 339.307 57.0641 337.347 55.5674 335.922C54.0707 334.497 52.0697 333.725 50.0042 333.776C49.5335 333.774 49.064 333.823 48.6036 333.921C48.103 333.38 47.4945 332.949 46.8173 332.656C46.1401 332.364 45.4093 332.217 44.6718 332.224L11.7987 333.073C11.526 333.084 11.2547 333.117 10.9878 333.174C10.2669 333.309 9.58311 333.596 8.98253 334.017C8.38195 334.438 7.87848 334.983 7.50601 335.614C7.13354 336.246 6.90072 336.951 6.8232 337.68C6.74568 338.409 6.82527 339.147 7.05662 339.843L12.7692 381.82ZM47.5969 346.463L49.7488 338.755C49.9936 337.865 49.9993 336.926 49.7652 336.032C49.8697 336.032 49.9618 335.982 50.0662 335.982C51.5417 335.952 52.9691 336.508 54.0354 337.528C55.1018 338.549 55.72 339.951 55.7545 341.427C55.7891 342.902 55.2372 344.332 54.2198 345.401C53.2024 346.471 51.8025 347.093 50.3272 347.131C49.3733 347.161 48.4293 346.93 47.5969 346.463Z" fill="#2F2E41"/>
<path d="M10.9878 333.174C11.6881 337.18 19.5622 339.996 29.0301 339.506C37.7365 339.105 44.8554 336.047 46.1596 332.423C45.6769 332.28 45.175 332.213 44.6718 332.224L11.7987 333.073C11.526 333.084 11.2547 333.117 10.9878 333.174Z" fill="#3F3D56"/>
<path d="M30.7655 364.045C30.8088 364.034 30.8499 364.016 30.8872 363.991L35.5283 360.953C35.5844 360.916 35.6305 360.866 35.6624 360.807C35.6943 360.749 35.711 360.683 35.7111 360.616C35.7111 360.549 35.6944 360.483 35.6625 360.424C35.6306 360.365 35.5846 360.315 35.5285 360.278L30.7047 357.118C30.6604 357.088 30.6108 357.068 30.5587 357.058C30.5065 357.048 30.453 357.048 30.401 357.059C30.349 357.07 30.2996 357.091 30.2557 357.12C30.2118 357.15 30.1742 357.189 30.1451 357.233C30.116 357.277 30.0959 357.327 30.0861 357.379C30.0762 357.431 30.0768 357.485 30.0877 357.537C30.0987 357.589 30.1197 357.638 30.1497 357.682C30.1798 357.726 30.2182 357.763 30.2627 357.792L34.5711 360.615L30.4457 363.316C30.3659 363.369 30.3071 363.448 30.2799 363.539C30.2527 363.631 30.2588 363.729 30.2972 363.816C30.3355 363.904 30.4036 363.975 30.4894 364.016C30.5751 364.058 30.673 364.069 30.7655 364.045H30.7655Z" fill="#F12711"/>
<path d="M23.4352 364.383C23.513 364.364 23.5833 364.321 23.6368 364.261C23.6904 364.201 23.7248 364.127 23.7358 364.047C23.7467 363.968 23.7336 363.886 23.6982 363.814C23.6627 363.742 23.6066 363.682 23.5369 363.642L19.2589 361.189L23.3937 358.117C23.4362 358.085 23.472 358.046 23.4992 358C23.5264 357.955 23.5444 357.904 23.5521 357.852C23.5598 357.8 23.5571 357.746 23.5442 357.695C23.5313 357.644 23.5084 357.595 23.4768 357.553C23.4453 357.51 23.4056 357.474 23.3602 357.447C23.3148 357.42 23.2645 357.402 23.2121 357.394C23.1597 357.387 23.1064 357.389 23.055 357.402C23.0037 357.415 22.9554 357.438 22.9129 357.47L18.2836 360.909C18.2298 360.949 18.1868 361.002 18.1585 361.062C18.1301 361.123 18.1174 361.19 18.1213 361.257C18.1252 361.324 18.1458 361.388 18.181 361.445C18.2163 361.502 18.2652 361.55 18.3233 361.583L23.1354 364.342C23.2262 364.394 23.3337 364.409 23.4352 364.383Z" fill="#F12711"/>
<path d="M30.3037 366.708C30.3427 366.698 30.38 366.682 30.4142 366.661C30.4595 366.634 30.4989 366.597 30.5303 366.555C30.5616 366.512 30.5842 366.463 30.5967 366.412C30.6093 366.36 30.6115 366.307 30.6034 366.255C30.5953 366.202 30.5769 366.152 30.5493 366.107L23.9704 355.287C23.9144 355.196 23.8248 355.131 23.721 355.106C23.6173 355.081 23.5079 355.099 23.4167 355.154C23.3256 355.21 23.2602 355.299 23.2348 355.403C23.2093 355.506 23.226 355.616 23.2811 355.707L29.8601 366.527C29.905 366.6 29.9723 366.658 30.0521 366.69C30.1319 366.723 30.2201 366.729 30.3037 366.708Z" fill="#F12711"/>
<path d="M541.297 321.301H469.501V384.241H541.297V321.301Z" fill="#3F3D56"/>
<path d="M551.939 233.388C550.607 241.279 551.776 249.388 555.282 256.581C556.579 259.227 558.186 262.414 556.606 264.901C556.163 265.523 555.586 266.037 554.919 266.407C554.251 266.778 553.509 266.994 552.747 267.04C551.222 267.121 549.696 266.923 548.243 266.457" fill="#CCCCCC"/>
<path d="M488.862 209.14C490.199 209.14 491.282 208.237 491.282 207.123C491.282 206.009 490.199 205.105 488.862 205.105C487.525 205.105 486.442 206.009 486.442 207.123C486.442 208.237 487.525 209.14 488.862 209.14Z" fill="#3F3D56"/>
<path d="M497.736 209.947C499.072 209.947 500.156 209.044 500.156 207.93C500.156 206.816 499.072 205.913 497.736 205.913C496.399 205.913 495.315 206.816 495.315 207.93C495.315 209.044 496.399 209.947 497.736 209.947Z" fill="#3F3D56"/>
<path d="M506.61 213.982C507.946 213.982 509.03 213.079 509.03 211.965C509.03 210.85 507.946 209.947 506.61 209.947C505.273 209.947 504.189 210.85 504.189 211.965C504.189 213.079 505.273 213.982 506.61 213.982Z" fill="#3F3D56"/>
<path d="M517.096 211.561C518.433 211.561 519.516 210.658 519.516 209.544C519.516 208.43 518.433 207.526 517.096 207.526C515.76 207.526 514.676 208.43 514.676 209.544C514.676 210.658 515.76 211.561 517.096 211.561Z" fill="#3F3D56"/>
<path d="M296.809 249.795C308.563 246.531 321.654 250.029 330.737 258.042C335.638 262.394 339.234 268.023 341.126 274.299C343.445 281.77 343.829 289.651 344.072 297.417C344.34 306.004 344.574 314.592 344.824 323.18C345.062 331.368 345.09 339.594 345.636 347.768C346.095 354.627 347.192 361.748 350.862 367.697C354.264 373.213 359.64 376.937 365.715 378.989C371.872 381.07 378.509 381.555 384.968 381.512C392.485 381.488 399.99 380.894 407.417 379.734C421.523 377.474 435.457 371.708 444.073 359.813C448.04 354.411 450.269 347.93 450.464 341.231C450.646 333.424 448.152 325.863 445.421 318.652C442.763 311.635 439.888 304.722 438.206 297.385C436.643 290.519 435.899 283.493 435.988 276.452C436.132 262.365 439.507 248.5 445.853 235.925C449.065 229.466 453.139 223.473 457.964 218.112C462.94 212.696 469.102 208.225 476.429 206.759C480.005 206.018 483.708 206.167 487.213 207.193C488.708 207.641 489.347 205.305 487.856 204.859C480.598 202.685 472.712 204.338 466.276 208.111C459.948 211.821 454.948 217.387 450.704 223.289C442.55 234.859 437.121 248.126 434.826 262.095C432.53 276.064 433.428 290.372 437.451 303.944C441.757 318.056 451.124 332.746 447.1 348.018C443.578 361.386 431.377 370.471 418.772 374.575C411.125 377.064 403.108 378.118 395.111 378.662C388.353 379.123 381.503 379.416 374.764 378.547C368.574 377.749 362.208 375.856 357.409 371.701C352.149 367.145 349.745 360.599 348.698 353.881C347.514 346.281 347.688 338.443 347.465 330.773L346.702 304.595C346.272 289.809 346.643 273.423 337.026 261.171C333.181 256.398 328.298 252.564 322.749 249.962C317.2 247.36 311.131 246.058 305.003 246.155C302.015 246.224 299.046 246.662 296.166 247.461C295.866 247.555 295.615 247.761 295.465 248.037C295.314 248.313 295.277 248.636 295.36 248.939C295.444 249.241 295.642 249.5 295.912 249.66C296.182 249.819 296.504 249.868 296.809 249.795H296.809Z" fill="#3F3D56"/>
<path d="M125.01 234.481C126.723 246.674 133.205 257.687 143.032 265.102C152.859 272.517 165.226 275.726 177.417 274.025C189.608 272.323 200.625 265.851 208.048 256.029C215.47 246.207 218.691 233.839 217.003 221.643L216.911 220.984C214.947 208.953 208.333 198.176 198.496 190.978C188.659 183.78 176.388 180.739 164.33 182.51C152.272 184.281 141.392 190.722 134.039 200.444C126.686 210.167 123.448 222.39 125.024 234.479L125.01 234.481Z" fill="#FFB6B6"/>
<path d="M165.951 272.893C163.55 268.055 161.083 262.861 161.735 257.499C162.387 252.137 167.625 246.997 172.79 248.572C175.878 249.514 178.22 252.554 181.446 252.699C185.885 252.899 188.412 247.81 189.779 243.582L195.347 226.36C206.087 234.8 192.485 225.952 205.789 222.862C211.008 221.651 216.277 219.304 219.326 214.897C222.376 210.49 222.334 203.67 218.121 200.359C216.055 198.736 213.31 198.126 211.335 196.393C210.11 195.318 209.263 193.877 208.92 192.283C208.578 190.689 208.757 189.028 209.432 187.544C210.106 186.06 211.241 184.833 212.667 184.044C214.093 183.255 215.735 182.946 217.351 183.163L203.18 181.44L207.375 173.791C204.342 176.199 200.111 176.535 196.297 175.862C192.484 175.188 188.89 173.631 185.158 172.596C167.244 167.631 146.472 176.438 137.581 192.768C134.092 191.615 130.335 191.55 126.807 192.582C123.28 193.613 120.15 195.693 117.83 198.544C114.055 203.371 113.045 209.798 112.919 215.926C112.683 228.007 115.357 239.968 120.713 250.799C122.383 254.166 124.356 257.467 127.194 259.93C130.031 262.392 162.1 276.031 165.801 275.388" fill="#2F2E41"/>
<path d="M500.962 241.013C500.969 243.108 500.7 245.194 500.164 247.219V247.227C500.156 247.267 500.14 247.307 500.131 247.348C498.502 253.343 494.614 257.555 490.072 257.555C485.555 257.555 481.682 253.375 480.029 247.428C479.916 247.017 479.819 246.605 479.73 246.178C479.617 245.702 479.529 245.209 479.456 244.701C479.391 244.298 479.343 243.886 479.303 243.466C479.246 242.885 479.206 242.304 479.198 241.699V241.691C479.182 241.465 479.182 241.239 479.182 241.013V240.812L479.19 240.804C479.191 239.781 479.258 238.759 479.391 237.745C479.448 237.318 479.512 236.906 479.593 236.495C479.69 235.994 479.795 235.502 479.924 235.018C480.029 234.59 480.15 234.179 480.279 233.767C480.456 233.219 480.65 232.686 480.868 232.178C481.005 231.847 481.15 231.524 481.295 231.209C483.28 227.126 486.474 224.472 490.072 224.472C495.049 224.472 499.244 229.547 500.543 236.47C500.559 236.575 500.583 236.68 500.591 236.785V236.793C500.84 238.186 500.964 239.598 500.962 241.013Z" fill="#E6E6E6"/>
<path d="M481.4 231.565C481.396 231.712 481.34 231.854 481.243 231.966C481.146 232.078 481.013 232.153 480.868 232.178C481.005 231.847 481.15 231.524 481.295 231.209C481.362 231.316 481.399 231.439 481.4 231.565Z" fill="#F12711"/>
<path d="M490.938 230.83H483.839C483.493 230.83 483.212 231.11 483.212 231.457C483.212 231.803 483.493 232.084 483.839 232.084H490.938C491.284 232.084 491.565 231.803 491.565 231.457C491.565 231.11 491.284 230.83 490.938 230.83Z" fill="#F12711"/>
<path d="M481.182 234.388C481.182 234.555 481.116 234.715 480.998 234.833C480.88 234.951 480.72 235.018 480.553 235.018H479.924C480.029 234.59 480.15 234.179 480.279 233.767H480.553C480.719 233.767 480.878 233.832 480.995 233.948C481.113 234.065 481.18 234.223 481.182 234.388Z" fill="#F12711"/>
<path d="M484.258 233.765H483.116C482.77 233.765 482.489 234.046 482.489 234.392C482.489 234.739 482.77 235.02 483.116 235.02H484.258C484.605 235.02 484.885 234.739 484.885 234.392C484.885 234.046 484.605 233.765 484.258 233.765Z" fill="#F12711"/>
<path d="M494.421 233.661H487.322C486.976 233.661 486.695 233.941 486.695 234.288C486.695 234.634 486.976 234.915 487.322 234.915H494.421C494.767 234.915 495.048 234.634 495.048 234.288C495.048 233.941 494.767 233.661 494.421 233.661Z" fill="#F12711"/>
<path d="M484.041 236.596H482.899C482.552 236.596 482.271 236.877 482.271 237.223C482.271 237.57 482.552 237.851 482.899 237.851H484.041C484.387 237.851 484.668 237.57 484.668 237.223C484.668 236.877 484.387 236.596 484.041 236.596Z" fill="#F12711"/>
<path d="M487.742 236.596H486.6C486.253 236.596 485.973 236.877 485.973 237.223C485.973 237.57 486.253 237.851 486.6 237.851H487.742C488.088 237.851 488.369 237.57 488.369 237.223C488.369 236.877 488.088 236.596 487.742 236.596Z" fill="#F12711"/>
<path d="M481.118 237.116C481.118 237.283 481.051 237.443 480.933 237.561C480.815 237.679 480.656 237.745 480.489 237.745H479.392C479.448 237.318 479.513 236.906 479.593 236.495H480.489C480.571 236.494 480.652 236.509 480.729 236.54C480.805 236.571 480.874 236.617 480.933 236.674C480.991 236.732 481.037 236.801 481.069 236.877C481.101 236.952 481.118 237.034 481.118 237.116Z" fill="#F12711"/>
<path d="M497.905 236.492H490.806C490.459 236.492 490.179 236.773 490.179 237.119C490.179 237.465 490.459 237.746 490.806 237.746H497.905C498.251 237.746 498.532 237.465 498.532 237.119C498.532 236.773 498.251 236.492 497.905 236.492Z" fill="#F12711"/>
<path d="M481.4 241.248C481.4 241.33 481.383 241.411 481.351 241.487C481.32 241.563 481.273 241.631 481.215 241.689C481.156 241.747 481.087 241.793 481.011 241.823C480.935 241.854 480.853 241.87 480.771 241.869H479.633C479.472 241.87 479.316 241.809 479.198 241.699V241.691C479.182 241.465 479.182 241.239 479.182 241.014V240.812L479.19 240.804C479.248 240.745 479.317 240.698 479.393 240.666C479.469 240.634 479.551 240.618 479.633 240.618H480.771C480.938 240.618 481.098 240.685 481.216 240.803C481.333 240.921 481.4 241.081 481.4 241.248Z" fill="#CCCCCC"/>
<path d="M490.938 240.512H483.839C483.493 240.512 483.212 240.793 483.212 241.139C483.212 241.486 483.493 241.767 483.839 241.767H490.938C491.284 241.767 491.565 241.486 491.565 241.139C491.565 240.793 491.284 240.512 490.938 240.512Z" fill="#CCCCCC"/>
<path d="M481.182 244.072C481.182 244.239 481.116 244.398 480.998 244.516C480.88 244.634 480.72 244.701 480.553 244.701H479.456C479.391 244.298 479.343 243.886 479.303 243.466C479.339 243.453 479.377 243.448 479.416 243.45H480.553C480.719 243.45 480.878 243.515 480.995 243.632C481.113 243.748 481.18 243.906 481.182 244.072Z" fill="#CCCCCC"/>
<path d="M484.258 243.448H483.116C482.77 243.448 482.489 243.729 482.489 244.075C482.489 244.422 482.77 244.703 483.116 244.703H484.258C484.605 244.703 484.885 244.422 484.885 244.075C484.885 243.729 484.605 243.448 484.258 243.448Z" fill="#CCCCCC"/>
<path d="M494.421 243.344H487.322C486.976 243.344 486.695 243.625 486.695 243.971C486.695 244.317 486.976 244.598 487.322 244.598H494.421C494.767 244.598 495.048 244.317 495.048 243.971C495.048 243.625 494.767 243.344 494.421 243.344Z" fill="#CCCCCC"/>
<path d="M484.041 246.279H482.899C482.552 246.279 482.271 246.56 482.271 246.906C482.271 247.253 482.552 247.534 482.899 247.534H484.041C484.387 247.534 484.668 247.253 484.668 246.906C484.668 246.56 484.387 246.279 484.041 246.279Z" fill="#CCCCCC"/>
<path d="M487.742 246.279H486.6C486.253 246.279 485.973 246.56 485.973 246.906C485.973 247.253 486.253 247.534 486.6 247.534H487.742C488.088 247.534 488.369 247.253 488.369 246.906C488.369 246.56 488.088 246.279 487.742 246.279Z" fill="#CCCCCC"/>
<path d="M481.118 246.799C481.118 246.966 481.051 247.126 480.933 247.244C480.815 247.362 480.656 247.428 480.489 247.428H480.029C479.916 247.017 479.819 246.605 479.73 246.178H480.489C480.571 246.177 480.652 246.192 480.729 246.223C480.805 246.254 480.874 246.3 480.933 246.357C480.991 246.415 481.038 246.484 481.069 246.56C481.101 246.636 481.118 246.717 481.118 246.799Z" fill="#CCCCCC"/>
<path d="M497.905 246.175H490.806C490.459 246.175 490.179 246.456 490.179 246.802C490.179 247.148 490.459 247.429 490.806 247.429H497.905C498.251 247.429 498.532 247.148 498.532 246.802C498.532 246.456 498.251 246.175 497.905 246.175Z" fill="#CCCCCC"/>
</g>
<defs>
<clipPath id="clip0_263_402">
<rect width="596" height="465" fill="white"/>
</clipPath>
</defs>
</svg>
